M48
;Layer_Color=9474304
;FILE_FORMAT=2:4
INCH
;TYPE=PLATED
T1F00S00C0.0100
T2F00S00C0.0150
T3F00S00C0.0220
%
T01
X009690Y001710
X007200Y002150
Y002350
X007110Y003090
X007720Y002680
X007750Y003810
X005450Y003750
X005500Y003500
X004800Y003450
X004400Y003500
X004100Y003780
X003695Y003970
X003650Y003050
X004150Y002850
X004400Y002450
X004800
X005650Y002350
Y002150
X005550Y002650
X005700Y002850
X005302Y004262
X005050Y004650
X004550Y004689
X004380Y005070
X003950Y005250
X003550Y005350
X003040Y005710
X002750Y006200
X003400Y006400
X003526Y006760
X003702Y006923
X004045Y007011
X004300Y007000
X004660Y007042
X004646Y007402
X004626Y007685
X004175Y007424
X004150Y006550
X004348Y005822
X004600Y005850
X005049Y006394
X005702
X006050Y006350
X006561Y006389
X007000Y006350
X007599Y006340
X007600Y007000
X007278Y006885
X006580Y007130
X006300Y006900
X006055Y007094
X005806Y006970
X005608Y007111
X005205Y007105
X005500Y006700
X006378Y007441
Y007688
X006561Y007888
X006431Y008097
X006900Y008150
X007000Y007850
X009050Y007700
X006034Y005123
X002990Y004560
X003060Y004320
X002880Y002770
X002110Y003090
X002150Y001662
X003560Y002180
X003900Y001950
X004400Y000800
X004800
X000850Y002650
X000650Y002750
X000450Y002850
X000250Y003000
X001147Y003803
X001150Y005350
X000753Y005153
X001400Y005750
X001700Y006436
X001950Y006350
X001631Y006919
X001600Y008148
X003550Y008400
X001832Y004882
X001704Y008600
X002000Y008583
X002011Y008850
X002300Y008900
X002822Y008928
X003069Y008640
X003300Y008750
X003800Y008730
X004520Y008750
X004850Y009050
X005083Y008917
X005443Y008907
X005800Y008850
X006700
X006900Y009500
X006300Y009300
X005421Y009500
X002429
X001140Y008600
X007950Y008500
X008240Y009280
X009100Y008600
T02
X007290Y003340
T03
X001900Y000395
X002400
X002900
X003400
X005700
X006200
X006700
X007200
M30
