G04 Layer_Physical_Order=2*
G04 Layer_Color=36540*
%FSAX24Y24*%
%MOIN*%
G70*
G01*
G75*
%ADD31C,0.0060*%
%ADD32C,0.0100*%
%ADD33C,0.0080*%
%ADD34C,0.0070*%
%ADD36C,0.0180*%
G36*
X009954Y000046D02*
X000046D01*
Y009954D01*
X009954D01*
Y000046D01*
D02*
G37*
%LPC*%
G36*
X007200Y002481D02*
X007175Y002478D01*
X007150Y002471D01*
X007127Y002459D01*
X007108Y002442D01*
X007091Y002423D01*
X007079Y002400D01*
X007072Y002375D01*
X007069Y002350D01*
X007072Y002325D01*
X007079Y002300D01*
X007091Y002277D01*
X007108Y002258D01*
Y002242D01*
X007091Y002223D01*
X007079Y002200D01*
X007072Y002175D01*
X007069Y002150D01*
X007072Y002125D01*
X007079Y002100D01*
X007091Y002077D01*
X007108Y002058D01*
X007127Y002041D01*
X007150Y002029D01*
X007175Y002022D01*
X007200Y002019D01*
X007225Y002022D01*
X007250Y002029D01*
X007273Y002041D01*
X007292Y002058D01*
X007309Y002077D01*
X007321Y002100D01*
X007328Y002125D01*
X007331Y002150D01*
X007328Y002175D01*
X007321Y002200D01*
X007309Y002223D01*
X007292Y002242D01*
Y002258D01*
X007309Y002277D01*
X007321Y002300D01*
X007328Y002325D01*
X007331Y002350D01*
X007328Y002375D01*
X007321Y002400D01*
X007309Y002423D01*
X007292Y002442D01*
X007273Y002459D01*
X007250Y002471D01*
X007225Y002478D01*
X007200Y002481D01*
D02*
G37*
G36*
X007720Y002811D02*
X007695Y002808D01*
X007670Y002801D01*
X007647Y002789D01*
X007628Y002772D01*
X007611Y002753D01*
X007599Y002730D01*
X007592Y002705D01*
X007589Y002680D01*
X007592Y002655D01*
X007599Y002630D01*
X007611Y002607D01*
X007628Y002588D01*
X007647Y002571D01*
X007670Y002559D01*
X007695Y002552D01*
X007720Y002549D01*
X007745Y002552D01*
X007770Y002559D01*
X007793Y002571D01*
X007812Y002588D01*
X007829Y002607D01*
X007841Y002630D01*
X007848Y002655D01*
X007851Y002680D01*
X007848Y002705D01*
X007841Y002730D01*
X007829Y002753D01*
X007812Y002772D01*
X007793Y002789D01*
X007770Y002801D01*
X007745Y002808D01*
X007720Y002811D01*
D02*
G37*
G36*
X003900Y002081D02*
X003875Y002078D01*
X003850Y002071D01*
X003827Y002059D01*
X003808Y002042D01*
X003806Y002041D01*
X002438D01*
X002415Y002038D01*
X002393Y002029D01*
X002374Y002014D01*
X002152Y001792D01*
X002150Y001792D01*
X002125Y001790D01*
X002100Y001782D01*
X002077Y001770D01*
X002058Y001754D01*
X002041Y001734D01*
X002029Y001712D01*
X002022Y001687D01*
X002019Y001662D01*
X002022Y001636D01*
X002029Y001612D01*
X002041Y001589D01*
X002058Y001569D01*
X002077Y001553D01*
X002100Y001541D01*
X002125Y001534D01*
X002150Y001531D01*
X002175Y001534D01*
X002200Y001541D01*
X002223Y001553D01*
X002242Y001569D01*
X002259Y001589D01*
X002271Y001612D01*
X002278Y001636D01*
X002281Y001662D01*
X002280Y001664D01*
X002476Y001859D01*
X003806D01*
X003808Y001858D01*
X003827Y001841D01*
X003850Y001829D01*
X003875Y001822D01*
X003900Y001819D01*
X003925Y001822D01*
X003950Y001829D01*
X003973Y001841D01*
X003992Y001858D01*
X004009Y001877D01*
X004021Y001900D01*
X004028Y001925D01*
X004031Y001950D01*
X004028Y001975D01*
X004021Y002000D01*
X004009Y002023D01*
X003992Y002042D01*
X003973Y002059D01*
X003950Y002071D01*
X003925Y002078D01*
X003900Y002081D01*
D02*
G37*
G36*
X005650Y002481D02*
X005625Y002478D01*
X005600Y002471D01*
X005577Y002459D01*
X005558Y002442D01*
X005541Y002423D01*
X005529Y002400D01*
X005522Y002375D01*
X005519Y002350D01*
X005522Y002325D01*
X005529Y002300D01*
X005541Y002277D01*
X005558Y002258D01*
Y002242D01*
X005541Y002223D01*
X005529Y002200D01*
X005522Y002175D01*
X005519Y002150D01*
X005522Y002125D01*
X005529Y002100D01*
X005541Y002077D01*
X005558Y002058D01*
X005577Y002041D01*
X005600Y002029D01*
X005625Y002022D01*
X005650Y002019D01*
X005675Y002022D01*
X005700Y002029D01*
X005723Y002041D01*
X005742Y002058D01*
X005759Y002077D01*
X005771Y002100D01*
X005778Y002125D01*
X005781Y002150D01*
X005778Y002175D01*
X005771Y002200D01*
X005759Y002223D01*
X005742Y002242D01*
Y002258D01*
X005759Y002277D01*
X005771Y002300D01*
X005778Y002325D01*
X005781Y002350D01*
X005778Y002375D01*
X005771Y002400D01*
X005759Y002423D01*
X005742Y002442D01*
X005723Y002459D01*
X005700Y002471D01*
X005675Y002478D01*
X005650Y002481D01*
D02*
G37*
G36*
X000753Y005284D02*
X000728Y005281D01*
X000703Y005274D01*
X000681Y005262D01*
X000661Y005246D01*
X000645Y005226D01*
X000632Y005203D01*
X000625Y005179D01*
X000623Y005153D01*
X000625Y005128D01*
X000632Y005103D01*
X000645Y005081D01*
X000661Y005061D01*
X000681Y005045D01*
X000703Y005032D01*
X000728Y005025D01*
X000753Y005023D01*
X000779Y005025D01*
X000803Y005032D01*
X000826Y005045D01*
X000846Y005061D01*
X000862Y005081D01*
X000874Y005103D01*
X000881Y005128D01*
X000884Y005153D01*
X000881Y005179D01*
X000874Y005203D01*
X000862Y005226D01*
X000846Y005246D01*
X000826Y005262D01*
X000803Y005274D01*
X000779Y005281D01*
X000753Y005284D01*
D02*
G37*
G36*
X001150Y005481D02*
X001125Y005478D01*
X001100Y005471D01*
X001077Y005459D01*
X001058Y005442D01*
X001041Y005423D01*
X001029Y005400D01*
X001022Y005375D01*
X001019Y005350D01*
X001022Y005325D01*
X001029Y005300D01*
X001041Y005277D01*
X001058Y005258D01*
X001077Y005241D01*
X001100Y005229D01*
X001125Y005222D01*
X001150Y005219D01*
X001175Y005222D01*
X001200Y005229D01*
X001223Y005241D01*
X001242Y005258D01*
X001259Y005277D01*
X001271Y005300D01*
X001278Y005325D01*
X001281Y005350D01*
X001278Y005375D01*
X001271Y005400D01*
X001259Y005423D01*
X001242Y005442D01*
X001223Y005459D01*
X001200Y005471D01*
X001175Y005478D01*
X001150Y005481D01*
D02*
G37*
G36*
X001147Y003934D02*
X001121Y003931D01*
X001097Y003924D01*
X001074Y003912D01*
X001054Y003896D01*
X001038Y003876D01*
X001026Y003853D01*
X001019Y003829D01*
X001016Y003803D01*
X001019Y003778D01*
X001026Y003753D01*
X001038Y003731D01*
X001054Y003711D01*
X001074Y003695D01*
X001097Y003682D01*
X001121Y003675D01*
X001147Y003673D01*
X001172Y003675D01*
X001197Y003682D01*
X001219Y003695D01*
X001239Y003711D01*
X001255Y003731D01*
X001268Y003753D01*
X001275Y003778D01*
X001277Y003803D01*
X001275Y003829D01*
X001268Y003853D01*
X001255Y003876D01*
X001239Y003896D01*
X001219Y003912D01*
X001197Y003924D01*
X001172Y003931D01*
X001147Y003934D01*
D02*
G37*
G36*
X007750Y003941D02*
X007725Y003938D01*
X007700Y003931D01*
X007677Y003919D01*
X007658Y003902D01*
X007641Y003883D01*
X007629Y003860D01*
X007622Y003835D01*
X007619Y003810D01*
X007622Y003785D01*
X007629Y003760D01*
X007641Y003737D01*
X007658Y003718D01*
X007677Y003701D01*
X007700Y003689D01*
X007725Y003682D01*
X007750Y003679D01*
X007775Y003682D01*
X007800Y003689D01*
X007823Y003701D01*
X007842Y003718D01*
X007859Y003737D01*
X007871Y003760D01*
X007878Y003785D01*
X007881Y003810D01*
X007878Y003835D01*
X007871Y003860D01*
X007859Y003883D01*
X007842Y003902D01*
X007823Y003919D01*
X007800Y003931D01*
X007775Y003938D01*
X007750Y003941D01*
D02*
G37*
G36*
X009690Y001841D02*
X009665Y001838D01*
X009640Y001831D01*
X009617Y001819D01*
X009598Y001802D01*
X009581Y001783D01*
X009569Y001760D01*
X009562Y001735D01*
X009559Y001710D01*
X009562Y001685D01*
X009569Y001660D01*
X009581Y001637D01*
X009598Y001618D01*
X009617Y001601D01*
X009640Y001589D01*
X009665Y001582D01*
X009690Y001579D01*
X009715Y001582D01*
X009740Y001589D01*
X009763Y001601D01*
X009782Y001618D01*
X009799Y001637D01*
X009811Y001660D01*
X009818Y001685D01*
X009821Y001710D01*
X009818Y001735D01*
X009811Y001760D01*
X009799Y001783D01*
X009782Y001802D01*
X009763Y001819D01*
X009740Y001831D01*
X009715Y001838D01*
X009690Y001841D01*
D02*
G37*
G36*
X002900Y000660D02*
X002866Y000658D01*
X002833Y000650D01*
X002802Y000637D01*
X002773Y000619D01*
X002747Y000597D01*
X002725Y000571D01*
X002708Y000542D01*
X002695Y000511D01*
X002687Y000478D01*
X002684Y000444D01*
Y000346D01*
X002687Y000312D01*
X002695Y000279D01*
X002708Y000248D01*
X002725Y000219D01*
X002747Y000193D01*
X002773Y000171D01*
X002802Y000154D01*
X002833Y000141D01*
X002866Y000133D01*
X002900Y000130D01*
X002934Y000133D01*
X002967Y000141D01*
X002998Y000154D01*
X003027Y000171D01*
X003053Y000193D01*
X003075Y000219D01*
X003092Y000248D01*
X003105Y000279D01*
X003113Y000312D01*
X003116Y000346D01*
Y000444D01*
X003113Y000478D01*
X003105Y000511D01*
X003092Y000542D01*
X003075Y000571D01*
X003053Y000597D01*
X003027Y000619D01*
X002998Y000637D01*
X002967Y000650D01*
X002934Y000658D01*
X002900Y000660D01*
D02*
G37*
G36*
X003400D02*
X003366Y000658D01*
X003333Y000650D01*
X003302Y000637D01*
X003273Y000619D01*
X003247Y000597D01*
X003225Y000571D01*
X003208Y000542D01*
X003195Y000511D01*
X003187Y000478D01*
X003184Y000444D01*
Y000346D01*
X003187Y000312D01*
X003195Y000279D01*
X003208Y000248D01*
X003225Y000219D01*
X003247Y000193D01*
X003273Y000171D01*
X003302Y000154D01*
X003333Y000141D01*
X003366Y000133D01*
X003400Y000130D01*
X003434Y000133D01*
X003467Y000141D01*
X003498Y000154D01*
X003527Y000171D01*
X003553Y000193D01*
X003575Y000219D01*
X003592Y000248D01*
X003605Y000279D01*
X003613Y000312D01*
X003616Y000346D01*
Y000444D01*
X003613Y000478D01*
X003605Y000511D01*
X003592Y000542D01*
X003575Y000571D01*
X003553Y000597D01*
X003527Y000619D01*
X003498Y000637D01*
X003467Y000650D01*
X003434Y000658D01*
X003400Y000660D01*
D02*
G37*
G36*
X001900D02*
X001866Y000658D01*
X001833Y000650D01*
X001802Y000637D01*
X001773Y000619D01*
X001747Y000597D01*
X001725Y000571D01*
X001708Y000542D01*
X001695Y000511D01*
X001687Y000478D01*
X001684Y000444D01*
Y000346D01*
X001687Y000312D01*
X001695Y000279D01*
X001708Y000248D01*
X001725Y000219D01*
X001747Y000193D01*
X001773Y000171D01*
X001802Y000154D01*
X001833Y000141D01*
X001866Y000133D01*
X001900Y000130D01*
X001934Y000133D01*
X001967Y000141D01*
X001998Y000154D01*
X002027Y000171D01*
X002053Y000193D01*
X002075Y000219D01*
X002092Y000248D01*
X002105Y000279D01*
X002113Y000312D01*
X002116Y000346D01*
Y000444D01*
X002113Y000478D01*
X002105Y000511D01*
X002092Y000542D01*
X002075Y000571D01*
X002053Y000597D01*
X002027Y000619D01*
X001998Y000637D01*
X001967Y000650D01*
X001934Y000658D01*
X001900Y000660D01*
D02*
G37*
G36*
X002400D02*
X002366Y000658D01*
X002333Y000650D01*
X002302Y000637D01*
X002273Y000619D01*
X002247Y000597D01*
X002225Y000571D01*
X002208Y000542D01*
X002195Y000511D01*
X002187Y000478D01*
X002184Y000444D01*
Y000346D01*
X002187Y000312D01*
X002195Y000279D01*
X002208Y000248D01*
X002225Y000219D01*
X002247Y000193D01*
X002273Y000171D01*
X002302Y000154D01*
X002333Y000141D01*
X002366Y000133D01*
X002400Y000130D01*
X002434Y000133D01*
X002467Y000141D01*
X002498Y000154D01*
X002527Y000171D01*
X002553Y000193D01*
X002575Y000219D01*
X002592Y000248D01*
X002605Y000279D01*
X002613Y000312D01*
X002616Y000346D01*
Y000444D01*
X002613Y000478D01*
X002605Y000511D01*
X002592Y000542D01*
X002575Y000571D01*
X002553Y000597D01*
X002527Y000619D01*
X002498Y000637D01*
X002467Y000650D01*
X002434Y000658D01*
X002400Y000660D01*
D02*
G37*
G36*
X006700D02*
X006666Y000658D01*
X006633Y000650D01*
X006602Y000637D01*
X006573Y000619D01*
X006547Y000597D01*
X006525Y000571D01*
X006508Y000542D01*
X006495Y000511D01*
X006487Y000478D01*
X006484Y000444D01*
Y000346D01*
X006487Y000312D01*
X006495Y000279D01*
X006508Y000248D01*
X006525Y000219D01*
X006547Y000193D01*
X006573Y000171D01*
X006602Y000154D01*
X006633Y000141D01*
X006666Y000133D01*
X006700Y000130D01*
X006734Y000133D01*
X006767Y000141D01*
X006798Y000154D01*
X006827Y000171D01*
X006853Y000193D01*
X006875Y000219D01*
X006892Y000248D01*
X006905Y000279D01*
X006913Y000312D01*
X006916Y000346D01*
Y000444D01*
X006913Y000478D01*
X006905Y000511D01*
X006892Y000542D01*
X006875Y000571D01*
X006853Y000597D01*
X006827Y000619D01*
X006798Y000637D01*
X006767Y000650D01*
X006734Y000658D01*
X006700Y000660D01*
D02*
G37*
G36*
X007200D02*
X007166Y000658D01*
X007133Y000650D01*
X007102Y000637D01*
X007073Y000619D01*
X007047Y000597D01*
X007025Y000571D01*
X007008Y000542D01*
X006995Y000511D01*
X006987Y000478D01*
X006984Y000444D01*
Y000346D01*
X006987Y000312D01*
X006995Y000279D01*
X007008Y000248D01*
X007025Y000219D01*
X007047Y000193D01*
X007073Y000171D01*
X007102Y000154D01*
X007133Y000141D01*
X007166Y000133D01*
X007200Y000130D01*
X007234Y000133D01*
X007267Y000141D01*
X007298Y000154D01*
X007327Y000171D01*
X007353Y000193D01*
X007375Y000219D01*
X007392Y000248D01*
X007405Y000279D01*
X007413Y000312D01*
X007416Y000346D01*
Y000444D01*
X007413Y000478D01*
X007405Y000511D01*
X007392Y000542D01*
X007375Y000571D01*
X007353Y000597D01*
X007327Y000619D01*
X007298Y000637D01*
X007267Y000650D01*
X007234Y000658D01*
X007200Y000660D01*
D02*
G37*
G36*
X005700D02*
X005666Y000658D01*
X005633Y000650D01*
X005602Y000637D01*
X005573Y000619D01*
X005547Y000597D01*
X005525Y000571D01*
X005508Y000542D01*
X005495Y000511D01*
X005487Y000478D01*
X005484Y000444D01*
Y000346D01*
X005487Y000312D01*
X005495Y000279D01*
X005508Y000248D01*
X005525Y000219D01*
X005547Y000193D01*
X005573Y000171D01*
X005602Y000154D01*
X005633Y000141D01*
X005666Y000133D01*
X005700Y000130D01*
X005734Y000133D01*
X005767Y000141D01*
X005798Y000154D01*
X005827Y000171D01*
X005853Y000193D01*
X005875Y000219D01*
X005892Y000248D01*
X005905Y000279D01*
X005913Y000312D01*
X005916Y000346D01*
Y000444D01*
X005913Y000478D01*
X005905Y000511D01*
X005892Y000542D01*
X005875Y000571D01*
X005853Y000597D01*
X005827Y000619D01*
X005798Y000637D01*
X005767Y000650D01*
X005734Y000658D01*
X005700Y000660D01*
D02*
G37*
G36*
X006200D02*
X006166Y000658D01*
X006133Y000650D01*
X006102Y000637D01*
X006073Y000619D01*
X006047Y000597D01*
X006025Y000571D01*
X006008Y000542D01*
X005995Y000511D01*
X005987Y000478D01*
X005984Y000444D01*
Y000346D01*
X005987Y000312D01*
X005995Y000279D01*
X006008Y000248D01*
X006025Y000219D01*
X006047Y000193D01*
X006073Y000171D01*
X006102Y000154D01*
X006133Y000141D01*
X006166Y000133D01*
X006200Y000130D01*
X006234Y000133D01*
X006267Y000141D01*
X006298Y000154D01*
X006327Y000171D01*
X006353Y000193D01*
X006375Y000219D01*
X006392Y000248D01*
X006405Y000279D01*
X006413Y000312D01*
X006416Y000346D01*
Y000444D01*
X006413Y000478D01*
X006405Y000511D01*
X006392Y000542D01*
X006375Y000571D01*
X006353Y000597D01*
X006327Y000619D01*
X006298Y000637D01*
X006267Y000650D01*
X006234Y000658D01*
X006200Y000660D01*
D02*
G37*
G36*
X007278Y007016D02*
X007252Y007013D01*
X007228Y007006D01*
X007205Y006994D01*
X007185Y006978D01*
X007169Y006958D01*
X007157Y006935D01*
X007149Y006911D01*
X007147Y006885D01*
X007149Y006860D01*
X007157Y006835D01*
X007169Y006813D01*
X007185Y006793D01*
X007205Y006777D01*
X007228Y006765D01*
X007252Y006757D01*
X007278Y006755D01*
X007303Y006757D01*
X007328Y006765D01*
X007350Y006777D01*
X007370Y006793D01*
X007386Y006813D01*
X007398Y006835D01*
X007406Y006860D01*
X007408Y006885D01*
X007406Y006911D01*
X007398Y006935D01*
X007386Y006958D01*
X007370Y006978D01*
X007350Y006994D01*
X007328Y007006D01*
X007303Y007013D01*
X007278Y007016D01*
D02*
G37*
G36*
X009100Y008731D02*
X009075Y008728D01*
X009050Y008721D01*
X009027Y008709D01*
X009008Y008692D01*
X008991Y008673D01*
X008979Y008650D01*
X008972Y008625D01*
X008969Y008600D01*
X008972Y008575D01*
X008979Y008550D01*
X008991Y008527D01*
X009008Y008508D01*
X009027Y008491D01*
X009050Y008479D01*
X009075Y008472D01*
X009100Y008469D01*
X009125Y008472D01*
X009150Y008479D01*
X009173Y008491D01*
X009192Y008508D01*
X009209Y008527D01*
X009221Y008550D01*
X009228Y008575D01*
X009231Y008600D01*
X009228Y008625D01*
X009221Y008650D01*
X009209Y008673D01*
X009192Y008692D01*
X009173Y008709D01*
X009150Y008721D01*
X009125Y008728D01*
X009100Y008731D01*
D02*
G37*
G36*
X009050Y007831D02*
X009025Y007828D01*
X009000Y007821D01*
X008977Y007809D01*
X008958Y007792D01*
X008941Y007773D01*
X008929Y007750D01*
X008922Y007725D01*
X008919Y007700D01*
X008922Y007675D01*
X008929Y007650D01*
X008941Y007627D01*
X008958Y007608D01*
X008977Y007591D01*
X009000Y007579D01*
X009025Y007572D01*
X009050Y007569D01*
X009075Y007572D01*
X009100Y007579D01*
X009123Y007591D01*
X009142Y007608D01*
X009159Y007627D01*
X009171Y007650D01*
X009178Y007675D01*
X009181Y007700D01*
X009178Y007725D01*
X009171Y007750D01*
X009159Y007773D01*
X009142Y007792D01*
X009123Y007809D01*
X009100Y007821D01*
X009075Y007828D01*
X009050Y007831D01*
D02*
G37*
G36*
X005424Y009871D02*
X001930D01*
X001907Y009868D01*
X001885Y009859D01*
X001866Y009844D01*
X001336Y009314D01*
X001321Y009295D01*
X001312Y009273D01*
X001309Y009250D01*
Y008624D01*
X001309Y008623D01*
X001269Y008621D01*
X001268Y008625D01*
X001261Y008650D01*
X001249Y008673D01*
X001232Y008692D01*
X001213Y008709D01*
X001190Y008721D01*
X001165Y008728D01*
X001140Y008731D01*
X001115Y008728D01*
X001090Y008721D01*
X001067Y008709D01*
X001048Y008692D01*
X001031Y008673D01*
X001019Y008650D01*
X001012Y008625D01*
X001009Y008600D01*
X001012Y008575D01*
X001019Y008550D01*
X001031Y008527D01*
X001048Y008508D01*
X001067Y008491D01*
X001069Y008490D01*
Y005755D01*
X001069Y005755D01*
X001072Y005737D01*
X001079Y005720D01*
X001090Y005706D01*
X001591Y005204D01*
Y003284D01*
X001591Y003284D01*
X001594Y003265D01*
X001601Y003248D01*
X001612Y003234D01*
X002466Y002380D01*
X002466Y002380D01*
X002480Y002369D01*
X002497Y002362D01*
X002515Y002359D01*
X002515Y002359D01*
X003270D01*
X003270Y002359D01*
X003289Y002362D01*
X003306Y002369D01*
X003320Y002380D01*
X004069Y003129D01*
X004109Y003112D01*
Y002973D01*
X004100Y002971D01*
X004077Y002959D01*
X004058Y002942D01*
X004041Y002923D01*
X004029Y002900D01*
X004022Y002875D01*
X004019Y002850D01*
X004022Y002825D01*
X004029Y002800D01*
X004041Y002777D01*
X004058Y002758D01*
X004077Y002741D01*
X004100Y002729D01*
X004125Y002722D01*
X004150Y002719D01*
X004175Y002722D01*
X004200Y002729D01*
X004223Y002741D01*
X004242Y002758D01*
X004259Y002777D01*
X004271Y002800D01*
X004309Y002789D01*
Y002544D01*
X004308Y002542D01*
X004291Y002523D01*
X004279Y002500D01*
X004272Y002475D01*
X004269Y002450D01*
X004272Y002425D01*
X004279Y002400D01*
X004291Y002377D01*
X004308Y002358D01*
X004327Y002341D01*
X004350Y002329D01*
X004371Y002323D01*
X004377Y002311D01*
X004385Y002281D01*
X004336Y002231D01*
X004321Y002213D01*
X004312Y002191D01*
X004309Y002167D01*
Y000894D01*
X004308Y000892D01*
X004291Y000873D01*
X004279Y000850D01*
X004272Y000825D01*
X004269Y000800D01*
X004272Y000775D01*
X004279Y000750D01*
X004291Y000727D01*
X004308Y000708D01*
X004327Y000691D01*
X004350Y000679D01*
X004375Y000672D01*
X004400Y000669D01*
X004425Y000672D01*
X004450Y000679D01*
X004473Y000691D01*
X004492Y000708D01*
X004509Y000727D01*
X004521Y000750D01*
X004528Y000775D01*
X004531Y000800D01*
X004528Y000825D01*
X004521Y000850D01*
X004509Y000873D01*
X004492Y000892D01*
X004491Y000894D01*
Y002130D01*
X004664Y002303D01*
X004679Y002322D01*
X004681Y002328D01*
X004712Y002342D01*
X004715Y002342D01*
X004727Y002341D01*
X004750Y002329D01*
X004771Y002323D01*
X004777Y002311D01*
X004785Y002281D01*
X004736Y002231D01*
X004721Y002213D01*
X004712Y002191D01*
X004709Y002167D01*
Y000894D01*
X004708Y000892D01*
X004691Y000873D01*
X004679Y000850D01*
X004672Y000825D01*
X004669Y000800D01*
X004672Y000775D01*
X004679Y000750D01*
X004691Y000727D01*
X004708Y000708D01*
X004727Y000691D01*
X004750Y000679D01*
X004775Y000672D01*
X004800Y000669D01*
X004825Y000672D01*
X004850Y000679D01*
X004873Y000691D01*
X004892Y000708D01*
X004909Y000727D01*
X004921Y000750D01*
X004928Y000775D01*
X004931Y000800D01*
X004928Y000825D01*
X004921Y000850D01*
X004909Y000873D01*
X004892Y000892D01*
X004891Y000894D01*
Y002130D01*
X005064Y002303D01*
X005079Y002322D01*
X005088Y002344D01*
X005091Y002367D01*
Y003036D01*
X005433Y003379D01*
X005473Y003369D01*
X005477Y003362D01*
X005485Y003331D01*
X005470Y003315D01*
X005459Y003301D01*
X005452Y003284D01*
X005449Y003265D01*
X005449Y003265D01*
Y002732D01*
X005441Y002723D01*
X005429Y002700D01*
X005422Y002675D01*
X005419Y002650D01*
X005422Y002625D01*
X005429Y002600D01*
X005441Y002577D01*
X005458Y002558D01*
X005477Y002541D01*
X005500Y002529D01*
X005525Y002522D01*
X005550Y002519D01*
X005575Y002522D01*
X005600Y002529D01*
X005623Y002541D01*
X005642Y002558D01*
X005659Y002577D01*
X005671Y002600D01*
X005678Y002625D01*
X005681Y002650D01*
X005678Y002675D01*
X005676Y002682D01*
X005696Y002713D01*
X005699Y002716D01*
X005705Y002720D01*
X005725Y002722D01*
X005750Y002729D01*
X005773Y002741D01*
X005792Y002758D01*
X005809Y002777D01*
X005821Y002800D01*
X005828Y002825D01*
X005831Y002850D01*
X005828Y002875D01*
X005821Y002900D01*
X005809Y002923D01*
X005792Y002942D01*
X005791Y002944D01*
Y003062D01*
X006825Y004097D01*
X006840Y004116D01*
X006849Y004137D01*
X006852Y004161D01*
Y006267D01*
X006890Y006277D01*
X006892Y006277D01*
X006908Y006258D01*
X006927Y006241D01*
X006950Y006229D01*
X006975Y006222D01*
X007000Y006219D01*
X007029Y006185D01*
Y003467D01*
X007025Y003461D01*
X007017Y003442D01*
X007014Y003421D01*
Y003259D01*
X007017Y003238D01*
X007025Y003219D01*
X007029Y003213D01*
Y003192D01*
X007018Y003182D01*
X007001Y003163D01*
X006989Y003140D01*
X006982Y003115D01*
X006979Y003090D01*
X006982Y003065D01*
X006989Y003040D01*
X007001Y003017D01*
X007018Y002998D01*
X007037Y002981D01*
X007060Y002969D01*
X007085Y002962D01*
X007110Y002959D01*
X007135Y002962D01*
X007160Y002969D01*
X007183Y002981D01*
X007202Y002998D01*
X007219Y003017D01*
X007231Y003040D01*
X007238Y003065D01*
X007241Y003090D01*
X007238Y003115D01*
X007231Y003140D01*
X007222Y003157D01*
X007230Y003174D01*
X007247Y003191D01*
X007260Y003187D01*
X007290Y003184D01*
X007320Y003187D01*
X007350Y003196D01*
X007377Y003210D01*
X007400Y003230D01*
X007419Y003253D01*
X007434Y003280D01*
X007443Y003310D01*
X007446Y003340D01*
X007443Y003370D01*
X007434Y003400D01*
X007419Y003427D01*
X007400Y003450D01*
X007377Y003469D01*
X007350Y003484D01*
X007320Y003493D01*
X007290Y003496D01*
X007260Y003493D01*
X007230Y003484D01*
X007191Y003508D01*
Y006245D01*
X007188Y006266D01*
X007180Y006285D01*
X007167Y006302D01*
X007130Y006340D01*
X007131Y006350D01*
X007128Y006375D01*
X007121Y006400D01*
X007109Y006423D01*
X007092Y006442D01*
X007081Y006452D01*
Y007748D01*
X007092Y007758D01*
X007109Y007777D01*
X007121Y007800D01*
X007128Y007825D01*
X007131Y007850D01*
X007128Y007875D01*
X007121Y007900D01*
X007109Y007923D01*
X007092Y007942D01*
X007073Y007959D01*
X007050Y007971D01*
X007025Y007978D01*
X007000Y007981D01*
X006975Y007978D01*
X006950Y007971D01*
X006927Y007959D01*
X006908Y007942D01*
X006892Y007923D01*
X006890Y007923D01*
X006852Y007933D01*
Y007971D01*
X006849Y007988D01*
X006863Y008007D01*
X006881Y008021D01*
X006900Y008019D01*
X006925Y008022D01*
X006950Y008029D01*
X006973Y008041D01*
X006992Y008058D01*
X006994Y008059D01*
X007650D01*
X007674Y008062D01*
X007681Y008066D01*
X007715Y008048D01*
X007721Y008041D01*
Y007119D01*
X007717Y007115D01*
X007681Y007101D01*
X007673Y007109D01*
X007650Y007121D01*
X007625Y007128D01*
X007600Y007131D01*
X007575Y007128D01*
X007550Y007121D01*
X007527Y007109D01*
X007508Y007092D01*
X007491Y007073D01*
X007479Y007050D01*
X007472Y007025D01*
X007469Y007000D01*
X007472Y006975D01*
X007479Y006950D01*
X007491Y006927D01*
X007508Y006908D01*
X007527Y006891D01*
X007550Y006879D01*
X007575Y006872D01*
X007600Y006869D01*
X007625Y006872D01*
X007650Y006879D01*
X007673Y006891D01*
X007681Y006899D01*
X007717Y006885D01*
X007721Y006881D01*
Y006591D01*
X007601Y006470D01*
X007599Y006470D01*
X007573Y006468D01*
X007549Y006460D01*
X007526Y006448D01*
X007506Y006432D01*
X007490Y006412D01*
X007478Y006390D01*
X007471Y006365D01*
X007468Y006340D01*
X007471Y006314D01*
X007478Y006290D01*
X007490Y006267D01*
X007506Y006247D01*
X007526Y006231D01*
X007549Y006219D01*
X007573Y006212D01*
X007599Y006209D01*
X007624Y006212D01*
X007649Y006219D01*
X007671Y006231D01*
X007691Y006247D01*
X007707Y006267D01*
X007720Y006290D01*
X007727Y006314D01*
X007729Y006340D01*
X007729Y006342D01*
X007876Y006489D01*
X007891Y006508D01*
X007900Y006530D01*
X007903Y006553D01*
Y008288D01*
X007900Y008311D01*
X007891Y008333D01*
X007883Y008344D01*
X007892Y008362D01*
X007906Y008377D01*
X007925Y008372D01*
X007950Y008369D01*
X007975Y008372D01*
X008000Y008379D01*
X008023Y008391D01*
X008042Y008408D01*
X008059Y008427D01*
X008071Y008450D01*
X008078Y008475D01*
X008081Y008500D01*
X008078Y008525D01*
X008071Y008550D01*
X008059Y008573D01*
X008042Y008592D01*
X008023Y008609D01*
X008000Y008621D01*
X007975Y008628D01*
X007950Y008631D01*
X007925Y008628D01*
X007900Y008621D01*
X007877Y008609D01*
X007858Y008592D01*
X007841Y008573D01*
X007829Y008550D01*
X007822Y008525D01*
X007819Y008500D01*
X007822Y008475D01*
X007829Y008450D01*
X007841Y008427D01*
X007846Y008422D01*
X007825Y008391D01*
X007822Y008388D01*
X007800Y008391D01*
X007776Y008388D01*
X007755Y008379D01*
X007736Y008364D01*
X007612Y008241D01*
X006994D01*
X006992Y008242D01*
X006973Y008259D01*
X006950Y008271D01*
X006925Y008278D01*
X006900Y008281D01*
X006875Y008278D01*
X006850Y008271D01*
X006827Y008259D01*
X006808Y008242D01*
X006791Y008223D01*
X006779Y008200D01*
X006775Y008184D01*
X006735Y008190D01*
Y008238D01*
X006731Y008262D01*
X006722Y008283D01*
X006708Y008302D01*
X006528Y008482D01*
X006764Y008718D01*
X006779Y008737D01*
X006785Y008751D01*
X006792Y008758D01*
X006809Y008777D01*
X006821Y008800D01*
X006828Y008825D01*
X006831Y008850D01*
X006828Y008875D01*
X006821Y008900D01*
X006809Y008923D01*
X006792Y008942D01*
X006773Y008959D01*
X006750Y008971D01*
X006725Y008978D01*
X006700Y008981D01*
X006675Y008978D01*
X006650Y008971D01*
X006627Y008959D01*
X006608Y008942D01*
X006591Y008923D01*
X006579Y008900D01*
X006572Y008875D01*
X006569Y008850D01*
X006572Y008825D01*
X006579Y008800D01*
X006583Y008793D01*
X006336Y008546D01*
X006321Y008527D01*
X006312Y008505D01*
X006309Y008482D01*
X006312Y008458D01*
X006321Y008436D01*
X006336Y008418D01*
X006501Y008252D01*
X006481Y008218D01*
X006456Y008225D01*
X006431Y008228D01*
X006405Y008225D01*
X006381Y008218D01*
X006358Y008206D01*
X006338Y008190D01*
X006322Y008170D01*
X006310Y008147D01*
X006303Y008123D01*
X006300Y008097D01*
X006303Y008072D01*
X006310Y008047D01*
X006322Y008025D01*
X006338Y008005D01*
X006358Y007989D01*
X006381Y007976D01*
X006405Y007969D01*
X006411Y007968D01*
X006424Y007955D01*
X006436Y007934D01*
X006437Y007927D01*
X006433Y007913D01*
X006430Y007888D01*
X006433Y007862D01*
X006437Y007848D01*
X006421Y007824D01*
X006407Y007815D01*
X006403Y007816D01*
X006378Y007818D01*
X006352Y007816D01*
X006328Y007809D01*
X006305Y007796D01*
X006286Y007780D01*
X006269Y007760D01*
X006257Y007738D01*
X006250Y007713D01*
X006247Y007688D01*
X006250Y007662D01*
X006257Y007638D01*
X006269Y007615D01*
X006286Y007595D01*
X006294Y007589D01*
X006297Y007576D01*
Y007552D01*
X006294Y007540D01*
X006286Y007533D01*
X006269Y007514D01*
X006257Y007491D01*
X006250Y007466D01*
X006247Y007441D01*
X006250Y007415D01*
X006257Y007391D01*
X006269Y007368D01*
X006286Y007349D01*
X006305Y007332D01*
X006328Y007320D01*
X006352Y007313D01*
X006378Y007310D01*
X006378Y007310D01*
X006396Y007272D01*
X006370Y007246D01*
X006359Y007232D01*
X006352Y007215D01*
X006349Y007196D01*
X006349Y007196D01*
Y007063D01*
X006342Y007052D01*
X006312Y007030D01*
X006310Y007030D01*
X006300Y007031D01*
X006275Y007028D01*
X006250Y007021D01*
X006227Y007009D01*
X006208Y006992D01*
X006200Y006983D01*
X006162Y006990D01*
X006158Y006993D01*
X006155Y007011D01*
X006164Y007022D01*
X006176Y007045D01*
X006183Y007069D01*
X006186Y007094D01*
X006183Y007120D01*
X006176Y007144D01*
X006164Y007167D01*
X006147Y007187D01*
X006128Y007203D01*
X006105Y007215D01*
X006081Y007223D01*
X006055Y007225D01*
X006041Y007260D01*
Y008453D01*
X006224Y008637D01*
X006239Y008655D01*
X006248Y008677D01*
X006251Y008701D01*
Y009143D01*
X006291Y009170D01*
X006300Y009169D01*
X006325Y009172D01*
X006350Y009179D01*
X006373Y009191D01*
X006392Y009208D01*
X006409Y009227D01*
X006421Y009250D01*
X006428Y009275D01*
X006431Y009300D01*
X006428Y009325D01*
X006421Y009350D01*
X006410Y009369D01*
X006414Y009382D01*
X006430Y009409D01*
X006806D01*
X006808Y009408D01*
X006827Y009391D01*
X006850Y009379D01*
X006875Y009372D01*
X006900Y009369D01*
X006925Y009372D01*
X006950Y009379D01*
X006973Y009391D01*
X006992Y009408D01*
X007009Y009427D01*
X007021Y009450D01*
X007028Y009475D01*
X007031Y009500D01*
X007028Y009525D01*
X007021Y009550D01*
X007009Y009573D01*
X006992Y009592D01*
X006973Y009609D01*
X006950Y009621D01*
X006925Y009628D01*
X006900Y009631D01*
X006875Y009628D01*
X006850Y009621D01*
X006827Y009609D01*
X006808Y009592D01*
X006806Y009591D01*
X006090D01*
X006066Y009588D01*
X006044Y009579D01*
X006026Y009564D01*
X005936Y009474D01*
X005921Y009456D01*
X005912Y009434D01*
X005909Y009410D01*
Y009389D01*
X005869Y009375D01*
X005864Y009382D01*
X005712Y009534D01*
Y009583D01*
X005709Y009606D01*
X005700Y009628D01*
X005685Y009647D01*
X005488Y009844D01*
X005469Y009859D01*
X005448Y009868D01*
X005424Y009871D01*
D02*
G37*
G36*
X008240Y009411D02*
X008215Y009408D01*
X008190Y009401D01*
X008167Y009389D01*
X008148Y009372D01*
X008131Y009353D01*
X008119Y009330D01*
X008112Y009305D01*
X008109Y009280D01*
X008112Y009255D01*
X008119Y009230D01*
X008131Y009207D01*
X008148Y009188D01*
X008167Y009171D01*
X008190Y009159D01*
X008215Y009152D01*
X008240Y009149D01*
X008265Y009152D01*
X008290Y009159D01*
X008313Y009171D01*
X008332Y009188D01*
X008349Y009207D01*
X008361Y009230D01*
X008368Y009255D01*
X008371Y009280D01*
X008368Y009305D01*
X008361Y009330D01*
X008349Y009353D01*
X008332Y009372D01*
X008313Y009389D01*
X008290Y009401D01*
X008265Y009408D01*
X008240Y009411D01*
D02*
G37*
%LPD*%
G36*
X006490Y006855D02*
Y006499D01*
X006488Y006498D01*
X006469Y006481D01*
X006452Y006462D01*
X006440Y006439D01*
X006433Y006415D01*
X006430Y006389D01*
X006433Y006364D01*
X006440Y006339D01*
X006452Y006316D01*
X006469Y006297D01*
X006488Y006280D01*
X006511Y006268D01*
X006535Y006261D01*
X006561Y006258D01*
X006586Y006261D01*
X006611Y006268D01*
X006630Y006279D01*
X006643Y006275D01*
X006670Y006259D01*
Y004199D01*
X005636Y003164D01*
X005631Y003157D01*
X005591Y003171D01*
Y003236D01*
X005730Y003376D01*
X005730Y003376D01*
X005741Y003390D01*
X005748Y003407D01*
X005751Y003425D01*
Y006000D01*
Y006046D01*
X005960Y006256D01*
X005977Y006241D01*
X006000Y006229D01*
X006025Y006222D01*
X006050Y006219D01*
X006075Y006222D01*
X006100Y006229D01*
X006119Y006240D01*
X006132Y006236D01*
X006159Y006220D01*
Y005377D01*
X006036Y005254D01*
X006034Y005254D01*
X006009Y005251D01*
X005984Y005244D01*
X005962Y005232D01*
X005942Y005216D01*
X005926Y005196D01*
X005914Y005173D01*
X005906Y005149D01*
X005904Y005123D01*
X005906Y005098D01*
X005914Y005073D01*
X005926Y005051D01*
X005942Y005031D01*
X005962Y005015D01*
X005984Y005003D01*
X006009Y004995D01*
X006034Y004993D01*
X006060Y004995D01*
X006084Y005003D01*
X006107Y005015D01*
X006127Y005031D01*
X006143Y005051D01*
X006155Y005073D01*
X006162Y005098D01*
X006165Y005123D01*
X006165Y005125D01*
X006314Y005275D01*
X006329Y005294D01*
X006338Y005316D01*
X006341Y005339D01*
Y006433D01*
X006338Y006456D01*
X006329Y006478D01*
X006314Y006497D01*
X006146Y006665D01*
Y006828D01*
X006186Y006838D01*
X006191Y006827D01*
X006208Y006808D01*
X006227Y006791D01*
X006250Y006779D01*
X006275Y006772D01*
X006300Y006769D01*
X006325Y006772D01*
X006350Y006779D01*
X006373Y006791D01*
X006392Y006808D01*
X006409Y006827D01*
X006421Y006850D01*
X006425Y006865D01*
X006464Y006877D01*
X006490Y006855D01*
D02*
G37*
G36*
X002242Y002997D02*
X002698Y002541D01*
X002682Y002501D01*
X002545D01*
X002125Y002921D01*
X002133Y002952D01*
X002139Y002963D01*
X002160Y002969D01*
X002183Y002981D01*
X002202Y002998D01*
X002242Y002997D01*
D02*
G37*
G36*
X006670Y007324D02*
Y006907D01*
X006630Y006904D01*
X006629Y006912D01*
X006622Y006929D01*
X006611Y006944D01*
X006611Y006944D01*
X006491Y007064D01*
Y007167D01*
X006611Y007287D01*
X006611Y007287D01*
X006622Y007302D01*
X006629Y007319D01*
X006630Y007327D01*
X006670Y007324D01*
D02*
G37*
G36*
X005571Y009419D02*
X005709Y009280D01*
Y009078D01*
X005669Y009065D01*
X005664Y009071D01*
X005663Y009073D01*
X005644Y009087D01*
X005622Y009096D01*
X005598Y009099D01*
X005512D01*
X005500Y009101D01*
X005477Y009098D01*
X005455Y009089D01*
X005436Y009074D01*
X005383Y009022D01*
X005374Y009017D01*
X005362Y009020D01*
X005334Y009037D01*
Y009041D01*
X005334Y009041D01*
X005332Y009059D01*
X005325Y009076D01*
X005313Y009091D01*
X005313Y009091D01*
X005291Y009114D01*
Y009269D01*
X005394Y009373D01*
X005396Y009372D01*
X005421Y009369D01*
X005447Y009372D01*
X005471Y009379D01*
X005494Y009391D01*
X005514Y009408D01*
X005520Y009415D01*
X005529Y009419D01*
X005557Y009421D01*
X005571Y009419D01*
D02*
G37*
G36*
X005396Y009664D02*
X005384Y009624D01*
X005371Y009621D01*
X005349Y009609D01*
X005329Y009592D01*
X005313Y009573D01*
X005301Y009550D01*
X005293Y009525D01*
X005291Y009500D01*
X005293Y009475D01*
X005294Y009472D01*
X005170Y009349D01*
X005159Y009334D01*
X005152Y009317D01*
X005149Y009299D01*
X005149Y009299D01*
Y009085D01*
X005149Y009085D01*
X005151Y009074D01*
X005148Y009068D01*
X005137Y009056D01*
X005118Y009043D01*
X005109Y009046D01*
X005083Y009048D01*
X005058Y009046D01*
X005033Y009038D01*
X005019Y009030D01*
X004993Y009041D01*
X004980Y009053D01*
X004978Y009075D01*
X004971Y009100D01*
X004959Y009123D01*
X004942Y009142D01*
X004923Y009159D01*
X004900Y009171D01*
X004875Y009178D01*
X004850Y009181D01*
X004825Y009178D01*
X004800Y009171D01*
X004777Y009159D01*
X004758Y009142D01*
X004741Y009123D01*
X004729Y009100D01*
X004722Y009075D01*
X004719Y009050D01*
X004722Y009025D01*
X004729Y009000D01*
X004741Y008977D01*
X004758Y008958D01*
X004769Y008948D01*
Y007776D01*
X004751Y007766D01*
X004729Y007763D01*
X004718Y007777D01*
X004698Y007793D01*
X004676Y007805D01*
X004651Y007813D01*
X004626Y007815D01*
X004600Y007813D01*
X004576Y007805D01*
X004553Y007793D01*
X004533Y007777D01*
X004517Y007757D01*
X004505Y007735D01*
X004497Y007710D01*
X004495Y007685D01*
X004497Y007659D01*
X004505Y007635D01*
X004517Y007612D01*
X004533Y007592D01*
X004553Y007576D01*
X004576Y007564D01*
X004586Y007561D01*
X004591Y007542D01*
X004588Y007518D01*
X004573Y007510D01*
X004553Y007494D01*
X004537Y007474D01*
X004525Y007452D01*
X004518Y007427D01*
X004515Y007402D01*
X004518Y007376D01*
X004525Y007352D01*
X004537Y007329D01*
X004553Y007309D01*
X004573Y007293D01*
X004596Y007281D01*
X004620Y007273D01*
X004646Y007271D01*
X004671Y007273D01*
X004696Y007281D01*
X004718Y007293D01*
X004729Y007302D01*
X004759Y007293D01*
X004769Y007284D01*
Y007172D01*
X004742Y007156D01*
X004729Y007152D01*
X004710Y007162D01*
X004685Y007170D01*
X004660Y007172D01*
X004635Y007170D01*
X004610Y007162D01*
X004587Y007150D01*
X004568Y007134D01*
X004551Y007114D01*
X004539Y007092D01*
X004532Y007067D01*
X004529Y007042D01*
X004530Y007040D01*
X004508Y007018D01*
X004503Y007014D01*
X004469Y006980D01*
X004430Y006998D01*
X004431Y007000D01*
X004428Y007025D01*
X004421Y007050D01*
X004409Y007073D01*
X004392Y007092D01*
X004373Y007109D01*
X004350Y007121D01*
X004325Y007128D01*
X004300Y007131D01*
X004275Y007128D01*
X004250Y007121D01*
X004227Y007109D01*
X004208Y007092D01*
X004200Y007083D01*
X004162Y007081D01*
X004154Y007084D01*
X004138Y007103D01*
X004118Y007120D01*
X004095Y007132D01*
X004071Y007139D01*
X004045Y007142D01*
X004020Y007139D01*
X003995Y007132D01*
X003973Y007120D01*
X003953Y007103D01*
X003937Y007084D01*
X003925Y007061D01*
X003917Y007037D01*
X003915Y007011D01*
X003917Y006986D01*
X003925Y006961D01*
X003937Y006938D01*
X003953Y006919D01*
X003973Y006902D01*
X003995Y006890D01*
X004016Y006884D01*
X004023Y006872D01*
X004030Y006842D01*
X003686Y006497D01*
X003671Y006478D01*
X003662Y006456D01*
X003659Y006433D01*
Y005480D01*
X003632Y005464D01*
X003619Y005460D01*
X003600Y005471D01*
X003575Y005478D01*
X003550Y005481D01*
X003525Y005478D01*
X003500Y005471D01*
X003477Y005459D01*
X003458Y005442D01*
X003441Y005423D01*
X003429Y005400D01*
X003422Y005375D01*
X003419Y005350D01*
X003422Y005325D01*
X003429Y005300D01*
X003441Y005277D01*
X003458Y005258D01*
X003477Y005241D01*
X003500Y005229D01*
X003525Y005222D01*
X003550Y005219D01*
X003575Y005222D01*
X003600Y005229D01*
X003619Y005240D01*
X003632Y005236D01*
X003659Y005220D01*
Y005100D01*
X003662Y005077D01*
X003671Y005055D01*
X003686Y005036D01*
X003709Y005012D01*
Y004818D01*
X003366Y004474D01*
X003326Y004491D01*
Y005822D01*
X003373Y005870D01*
X003373Y005870D01*
X003386Y005886D01*
X003393Y005904D01*
X003396Y005923D01*
X003396Y005923D01*
Y006157D01*
X003453Y006215D01*
X003453Y006215D01*
X003466Y006231D01*
X003473Y006249D01*
X003476Y006268D01*
Y006294D01*
X003492Y006308D01*
X003509Y006327D01*
X003521Y006350D01*
X003528Y006375D01*
X003531Y006400D01*
X003528Y006425D01*
X003521Y006450D01*
X003509Y006473D01*
X003492Y006492D01*
X003476Y006506D01*
Y006598D01*
X003485Y006610D01*
X003512Y006630D01*
X003515Y006630D01*
X003526Y006629D01*
X003552Y006632D01*
X003576Y006639D01*
X003599Y006651D01*
X003619Y006668D01*
X003635Y006687D01*
X003647Y006710D01*
X003654Y006735D01*
X003657Y006760D01*
X003662Y006769D01*
X003691Y006794D01*
X003692Y006794D01*
X003702Y006793D01*
X003728Y006795D01*
X003752Y006803D01*
X003775Y006815D01*
X003794Y006831D01*
X003811Y006851D01*
X003823Y006874D01*
X003830Y006898D01*
X003833Y006923D01*
X003830Y006949D01*
X003823Y006973D01*
X003811Y006996D01*
X003794Y007016D01*
X003775Y007032D01*
X003752Y007044D01*
X003728Y007052D01*
X003702Y007054D01*
X003677Y007052D01*
X003652Y007044D01*
X003630Y007032D01*
X003610Y007016D01*
X003594Y006996D01*
X003581Y006973D01*
X003574Y006949D01*
X003572Y006923D01*
X003567Y006915D01*
X003537Y006890D01*
X003536Y006890D01*
X003526Y006891D01*
X003501Y006888D01*
X003476Y006881D01*
X003457Y006870D01*
X003445Y006874D01*
X003417Y006890D01*
Y008160D01*
X003528Y008271D01*
X003550Y008269D01*
X003575Y008272D01*
X003600Y008279D01*
X003623Y008291D01*
X003642Y008308D01*
X003659Y008327D01*
X003671Y008350D01*
X003678Y008375D01*
X003681Y008400D01*
X003678Y008425D01*
X003671Y008450D01*
X003659Y008473D01*
X003642Y008492D01*
X003623Y008509D01*
X003600Y008521D01*
X003575Y008528D01*
X003550Y008531D01*
X003525Y008528D01*
X003500Y008521D01*
X003477Y008509D01*
X003458Y008492D01*
X003441Y008473D01*
X003429Y008450D01*
X003422Y008425D01*
X003419Y008400D01*
X003421Y008378D01*
X003288Y008245D01*
X003276Y008229D01*
X003268Y008211D01*
X003266Y008191D01*
X003266Y008191D01*
Y006683D01*
X003266Y006683D01*
X003268Y006664D01*
X003276Y006646D01*
X003288Y006630D01*
X003324Y006593D01*
Y006506D01*
X003308Y006492D01*
X003291Y006473D01*
X003279Y006450D01*
X003272Y006425D01*
X003269Y006400D01*
X003272Y006375D01*
X003279Y006350D01*
X003291Y006327D01*
X003308Y006308D01*
X003309Y006284D01*
X003281Y006256D01*
X003267Y006245D01*
X003254Y006229D01*
X003247Y006211D01*
X003244Y006192D01*
Y005955D01*
X003197Y005907D01*
X003184Y005891D01*
X003177Y005873D01*
X003174Y005853D01*
X003174Y005853D01*
Y005825D01*
X003137Y005809D01*
X003111Y005828D01*
Y008307D01*
X003357Y008554D01*
X003370Y008571D01*
X003378Y008590D01*
X003381Y008611D01*
Y008648D01*
X003392Y008658D01*
X003409Y008677D01*
X003421Y008700D01*
X003428Y008725D01*
X003431Y008750D01*
X003428Y008775D01*
X003421Y008800D01*
X003409Y008823D01*
X003392Y008842D01*
X003373Y008859D01*
X003350Y008871D01*
X003325Y008878D01*
X003300Y008881D01*
X003275Y008878D01*
X003250Y008871D01*
X003227Y008859D01*
X003208Y008842D01*
X003191Y008823D01*
X003179Y008800D01*
X003172Y008775D01*
X003169Y008750D01*
X003172Y008725D01*
X003179Y008700D01*
X003191Y008677D01*
X003208Y008658D01*
X003193Y008618D01*
X002973Y008398D01*
X002960Y008381D01*
X002952Y008362D01*
X002949Y008341D01*
Y005804D01*
X002948Y005802D01*
X002931Y005783D01*
X002919Y005760D01*
X002912Y005735D01*
X002909Y005710D01*
X002912Y005685D01*
X002919Y005660D01*
X002931Y005637D01*
X002948Y005618D01*
X002967Y005601D01*
X002990Y005589D01*
X003015Y005582D01*
X003040Y005579D01*
X003065Y005582D01*
X003090Y005589D01*
X003113Y005601D01*
X003132Y005618D01*
X003134Y005620D01*
X003174Y005606D01*
Y004457D01*
X003138Y004437D01*
X003111Y004450D01*
X003100Y004489D01*
X003111Y004510D01*
X003118Y004535D01*
X003121Y004560D01*
X003118Y004585D01*
X003111Y004610D01*
X003099Y004633D01*
X003082Y004652D01*
X003063Y004669D01*
X003040Y004681D01*
X003015Y004688D01*
X002990Y004691D01*
X002965Y004688D01*
X002940Y004681D01*
X002917Y004669D01*
X002898Y004652D01*
X002881Y004633D01*
X002869Y004610D01*
X002862Y004585D01*
X002859Y004560D01*
X002862Y004535D01*
X002869Y004510D01*
X002881Y004487D01*
X002898Y004468D01*
X002917Y004451D01*
X002940Y004439D01*
X002952Y004394D01*
X002951Y004393D01*
X002939Y004370D01*
X002932Y004345D01*
X002929Y004320D01*
X002932Y004295D01*
X002939Y004270D01*
X002951Y004247D01*
X002968Y004228D01*
X002987Y004211D01*
X003010Y004199D01*
X003035Y004192D01*
X003060Y004189D01*
X003085Y004192D01*
X003110Y004199D01*
X003133Y004211D01*
X003134Y004213D01*
X003174Y004194D01*
Y003171D01*
X002902Y002899D01*
X002880Y002901D01*
X002855Y002898D01*
X002830Y002891D01*
X002807Y002879D01*
X002788Y002862D01*
X002771Y002843D01*
X002759Y002820D01*
X002753Y002799D01*
X002741Y002793D01*
X002711Y002785D01*
X002341Y003154D01*
X002323Y003169D01*
X002301Y003178D01*
X002277Y003181D01*
X002204D01*
X002202Y003182D01*
X002201Y003184D01*
Y006190D01*
X002198Y006213D01*
X002189Y006235D01*
X002174Y006254D01*
X002080Y006348D01*
X002081Y006350D01*
X002078Y006375D01*
X002071Y006400D01*
X002059Y006423D01*
X002042Y006442D01*
X002023Y006459D01*
X002000Y006471D01*
X001975Y006478D01*
X001950Y006481D01*
X001925Y006478D01*
X001900Y006471D01*
X001877Y006459D01*
X001858Y006442D01*
X001841Y006423D01*
X001829Y006400D01*
X001822Y006375D01*
X001819Y006350D01*
X001822Y006325D01*
X001829Y006300D01*
X001841Y006277D01*
X001858Y006258D01*
X001877Y006241D01*
X001900Y006229D01*
X001925Y006222D01*
X001950Y006219D01*
X001952Y006220D01*
X002019Y006152D01*
Y003184D01*
X002018Y003182D01*
X002001Y003163D01*
X001989Y003140D01*
X001983Y003119D01*
X001972Y003113D01*
X001941Y003105D01*
X001732Y003313D01*
Y005234D01*
X001733Y005234D01*
X001730Y005252D01*
X001723Y005269D01*
X001712Y005283D01*
X001415Y005581D01*
X001423Y005612D01*
X001429Y005623D01*
X001450Y005629D01*
X001473Y005641D01*
X001492Y005658D01*
X001509Y005677D01*
X001521Y005700D01*
X001528Y005725D01*
X001531Y005750D01*
X001528Y005775D01*
X001521Y005800D01*
X001509Y005823D01*
X001492Y005842D01*
X001491Y005844D01*
Y008017D01*
X001518Y008033D01*
X001531Y008037D01*
X001550Y008027D01*
X001575Y008019D01*
X001600Y008017D01*
X001625Y008019D01*
X001650Y008027D01*
X001673Y008039D01*
X001692Y008055D01*
X001709Y008075D01*
X001721Y008098D01*
X001728Y008122D01*
X001731Y008148D01*
X001728Y008173D01*
X001721Y008198D01*
X001709Y008220D01*
X001692Y008240D01*
X001673Y008256D01*
X001650Y008268D01*
X001625Y008276D01*
X001600Y008278D01*
X001575Y008276D01*
X001550Y008268D01*
X001531Y008258D01*
X001518Y008262D01*
X001491Y008278D01*
Y009212D01*
X001968Y009689D01*
X005375D01*
X005396Y009664D01*
D02*
G37*
G36*
X005694Y008562D02*
X005717Y008559D01*
X005839D01*
X005844Y008556D01*
X005864Y008519D01*
X005862Y008514D01*
X005859Y008491D01*
Y008393D01*
X005819Y008376D01*
X005664Y008531D01*
X005687Y008565D01*
X005694Y008562D01*
D02*
G37*
G36*
X003529Y003000D02*
X003541Y002977D01*
X003558Y002958D01*
X003577Y002941D01*
X003600Y002929D01*
X003610Y002926D01*
X003623Y002892D01*
X003622Y002882D01*
X003241Y002501D01*
X003078D01*
X003062Y002541D01*
X003459Y002938D01*
X003474Y002957D01*
X003483Y002979D01*
X003486Y003002D01*
Y003006D01*
X003526Y003012D01*
X003529Y003000D01*
D02*
G37*
G36*
X004027Y005139D02*
X004059Y005120D01*
Y004013D01*
X004062Y003989D01*
X004071Y003967D01*
X004086Y003949D01*
X004078Y003920D01*
X004071Y003907D01*
X004050Y003901D01*
X004027Y003889D01*
X004008Y003872D01*
X003991Y003853D01*
X003979Y003830D01*
X003972Y003805D01*
X003969Y003780D01*
X003972Y003755D01*
X003979Y003730D01*
X003979Y003730D01*
Y003239D01*
X003818Y003078D01*
X003808Y003077D01*
X003774Y003090D01*
X003771Y003100D01*
X003759Y003123D01*
X003742Y003142D01*
X003723Y003159D01*
X003700Y003171D01*
X003675Y003178D01*
X003650Y003181D01*
X003625Y003178D01*
X003600Y003171D01*
X003577Y003159D01*
X003558Y003142D01*
X003541Y003123D01*
X003529Y003100D01*
X003526Y003088D01*
X003486Y003094D01*
Y004337D01*
X003864Y004716D01*
X003879Y004735D01*
X003888Y004757D01*
X003891Y004780D01*
Y005050D01*
X003888Y005073D01*
X003879Y005095D01*
X003900Y005126D01*
X003904Y005128D01*
X003925Y005122D01*
X003950Y005119D01*
X003975Y005122D01*
X004000Y005129D01*
X004020Y005140D01*
X004027Y005139D01*
D02*
G37*
G36*
X005155Y006984D02*
X005179Y006977D01*
X005205Y006974D01*
X005229Y006952D01*
Y006455D01*
X005229Y006455D01*
X005232Y006437D01*
X005239Y006420D01*
X005250Y006406D01*
X005609Y006046D01*
Y006000D01*
Y003810D01*
X005571Y003800D01*
X005559Y003823D01*
X005542Y003842D01*
X005523Y003859D01*
X005500Y003871D01*
X005475Y003878D01*
X005450Y003881D01*
X005425Y003878D01*
X005400Y003871D01*
X005377Y003859D01*
X005358Y003842D01*
X005341Y003823D01*
X005329Y003800D01*
X005322Y003775D01*
X005319Y003750D01*
X005320Y003748D01*
X004956Y003385D01*
X004946Y003389D01*
X004923Y003408D01*
X004928Y003425D01*
X004931Y003450D01*
X004928Y003475D01*
X004921Y003500D01*
X004909Y003523D01*
X004892Y003542D01*
X004873Y003559D01*
X004850Y003571D01*
X004825Y003578D01*
X004800Y003581D01*
X004775Y003578D01*
X004750Y003571D01*
X004727Y003559D01*
X004708Y003542D01*
X004691Y003523D01*
X004679Y003500D01*
X004672Y003475D01*
X004669Y003450D01*
X004670Y003448D01*
X004536Y003314D01*
X004531Y003308D01*
X004491Y003321D01*
Y003406D01*
X004492Y003408D01*
X004509Y003427D01*
X004521Y003450D01*
X004528Y003475D01*
X004531Y003500D01*
X004528Y003525D01*
X004521Y003550D01*
X004509Y003573D01*
X004492Y003592D01*
X004473Y003609D01*
X004450Y003621D01*
X004425Y003628D01*
X004418Y003629D01*
X004403Y003644D01*
X004391Y003662D01*
X004389Y003670D01*
X004391Y003683D01*
Y003863D01*
X004388Y003886D01*
X004379Y003908D01*
X004364Y003927D01*
X004241Y004050D01*
Y004972D01*
X004281Y004986D01*
X004288Y004978D01*
X004307Y004961D01*
X004330Y004949D01*
X004355Y004942D01*
X004380Y004939D01*
X004405Y004942D01*
X004430Y004949D01*
X004453Y004961D01*
X004472Y004978D01*
X004489Y004997D01*
X004501Y005020D01*
X004508Y005045D01*
X004511Y005070D01*
X004508Y005095D01*
X004501Y005120D01*
X004489Y005143D01*
X004472Y005162D01*
X004453Y005179D01*
X004430Y005191D01*
X004405Y005198D01*
X004380Y005201D01*
X004355Y005198D01*
X004330Y005191D01*
X004291Y005215D01*
Y005433D01*
X004288Y005456D01*
X004279Y005478D01*
X004264Y005497D01*
X004191Y005570D01*
Y005697D01*
X004229Y005722D01*
X004231Y005722D01*
X004250Y005719D01*
X004269D01*
X004276Y005713D01*
X004298Y005701D01*
X004323Y005694D01*
X004348Y005691D01*
X004374Y005694D01*
X004398Y005701D01*
X004421Y005713D01*
X004441Y005730D01*
X004457Y005749D01*
X004460Y005755D01*
X004503Y005760D01*
X004506Y005759D01*
X004508Y005758D01*
X004527Y005741D01*
X004550Y005729D01*
X004575Y005722D01*
X004600Y005719D01*
X004625Y005722D01*
X004650Y005729D01*
X004673Y005741D01*
X004692Y005758D01*
X004709Y005777D01*
X004721Y005800D01*
X004728Y005825D01*
X004731Y005850D01*
X004728Y005875D01*
X004721Y005900D01*
X004709Y005923D01*
X004692Y005942D01*
X004673Y005959D01*
X004650Y005971D01*
X004625Y005978D01*
X004601Y005981D01*
X004599Y005984D01*
X004583Y006019D01*
X004727Y006163D01*
X004740Y006180D01*
X004748Y006199D01*
X004751Y006220D01*
Y006720D01*
X004894Y006864D01*
X004934Y006847D01*
Y006799D01*
X004937Y006778D01*
X004945Y006759D01*
X004958Y006742D01*
X004969Y006730D01*
Y006497D01*
X004957Y006486D01*
X004940Y006467D01*
X004928Y006444D01*
X004921Y006420D01*
X004918Y006394D01*
X004921Y006369D01*
X004928Y006344D01*
X004940Y006322D01*
X004957Y006302D01*
X004977Y006285D01*
X004999Y006273D01*
X005024Y006266D01*
X005049Y006263D01*
X005075Y006266D01*
X005099Y006273D01*
X005122Y006285D01*
X005141Y006302D01*
X005158Y006322D01*
X005170Y006344D01*
X005177Y006369D01*
X005180Y006394D01*
X005177Y006420D01*
X005170Y006444D01*
X005158Y006467D01*
X005141Y006486D01*
X005131Y006495D01*
Y006764D01*
X005128Y006785D01*
X005120Y006804D01*
X005107Y006821D01*
X005095Y006833D01*
Y006975D01*
X005123Y006991D01*
X005135Y006994D01*
X005155Y006984D01*
D02*
G37*
G36*
X003982Y006535D02*
X004015Y006513D01*
X004012Y006506D01*
X004009Y006483D01*
Y005533D01*
X004012Y005509D01*
X004021Y005487D01*
X004036Y005469D01*
X004109Y005395D01*
Y005311D01*
X004071Y005300D01*
X004059Y005323D01*
X004042Y005342D01*
X004023Y005359D01*
X004000Y005371D01*
X003975Y005378D01*
X003950Y005381D01*
X003925Y005378D01*
X003900Y005371D01*
X003881Y005360D01*
X003868Y005364D01*
X003841Y005380D01*
Y006395D01*
X003981Y006535D01*
X003982Y006535D01*
D02*
G37*
G36*
X004613Y006811D02*
X004600Y006794D01*
X004592Y006775D01*
X004589Y006754D01*
Y006253D01*
X004231Y005895D01*
X004191Y005911D01*
Y006427D01*
X004200Y006429D01*
X004223Y006441D01*
X004242Y006458D01*
X004259Y006477D01*
X004271Y006500D01*
X004278Y006525D01*
X004279Y006533D01*
X004585Y006839D01*
X004613Y006811D01*
D02*
G37*
G36*
X001309Y008577D02*
X001309Y008576D01*
Y005844D01*
X001308Y005842D01*
X001291Y005823D01*
X001279Y005800D01*
X001275Y005787D01*
X001236Y005774D01*
X001211Y005796D01*
Y008490D01*
X001213Y008491D01*
X001232Y008508D01*
X001249Y008527D01*
X001261Y008550D01*
X001268Y008575D01*
X001269Y008579D01*
X001309Y008577D01*
D02*
G37*
G36*
X005964Y006895D02*
Y006628D01*
X005967Y006604D01*
X005976Y006582D01*
X005991Y006564D01*
X006035Y006519D01*
X006027Y006489D01*
X006021Y006477D01*
X006000Y006471D01*
X005977Y006459D01*
X005958Y006442D01*
X005941Y006423D01*
X005939Y006419D01*
X005936Y006418D01*
X005919Y006411D01*
X005905Y006400D01*
X005905Y006400D01*
X005870Y006365D01*
X005832Y006383D01*
X005833Y006394D01*
X005830Y006420D01*
X005823Y006444D01*
X005817Y006455D01*
X005856Y006494D01*
X005856Y006494D01*
X005867Y006509D01*
X005874Y006526D01*
X005877Y006544D01*
Y006860D01*
X005879Y006861D01*
X005898Y006877D01*
X005915Y006897D01*
X005960Y006898D01*
X005964Y006895D01*
D02*
G37*
G36*
X006892Y007777D02*
X006908Y007758D01*
X006919Y007748D01*
Y006452D01*
X006908Y006442D01*
X006892Y006423D01*
X006890Y006423D01*
X006852Y006433D01*
Y007767D01*
X006890Y007777D01*
X006892Y007777D01*
D02*
G37*
G36*
X005202Y008797D02*
X005214Y008782D01*
X005717Y008279D01*
Y007065D01*
X005714Y007062D01*
X005697Y007042D01*
X005685Y007020D01*
X005678Y006995D01*
X005675Y006970D01*
X005678Y006944D01*
X005685Y006920D01*
X005697Y006897D01*
X005714Y006877D01*
X005733Y006861D01*
X005735Y006860D01*
Y006573D01*
X005685Y006523D01*
X005676Y006522D01*
X005652Y006515D01*
X005629Y006503D01*
X005610Y006486D01*
X005593Y006467D01*
X005581Y006444D01*
X005574Y006420D01*
X005571Y006394D01*
X005574Y006369D01*
X005581Y006344D01*
X005593Y006322D01*
X005607Y006305D01*
X005577Y006278D01*
X005371Y006485D01*
Y006590D01*
X005398Y006603D01*
X005411Y006605D01*
X005427Y006591D01*
X005450Y006579D01*
X005475Y006572D01*
X005500Y006569D01*
X005525Y006572D01*
X005550Y006579D01*
X005573Y006591D01*
X005592Y006608D01*
X005609Y006627D01*
X005621Y006650D01*
X005628Y006675D01*
X005631Y006700D01*
X005628Y006725D01*
X005621Y006750D01*
X005609Y006773D01*
X005592Y006792D01*
X005573Y006809D01*
X005550Y006821D01*
X005525Y006828D01*
X005500Y006831D01*
X005475Y006828D01*
X005450Y006821D01*
X005427Y006809D01*
X005411Y006795D01*
X005398Y006797D01*
X005371Y006810D01*
Y007009D01*
X005371Y007009D01*
X005368Y007028D01*
X005361Y007045D01*
X005350Y007059D01*
X005350Y007059D01*
X005332Y007077D01*
X005333Y007079D01*
X005335Y007105D01*
X005333Y007130D01*
X005325Y007155D01*
X005313Y007177D01*
X005297Y007197D01*
X005277Y007213D01*
X005255Y007225D01*
X005230Y007233D01*
X005205Y007235D01*
X005179Y007233D01*
X005155Y007225D01*
X005135Y007215D01*
X005123Y007219D01*
X005095Y007235D01*
Y008788D01*
X005109Y008789D01*
X005133Y008797D01*
X005156Y008809D01*
X005162Y008810D01*
X005202Y008797D01*
D02*
G37*
%LPC*%
G36*
X002750Y006331D02*
X002725Y006328D01*
X002700Y006321D01*
X002677Y006309D01*
X002658Y006292D01*
X002641Y006273D01*
X002629Y006250D01*
X002622Y006225D01*
X002619Y006200D01*
X002622Y006175D01*
X002629Y006150D01*
X002641Y006127D01*
X002658Y006108D01*
X002677Y006091D01*
X002700Y006079D01*
X002725Y006072D01*
X002750Y006069D01*
X002775Y006072D01*
X002800Y006079D01*
X002823Y006091D01*
X002842Y006108D01*
X002859Y006127D01*
X002871Y006150D01*
X002878Y006175D01*
X002881Y006200D01*
X002878Y006225D01*
X002871Y006250D01*
X002859Y006273D01*
X002842Y006292D01*
X002823Y006309D01*
X002800Y006321D01*
X002775Y006328D01*
X002750Y006331D01*
D02*
G37*
G36*
X002300Y009031D02*
X002275Y009028D01*
X002250Y009021D01*
X002227Y009009D01*
X002208Y008992D01*
X002191Y008973D01*
X002179Y008950D01*
X002172Y008925D01*
X002170Y008911D01*
X002132Y008900D01*
X002120Y008923D01*
X002104Y008942D01*
X002084Y008959D01*
X002061Y008971D01*
X002037Y008978D01*
X002011Y008981D01*
X001986Y008978D01*
X001961Y008971D01*
X001939Y008959D01*
X001919Y008942D01*
X001903Y008923D01*
X001890Y008900D01*
X001883Y008875D01*
X001881Y008850D01*
X001883Y008825D01*
X001890Y008800D01*
X001903Y008777D01*
X001919Y008758D01*
X001939Y008741D01*
X001941Y008733D01*
X001937Y008697D01*
X001927Y008691D01*
X001908Y008675D01*
X001891Y008655D01*
X001879Y008633D01*
X001872Y008608D01*
X001834Y008615D01*
X001833Y008625D01*
X001825Y008650D01*
X001813Y008673D01*
X001797Y008692D01*
X001777Y008709D01*
X001754Y008721D01*
X001730Y008728D01*
X001704Y008731D01*
X001679Y008728D01*
X001654Y008721D01*
X001632Y008709D01*
X001612Y008692D01*
X001596Y008673D01*
X001584Y008650D01*
X001576Y008625D01*
X001574Y008600D01*
X001576Y008575D01*
X001584Y008550D01*
X001596Y008527D01*
X001612Y008508D01*
X001632Y008491D01*
X001654Y008479D01*
X001679Y008472D01*
X001704Y008469D01*
X001730Y008472D01*
X001754Y008479D01*
X001777Y008491D01*
X001797Y008508D01*
X001813Y008527D01*
X001825Y008550D01*
X001833Y008575D01*
X001871Y008568D01*
X001872Y008557D01*
X001879Y008533D01*
X001891Y008510D01*
X001908Y008490D01*
X001927Y008474D01*
X001950Y008462D01*
X001975Y008455D01*
X002000Y008452D01*
X002025Y008455D01*
X002050Y008462D01*
X002073Y008474D01*
X002092Y008490D01*
X002109Y008510D01*
X002121Y008533D01*
X002128Y008557D01*
X002131Y008583D01*
X002128Y008608D01*
X002121Y008633D01*
X002109Y008655D01*
X002092Y008675D01*
X002073Y008691D01*
X002070Y008699D01*
X002074Y008736D01*
X002084Y008741D01*
X002104Y008758D01*
X002120Y008777D01*
X002132Y008800D01*
X002139Y008825D01*
X002141Y008839D01*
X002179Y008850D01*
X002191Y008827D01*
X002208Y008808D01*
X002227Y008791D01*
X002250Y008779D01*
X002275Y008772D01*
X002300Y008769D01*
X002325Y008772D01*
X002350Y008779D01*
X002373Y008791D01*
X002392Y008808D01*
X002409Y008827D01*
X002421Y008850D01*
X002428Y008875D01*
X002431Y008900D01*
X002428Y008925D01*
X002421Y008950D01*
X002409Y008973D01*
X002392Y008992D01*
X002373Y009009D01*
X002350Y009021D01*
X002325Y009028D01*
X002300Y009031D01*
D02*
G37*
G36*
X005050Y004781D02*
X005025Y004778D01*
X005000Y004771D01*
X004977Y004759D01*
X004958Y004742D01*
X004941Y004723D01*
X004929Y004700D01*
X004922Y004675D01*
X004919Y004650D01*
X004922Y004625D01*
X004929Y004600D01*
X004941Y004577D01*
X004958Y004558D01*
X004977Y004541D01*
X005000Y004529D01*
X005025Y004522D01*
X005050Y004519D01*
X005075Y004522D01*
X005100Y004529D01*
X005123Y004541D01*
X005142Y004558D01*
X005159Y004577D01*
X005171Y004600D01*
X005178Y004625D01*
X005181Y004650D01*
X005178Y004675D01*
X005171Y004700D01*
X005159Y004723D01*
X005142Y004742D01*
X005123Y004759D01*
X005100Y004771D01*
X005075Y004778D01*
X005050Y004781D01*
D02*
G37*
G36*
X004550Y004819D02*
X004525Y004817D01*
X004500Y004809D01*
X004477Y004797D01*
X004458Y004781D01*
X004441Y004761D01*
X004429Y004739D01*
X004422Y004714D01*
X004419Y004689D01*
X004422Y004663D01*
X004429Y004639D01*
X004441Y004616D01*
X004458Y004596D01*
X004477Y004580D01*
X004500Y004568D01*
X004525Y004560D01*
X004550Y004558D01*
X004575Y004560D01*
X004600Y004568D01*
X004623Y004580D01*
X004642Y004596D01*
X004659Y004616D01*
X004671Y004639D01*
X004678Y004663D01*
X004681Y004689D01*
X004678Y004714D01*
X004671Y004739D01*
X004659Y004761D01*
X004642Y004781D01*
X004623Y004797D01*
X004600Y004809D01*
X004575Y004817D01*
X004550Y004819D01*
D02*
G37*
G36*
X002822Y009059D02*
X002796Y009056D01*
X002772Y009049D01*
X002749Y009037D01*
X002730Y009020D01*
X002713Y009001D01*
X002701Y008978D01*
X002694Y008954D01*
X002691Y008928D01*
X002694Y008903D01*
X002701Y008878D01*
X002713Y008855D01*
X002730Y008836D01*
X002749Y008819D01*
X002772Y008807D01*
X002796Y008800D01*
X002822Y008797D01*
X002847Y008800D01*
X002872Y008807D01*
X002895Y008819D01*
X002914Y008836D01*
X002931Y008855D01*
X002943Y008878D01*
X002950Y008903D01*
X002953Y008928D01*
X002950Y008954D01*
X002943Y008978D01*
X002931Y009001D01*
X002914Y009020D01*
X002895Y009037D01*
X002872Y009049D01*
X002847Y009056D01*
X002822Y009059D01*
D02*
G37*
G36*
X002429Y009631D02*
X002404Y009628D01*
X002379Y009621D01*
X002357Y009609D01*
X002337Y009592D01*
X002321Y009573D01*
X002308Y009550D01*
X002301Y009525D01*
X002299Y009500D01*
X002301Y009475D01*
X002308Y009450D01*
X002321Y009427D01*
X002337Y009408D01*
X002357Y009391D01*
X002379Y009379D01*
X002404Y009372D01*
X002429Y009369D01*
X002455Y009372D01*
X002479Y009379D01*
X002502Y009391D01*
X002521Y009408D01*
X002523Y009409D01*
X003691D01*
X004399Y008701D01*
X004399Y008700D01*
X004411Y008677D01*
X004428Y008658D01*
X004447Y008641D01*
X004470Y008629D01*
X004495Y008622D01*
X004520Y008619D01*
X004545Y008622D01*
X004570Y008629D01*
X004593Y008641D01*
X004612Y008658D01*
X004629Y008677D01*
X004641Y008700D01*
X004648Y008725D01*
X004651Y008750D01*
X004648Y008775D01*
X004641Y008800D01*
X004629Y008823D01*
X004612Y008842D01*
X004593Y008859D01*
X004570Y008871D01*
X004545Y008878D01*
X004520Y008881D01*
X004495Y008878D01*
X004482Y008874D01*
X003793Y009564D01*
X003774Y009579D01*
X003752Y009588D01*
X003728Y009591D01*
X002523D01*
X002521Y009592D01*
X002502Y009609D01*
X002479Y009621D01*
X002455Y009628D01*
X002429Y009631D01*
D02*
G37*
%LPD*%
D31*
X004050Y003660D02*
Y003730D01*
Y003210D02*
Y003660D01*
X003270Y002430D02*
X004050Y003210D01*
Y003730D02*
X004100Y003780D01*
X002515Y002430D02*
X003270D01*
X001662Y003284D02*
X002515Y002430D01*
X001662Y003284D02*
Y005234D01*
X001140Y005755D02*
X001662Y005234D01*
X001140Y005755D02*
Y008600D01*
X005300Y006455D02*
X005680Y006075D01*
X005300Y006455D02*
Y007009D01*
X005680Y006000D02*
Y006075D01*
Y003425D02*
Y006000D01*
X005806Y006544D02*
Y006970D01*
X005656Y006394D02*
X005806Y006544D01*
X005656Y006394D02*
X005702D01*
X005680Y006075D02*
X005955Y006350D01*
X006050D01*
X005520Y003265D02*
X005680Y003425D01*
X005520Y002680D02*
X005550Y002650D01*
X005520Y002680D02*
Y003265D01*
X006431Y008097D02*
X006497D01*
X004045Y007011D02*
X004086Y006970D01*
X005205Y007105D02*
X005300Y007009D01*
X005788Y006988D02*
Y008308D01*
X005220Y009299D02*
X005421Y009500D01*
X005263Y008832D02*
X005788Y008308D01*
X005220Y009085D02*
Y009299D01*
Y009085D02*
X005263Y009041D01*
Y008981D02*
Y009041D01*
X005263Y008981D02*
X005263Y008981D01*
X005263Y008832D02*
Y008981D01*
X006561Y007337D02*
Y007888D01*
X006420Y007196D02*
X006561Y007337D01*
X006420Y007035D02*
Y007196D01*
Y007035D02*
X006561Y006894D01*
Y006389D02*
Y006894D01*
D32*
X004200Y003583D02*
X004300Y003683D01*
X004200Y002900D02*
Y003583D01*
X004300Y003683D02*
Y003863D01*
X004150Y004013D02*
X004300Y003863D01*
X004150Y002850D02*
X004200Y002900D01*
X001400Y005750D02*
Y009250D01*
X003395Y003002D02*
Y004375D01*
X002963Y002570D02*
X003395Y003002D01*
X005600Y007103D02*
X005608Y007111D01*
X006055Y006628D02*
Y007094D01*
X005950Y007200D02*
X006055Y007094D01*
X006250Y005339D02*
Y006433D01*
X006055Y006628D02*
X006250Y006433D01*
X006761Y004161D02*
Y007971D01*
X006034Y005123D02*
X006250Y005339D01*
X002110Y003090D02*
X002277D01*
X002797Y002570D01*
X002963D01*
X003395Y004375D02*
X003800Y004780D01*
X006400Y008482D02*
X006700Y008782D01*
X007650Y008150D02*
X007800Y008300D01*
X006900Y008150D02*
X007650D01*
X006644Y008088D02*
X006761Y007971D01*
X006400Y008482D02*
X006644Y008238D01*
X004800Y003100D02*
X005450Y003750D01*
X005000Y003074D02*
X005426Y003500D01*
X005500D01*
X004800Y000800D02*
Y002167D01*
X004400Y000800D02*
Y002167D01*
X004600Y003250D02*
X004800Y003450D01*
X005300Y004260D02*
X005302Y004262D01*
X002110Y003090D02*
Y006190D01*
X001950Y006350D02*
X002110Y006190D01*
X007812Y006553D02*
Y008288D01*
X007599Y006340D02*
X007812Y006553D01*
X007800Y008300D02*
X007812Y008288D01*
X005700Y003100D02*
X006761Y004161D01*
X004800Y002167D02*
X005000Y002367D01*
X004400Y002450D02*
Y003500D01*
Y002167D02*
X004600Y002367D01*
Y003250D01*
X004800Y002450D02*
Y003100D01*
X005000Y002367D02*
Y003074D01*
X005700Y002850D02*
Y003100D01*
X006644Y008088D02*
Y008238D01*
X004150Y006550D02*
X004167D01*
X004567Y006950D01*
X004568D01*
X004150Y004013D02*
Y005134D01*
X004200Y005184D01*
Y005433D01*
X004100Y005533D02*
X004200Y005433D01*
X004100Y005533D02*
Y006483D01*
X004300Y006983D02*
Y007000D01*
X002438Y001950D02*
X003900D01*
X002150Y001662D02*
X002438Y001950D01*
X002429Y009500D02*
X003728D01*
X001400Y009250D02*
X001930Y009780D01*
X004568Y006950D02*
X004660Y007042D01*
X006000Y009410D02*
X006090Y009500D01*
X001930Y009780D02*
X005424D01*
X005950Y007200D02*
Y008491D01*
X006198Y009298D02*
X006302D01*
X006090Y009500D02*
X006900D01*
X006300Y009300D02*
X006302Y009298D01*
X005621Y009496D02*
Y009583D01*
Y009496D02*
X005800Y009318D01*
X006700Y008782D02*
Y008850D01*
X006160Y009260D02*
X006198Y009298D01*
X005950Y008491D02*
X006160Y008701D01*
Y009260D01*
X005883Y008650D02*
X006000Y008767D01*
Y009410D01*
X004614Y007685D02*
X004626D01*
X005424Y009780D02*
X005621Y009583D01*
X005598Y009009D02*
X005600Y009007D01*
X005717Y008650D02*
X005883D01*
X005502Y009009D02*
X005598D01*
X005500Y009010D02*
X005502Y009009D01*
X005443Y008954D02*
X005500Y009010D01*
X005600Y008767D02*
X005717Y008650D01*
X005600Y008767D02*
Y009007D01*
X005800Y008850D02*
Y009318D01*
X005443Y008907D02*
Y008954D01*
X004478Y008750D02*
X004520D01*
X003728Y009500D02*
X004478Y008750D01*
X003800Y004780D02*
Y005050D01*
X003750Y005100D02*
X003800Y005050D01*
X003750Y005100D02*
Y006433D01*
X004300Y006983D01*
D33*
X003300Y008611D02*
Y008750D01*
X003030Y008341D02*
X003300Y008611D01*
X005049Y006394D02*
X005050Y006395D01*
Y006764D01*
X003030Y005720D02*
X003040Y005710D01*
X003030Y005720D02*
Y008341D01*
X004670Y006220D02*
Y006754D01*
X004850Y006934D01*
X004250Y005800D02*
X004670Y006220D01*
X004326Y005800D02*
X004348Y005822D01*
X004250Y005800D02*
X004326D01*
X005015Y006799D02*
X005050Y006764D01*
X005015Y006799D02*
Y008849D01*
X005083Y008917D01*
X007110Y003090D02*
Y003244D01*
X007095Y003259D02*
X007110Y003244D01*
X007095Y003259D02*
Y003421D01*
X007110Y003436D01*
Y006245D01*
X007000Y006355D02*
X007110Y006245D01*
X007000Y006355D02*
Y006433D01*
Y006350D02*
Y007850D01*
X004850Y006934D02*
Y009050D01*
D34*
X003250Y003140D02*
Y005853D01*
X002880Y002770D02*
X003250Y003140D01*
Y005853D02*
X003320Y005923D01*
Y006192D01*
X003322Y006190D02*
X003400Y006268D01*
X003341Y006683D02*
X003400Y006625D01*
X003341Y006683D02*
Y008191D01*
X003550Y008400D01*
X003400Y006268D02*
Y006400D01*
Y006625D01*
D36*
X003069Y008640D02*
D03*
X003695Y003970D02*
D03*
X004100Y003780D02*
D03*
X001140Y008600D02*
D03*
X003300Y008750D02*
D03*
X000850Y002650D02*
D03*
X000650Y002750D02*
D03*
X000450Y002850D02*
D03*
X000250Y003000D02*
D03*
X005702Y006394D02*
D03*
X005608Y007111D02*
D03*
X005806Y006970D02*
D03*
X006055Y007094D02*
D03*
X006050Y006350D02*
D03*
X005049Y006394D02*
D03*
X004150Y002850D02*
D03*
X006900Y008150D02*
D03*
X007000Y007850D02*
D03*
X006900Y009500D02*
D03*
X001400Y005750D02*
D03*
X005450Y003750D02*
D03*
X005500Y003500D02*
D03*
X004800Y000800D02*
D03*
X004400D02*
D03*
X004800Y003450D02*
D03*
X004400Y003500D02*
D03*
X005302Y004262D02*
D03*
X006561Y007888D02*
D03*
X002429Y009500D02*
D03*
X001950Y006350D02*
D03*
X007110Y003090D02*
D03*
X002880Y002770D02*
D03*
X002110Y003090D02*
D03*
X001631Y006919D02*
D03*
X001700Y006436D02*
D03*
X001832Y004882D02*
D03*
X007599Y006340D02*
D03*
X006034Y005123D02*
D03*
X004400Y002450D02*
D03*
X004800D02*
D03*
X005700Y002850D02*
D03*
X005550Y002650D02*
D03*
X006431Y008097D02*
D03*
X004150Y006550D02*
D03*
X004300Y007000D02*
D03*
X004175Y007424D02*
D03*
X003040Y005710D02*
D03*
X003560Y002180D02*
D03*
X003900Y001950D02*
D03*
X002150Y001662D02*
D03*
X006580Y007130D02*
D03*
X004045Y007011D02*
D03*
X004660Y007042D02*
D03*
X003550Y008400D02*
D03*
X003800Y008730D02*
D03*
X005205Y007105D02*
D03*
X004348Y005822D02*
D03*
X006300Y009300D02*
D03*
X006700Y008850D02*
D03*
X004626Y007685D02*
D03*
X005421Y009500D02*
D03*
X005800Y008850D02*
D03*
X004520Y008750D02*
D03*
X005443Y008907D02*
D03*
X005083Y008917D02*
D03*
X007000Y006350D02*
D03*
X004850Y009050D02*
D03*
X006561Y006389D02*
D03*
X003400Y006400D02*
D03*
M02*
