G04 Layer_Physical_Order=1*
G04 Layer_Color=255*
%FSAX24Y24*%
%MOIN*%
G70*
G01*
G75*
%ADD10C,0.0496*%
%ADD11R,0.0496X0.0496*%
%ADD12C,0.0591*%
G04:AMPARAMS|DCode=13|XSize=26mil|YSize=34.6mil|CornerRadius=6.8mil|HoleSize=0mil|Usage=FLASHONLY|Rotation=90.000|XOffset=0mil|YOffset=0mil|HoleType=Round|Shape=RoundedRectangle|*
%AMROUNDEDRECTD13*
21,1,0.0260,0.0211,0,0,90.0*
21,1,0.0125,0.0346,0,0,90.0*
1,1,0.0135,0.0106,0.0062*
1,1,0.0135,0.0106,-0.0062*
1,1,0.0135,-0.0106,-0.0062*
1,1,0.0135,-0.0106,0.0062*
%
%ADD13ROUNDEDRECTD13*%
G04:AMPARAMS|DCode=14|XSize=21.3mil|YSize=19.7mil|CornerRadius=5.1mil|HoleSize=0mil|Usage=FLASHONLY|Rotation=90.000|XOffset=0mil|YOffset=0mil|HoleType=Round|Shape=RoundedRectangle|*
%AMROUNDEDRECTD14*
21,1,0.0213,0.0094,0,0,90.0*
21,1,0.0110,0.0197,0,0,90.0*
1,1,0.0102,0.0047,0.0055*
1,1,0.0102,0.0047,-0.0055*
1,1,0.0102,-0.0047,-0.0055*
1,1,0.0102,-0.0047,0.0055*
%
%ADD14ROUNDEDRECTD14*%
G04:AMPARAMS|DCode=15|XSize=26mil|YSize=10.2mil|CornerRadius=2.8mil|HoleSize=0mil|Usage=FLASHONLY|Rotation=180.000|XOffset=0mil|YOffset=0mil|HoleType=Round|Shape=RoundedRectangle|*
%AMROUNDEDRECTD15*
21,1,0.0260,0.0047,0,0,180.0*
21,1,0.0205,0.0102,0,0,180.0*
1,1,0.0055,-0.0102,0.0024*
1,1,0.0055,0.0102,0.0024*
1,1,0.0055,0.0102,-0.0024*
1,1,0.0055,-0.0102,-0.0024*
%
%ADD15ROUNDEDRECTD15*%
G04:AMPARAMS|DCode=16|XSize=26mil|YSize=10.2mil|CornerRadius=2.8mil|HoleSize=0mil|Usage=FLASHONLY|Rotation=270.000|XOffset=0mil|YOffset=0mil|HoleType=Round|Shape=RoundedRectangle|*
%AMROUNDEDRECTD16*
21,1,0.0260,0.0047,0,0,270.0*
21,1,0.0205,0.0102,0,0,270.0*
1,1,0.0055,-0.0024,-0.0102*
1,1,0.0055,-0.0024,0.0102*
1,1,0.0055,0.0024,0.0102*
1,1,0.0055,0.0024,-0.0102*
%
%ADD16ROUNDEDRECTD16*%
%ADD17R,0.0630X0.0630*%
G04:AMPARAMS|DCode=18|XSize=51.2mil|YSize=110.2mil|CornerRadius=12.8mil|HoleSize=0mil|Usage=FLASHONLY|Rotation=270.000|XOffset=0mil|YOffset=0mil|HoleType=Round|Shape=RoundedRectangle|*
%AMROUNDEDRECTD18*
21,1,0.0512,0.0846,0,0,270.0*
21,1,0.0256,0.1102,0,0,270.0*
1,1,0.0256,-0.0423,-0.0128*
1,1,0.0256,-0.0423,0.0128*
1,1,0.0256,0.0423,0.0128*
1,1,0.0256,0.0423,-0.0128*
%
%ADD18ROUNDEDRECTD18*%
G04:AMPARAMS|DCode=19|XSize=20.1mil|YSize=19.7mil|CornerRadius=5.1mil|HoleSize=0mil|Usage=FLASHONLY|Rotation=180.000|XOffset=0mil|YOffset=0mil|HoleType=Round|Shape=RoundedRectangle|*
%AMROUNDEDRECTD19*
21,1,0.0201,0.0094,0,0,180.0*
21,1,0.0098,0.0197,0,0,180.0*
1,1,0.0102,-0.0049,0.0047*
1,1,0.0102,0.0049,0.0047*
1,1,0.0102,0.0049,-0.0047*
1,1,0.0102,-0.0049,-0.0047*
%
%ADD19ROUNDEDRECTD19*%
%ADD20R,0.0138X0.0248*%
%ADD21R,0.0228X0.0098*%
%ADD22R,0.0228X0.0118*%
G04:AMPARAMS|DCode=23|XSize=21.3mil|YSize=19.7mil|CornerRadius=5.1mil|HoleSize=0mil|Usage=FLASHONLY|Rotation=180.000|XOffset=0mil|YOffset=0mil|HoleType=Round|Shape=RoundedRectangle|*
%AMROUNDEDRECTD23*
21,1,0.0213,0.0094,0,0,180.0*
21,1,0.0110,0.0197,0,0,180.0*
1,1,0.0102,-0.0055,0.0047*
1,1,0.0102,0.0055,0.0047*
1,1,0.0102,0.0055,-0.0047*
1,1,0.0102,-0.0055,-0.0047*
%
%ADD23ROUNDEDRECTD23*%
G04:AMPARAMS|DCode=24|XSize=23.2mil|YSize=81.1mil|CornerRadius=5.9mil|HoleSize=0mil|Usage=FLASHONLY|Rotation=180.000|XOffset=0mil|YOffset=0mil|HoleType=Round|Shape=RoundedRectangle|*
%AMROUNDEDRECTD24*
21,1,0.0232,0.0693,0,0,180.0*
21,1,0.0114,0.0811,0,0,180.0*
1,1,0.0118,-0.0057,0.0346*
1,1,0.0118,0.0057,0.0346*
1,1,0.0118,0.0057,-0.0346*
1,1,0.0118,-0.0057,-0.0346*
%
%ADD24ROUNDEDRECTD24*%
G04:AMPARAMS|DCode=25|XSize=20.1mil|YSize=19.7mil|CornerRadius=5.1mil|HoleSize=0mil|Usage=FLASHONLY|Rotation=270.000|XOffset=0mil|YOffset=0mil|HoleType=Round|Shape=RoundedRectangle|*
%AMROUNDEDRECTD25*
21,1,0.0201,0.0094,0,0,270.0*
21,1,0.0098,0.0197,0,0,270.0*
1,1,0.0102,-0.0047,-0.0049*
1,1,0.0102,-0.0047,0.0049*
1,1,0.0102,0.0047,0.0049*
1,1,0.0102,0.0047,-0.0049*
%
%ADD25ROUNDEDRECTD25*%
G04:AMPARAMS|DCode=26|XSize=20.1mil|YSize=19.7mil|CornerRadius=5.1mil|HoleSize=0mil|Usage=FLASHONLY|Rotation=225.000|XOffset=0mil|YOffset=0mil|HoleType=Round|Shape=RoundedRectangle|*
%AMROUNDEDRECTD26*
21,1,0.0201,0.0094,0,0,225.0*
21,1,0.0098,0.0197,0,0,225.0*
1,1,0.0102,-0.0068,-0.0001*
1,1,0.0102,0.0001,0.0068*
1,1,0.0102,0.0068,0.0001*
1,1,0.0102,-0.0001,-0.0068*
%
%ADD26ROUNDEDRECTD26*%
G04:AMPARAMS|DCode=27|XSize=13.8mil|YSize=13mil|CornerRadius=3.1mil|HoleSize=0mil|Usage=FLASHONLY|Rotation=90.000|XOffset=0mil|YOffset=0mil|HoleType=Round|Shape=RoundedRectangle|*
%AMROUNDEDRECTD27*
21,1,0.0138,0.0068,0,0,90.0*
21,1,0.0075,0.0130,0,0,90.0*
1,1,0.0062,0.0034,0.0038*
1,1,0.0062,0.0034,-0.0038*
1,1,0.0062,-0.0034,-0.0038*
1,1,0.0062,-0.0034,0.0038*
%
%ADD27ROUNDEDRECTD27*%
G04:AMPARAMS|DCode=28|XSize=13.8mil|YSize=13mil|CornerRadius=3.1mil|HoleSize=0mil|Usage=FLASHONLY|Rotation=180.000|XOffset=0mil|YOffset=0mil|HoleType=Round|Shape=RoundedRectangle|*
%AMROUNDEDRECTD28*
21,1,0.0138,0.0068,0,0,180.0*
21,1,0.0075,0.0130,0,0,180.0*
1,1,0.0062,-0.0038,0.0034*
1,1,0.0062,0.0038,0.0034*
1,1,0.0062,0.0038,-0.0034*
1,1,0.0062,-0.0038,-0.0034*
%
%ADD28ROUNDEDRECTD28*%
%ADD29R,0.0906X0.0906*%
%ADD30C,0.0200*%
%ADD31C,0.0060*%
%ADD32C,0.0100*%
%ADD33C,0.0080*%
%ADD34C,0.0070*%
%ADD35O,0.0350X0.0449*%
%ADD36C,0.0180*%
%ADD37C,0.0230*%
G36*
X009954Y000046D02*
X000046D01*
Y009954D01*
X009954D01*
Y000046D01*
D02*
G37*
%LPC*%
G36*
X002990Y004691D02*
X002965Y004688D01*
X002940Y004681D01*
X002917Y004669D01*
X002898Y004652D01*
X002881Y004633D01*
X002869Y004610D01*
X002862Y004585D01*
X002859Y004560D01*
X002862Y004535D01*
X002869Y004510D01*
X002881Y004487D01*
X002898Y004468D01*
X002917Y004451D01*
X002940Y004439D01*
X002952Y004394D01*
X002951Y004393D01*
X002939Y004370D01*
X002932Y004345D01*
X002929Y004320D01*
X002932Y004295D01*
X002939Y004270D01*
X002951Y004247D01*
X002968Y004228D01*
X002987Y004211D01*
X003010Y004199D01*
X003035Y004192D01*
X003060Y004189D01*
X003085Y004192D01*
X003110Y004199D01*
X003133Y004211D01*
X003152Y004228D01*
X003169Y004247D01*
X003181Y004270D01*
X003188Y004295D01*
X003191Y004320D01*
X003188Y004345D01*
X003181Y004370D01*
X003169Y004393D01*
X003152Y004412D01*
X003133Y004429D01*
X003110Y004441D01*
X003098Y004486D01*
X003099Y004487D01*
X003111Y004510D01*
X003118Y004535D01*
X003121Y004560D01*
X003118Y004585D01*
X003111Y004610D01*
X003099Y004633D01*
X003082Y004652D01*
X003063Y004669D01*
X003040Y004681D01*
X003015Y004688D01*
X002990Y004691D01*
D02*
G37*
G36*
X004550Y004819D02*
X004525Y004817D01*
X004500Y004809D01*
X004477Y004797D01*
X004458Y004781D01*
X004441Y004761D01*
X004429Y004739D01*
X004422Y004714D01*
X004419Y004689D01*
X004422Y004663D01*
X004429Y004639D01*
X004441Y004616D01*
X004458Y004596D01*
X004477Y004580D01*
X004500Y004568D01*
X004525Y004560D01*
X004547Y004558D01*
X004569Y004530D01*
X004554Y004494D01*
X004396D01*
Y004486D01*
X004356D01*
Y004521D01*
X004353Y004545D01*
X004343Y004567D01*
X004329Y004586D01*
X004310Y004601D01*
X004288Y004610D01*
X004264Y004613D01*
X004165D01*
X004142Y004610D01*
X004119Y004601D01*
X004100Y004586D01*
X004086Y004567D01*
X004077Y004545D01*
X004073Y004521D01*
Y004427D01*
X004077Y004403D01*
X004086Y004381D01*
X004100Y004362D01*
X004119Y004347D01*
X004142Y004338D01*
X004165Y004335D01*
X004191D01*
X004195Y004329D01*
X004176Y004289D01*
X004152Y004286D01*
X004130Y004277D01*
X004111Y004262D01*
X004096Y004243D01*
X004087Y004221D01*
X004084Y004197D01*
Y004103D01*
X004087Y004079D01*
X004096Y004057D01*
X004111Y004038D01*
X004130Y004023D01*
X004152Y004014D01*
X004155Y004014D01*
Y003934D01*
X004128Y003907D01*
X004125Y003908D01*
X004100Y003911D01*
X004075Y003908D01*
X004050Y003901D01*
X004027Y003889D01*
X004008Y003872D01*
X003991Y003853D01*
X003979Y003830D01*
X003972Y003805D01*
X003969Y003780D01*
X003972Y003755D01*
X003979Y003730D01*
X003991Y003707D01*
X004008Y003688D01*
X004027Y003671D01*
X004050Y003659D01*
X004075Y003652D01*
X004100Y003649D01*
X004125Y003652D01*
X004150Y003659D01*
X004173Y003671D01*
X004192Y003688D01*
X004209Y003707D01*
X004221Y003730D01*
X004222Y003735D01*
X004231Y003747D01*
X004238Y003764D01*
X004241Y003782D01*
X004238Y003800D01*
X004233Y003813D01*
X004275Y003855D01*
X004275Y003855D01*
X004286Y003870D01*
X004293Y003887D01*
X004296Y003905D01*
Y004014D01*
X004298Y004014D01*
X004320Y004023D01*
X004339Y004038D01*
X004354Y004057D01*
X004363Y004079D01*
X004366Y004103D01*
Y004108D01*
X004550D01*
X004562Y004109D01*
X004704D01*
Y004253D01*
X004704Y004275D01*
X004726Y004275D01*
X004896D01*
Y004109D01*
X004896D01*
Y004091D01*
X004896D01*
Y003925D01*
X004691D01*
Y003904D01*
X004396D01*
Y003779D01*
X004336Y003719D01*
X004321Y003700D01*
X004312Y003678D01*
X004309Y003655D01*
Y003594D01*
X004308Y003592D01*
X004291Y003573D01*
X004279Y003550D01*
X004272Y003525D01*
X004269Y003500D01*
X004272Y003475D01*
X004279Y003450D01*
X004291Y003427D01*
X004308Y003408D01*
X004327Y003391D01*
X004350Y003379D01*
X004375Y003372D01*
X004400Y003369D01*
X004425Y003372D01*
X004450Y003379D01*
X004473Y003391D01*
X004492Y003408D01*
X004509Y003427D01*
X004521Y003450D01*
X004528Y003475D01*
X004531Y003500D01*
X004528Y003525D01*
X004521Y003550D01*
X004509Y003573D01*
X004492Y003592D01*
X004502Y003629D01*
X004579Y003706D01*
X004691D01*
Y003597D01*
X004709D01*
Y003544D01*
X004708Y003542D01*
X004691Y003523D01*
X004679Y003500D01*
X004672Y003475D01*
X004669Y003450D01*
X004672Y003425D01*
X004679Y003400D01*
X004691Y003377D01*
X004708Y003358D01*
X004727Y003341D01*
X004750Y003329D01*
X004775Y003322D01*
X004800Y003319D01*
X004825Y003322D01*
X004850Y003329D01*
X004873Y003341D01*
X004892Y003358D01*
X004909Y003377D01*
X004921Y003400D01*
X004928Y003425D01*
X004931Y003450D01*
X004928Y003475D01*
X004921Y003500D01*
X004909Y003523D01*
X004892Y003542D01*
X004891Y003544D01*
Y003597D01*
X004909D01*
Y003706D01*
X005140D01*
X005159Y003686D01*
Y003667D01*
X005162Y003644D01*
X005171Y003622D01*
X005186Y003603D01*
X005353Y003436D01*
X005372Y003421D01*
X005394Y003412D01*
X005405Y003411D01*
X005408Y003408D01*
X005427Y003391D01*
X005450Y003379D01*
X005475Y003372D01*
X005500Y003369D01*
X005525Y003372D01*
X005550Y003379D01*
X005573Y003391D01*
X005592Y003408D01*
X005609Y003427D01*
X005621Y003450D01*
X005628Y003475D01*
X005631Y003500D01*
X005628Y003525D01*
X005621Y003550D01*
X005609Y003573D01*
X005592Y003592D01*
X005573Y003609D01*
X005556Y003617D01*
X005549Y003639D01*
X005547Y003663D01*
X005559Y003677D01*
X005571Y003700D01*
X005578Y003725D01*
X005581Y003750D01*
X005578Y003775D01*
X005571Y003800D01*
X005559Y003823D01*
X005542Y003842D01*
X005537Y003847D01*
X005559Y003880D01*
X005646Y003833D01*
X005651Y003831D01*
X005656Y003829D01*
X005658Y003829D01*
X005661Y003828D01*
X005666Y003829D01*
X005671Y003828D01*
X005674Y003829D01*
X005677Y003830D01*
X005682Y003832D01*
X005686Y003834D01*
X005721Y003854D01*
X005725Y003858D01*
X005729Y003860D01*
X005730Y003863D01*
X005733Y003865D01*
X005735Y003869D01*
X005738Y003874D01*
X005738Y003876D01*
X005740Y003879D01*
X005740Y003884D01*
X005741Y003889D01*
Y004543D01*
X005738Y004559D01*
X005729Y004572D01*
X005729Y004572D01*
X005641Y004660D01*
Y004750D01*
X005638Y004766D01*
X005629Y004779D01*
X005616Y004788D01*
X005600Y004791D01*
X005219D01*
X005203Y004788D01*
X005190Y004779D01*
X005190Y004779D01*
X005153Y004742D01*
X005142Y004742D01*
X005123Y004759D01*
X005100Y004771D01*
X005075Y004778D01*
X005050Y004781D01*
X005025Y004778D01*
X005000Y004771D01*
X004977Y004759D01*
X004958Y004742D01*
X004941Y004723D01*
X004929Y004700D01*
X004922Y004675D01*
X004919Y004650D01*
X004921Y004638D01*
X004897Y004609D01*
X004893Y004606D01*
X004853Y004610D01*
X004838Y004629D01*
X004820Y004643D01*
X004798Y004652D01*
X004774Y004655D01*
X004712D01*
X004680Y004687D01*
X004681Y004689D01*
X004678Y004714D01*
X004671Y004739D01*
X004659Y004761D01*
X004642Y004781D01*
X004623Y004797D01*
X004600Y004809D01*
X004575Y004817D01*
X004550Y004819D01*
D02*
G37*
G36*
X001832Y005013D02*
X001806Y005010D01*
X001782Y005003D01*
X001759Y004990D01*
X001740Y004974D01*
X001723Y004954D01*
X001711Y004932D01*
X001704Y004907D01*
X001701Y004882D01*
X001704Y004856D01*
X001711Y004832D01*
X001723Y004809D01*
X001740Y004790D01*
X001759Y004773D01*
X001782Y004761D01*
X001806Y004754D01*
X001832Y004751D01*
X001857Y004754D01*
X001882Y004761D01*
X001904Y004773D01*
X001924Y004790D01*
X001940Y004809D01*
X001953Y004832D01*
X001960Y004856D01*
X001963Y004882D01*
X001960Y004907D01*
X001953Y004932D01*
X001940Y004954D01*
X001924Y004974D01*
X001904Y004990D01*
X001882Y005003D01*
X001857Y005010D01*
X001832Y005013D01*
D02*
G37*
G36*
X003875Y004291D02*
X003860Y004289D01*
X003826D01*
X003802Y004286D01*
X003780Y004277D01*
X003761Y004262D01*
X003746Y004243D01*
X003737Y004221D01*
X003735Y004209D01*
X003595Y004069D01*
X003578Y004048D01*
X003565Y004024D01*
X003557Y003997D01*
X003554Y003970D01*
X003557Y003943D01*
X003565Y003916D01*
X003578Y003892D01*
X003595Y003871D01*
X003617Y003853D01*
X003641Y003840D01*
X003667Y003832D01*
X003695Y003829D01*
X003722Y003832D01*
X003749Y003840D01*
X003773Y003853D01*
X003794Y003871D01*
X003936Y004012D01*
X003948Y004014D01*
X003970Y004023D01*
X003989Y004038D01*
X004004Y004057D01*
X004013Y004079D01*
X004016Y004103D01*
Y004197D01*
X004013Y004221D01*
X004004Y004243D01*
X003989Y004262D01*
X003970Y004277D01*
X003948Y004286D01*
X003924Y004289D01*
X003890D01*
X003875Y004291D01*
D02*
G37*
G36*
X006100Y003039D02*
X006055Y003035D01*
X006011Y003025D01*
X005969Y003007D01*
X005930Y002984D01*
X005896Y002954D01*
X005866Y002920D01*
X005860Y002909D01*
X005849Y002907D01*
X005814Y002912D01*
X005809Y002923D01*
X005792Y002942D01*
X005773Y002959D01*
X005750Y002971D01*
X005725Y002978D01*
X005700Y002981D01*
X005675Y002978D01*
X005650Y002971D01*
X005627Y002959D01*
X005608Y002942D01*
X005606Y002941D01*
X005360D01*
X005336Y002938D01*
X005323Y002932D01*
X005304Y002954D01*
X005270Y002984D01*
X005231Y003007D01*
X005189Y003025D01*
X005145Y003035D01*
X005100Y003039D01*
X005055Y003035D01*
X005011Y003025D01*
X004969Y003007D01*
X004930Y002984D01*
X004896Y002954D01*
X004866Y002920D01*
X004843Y002881D01*
X004825Y002839D01*
X004815Y002795D01*
X004811Y002750D01*
X004815Y002705D01*
X004825Y002661D01*
X004843Y002619D01*
X004846Y002614D01*
X004832Y002590D01*
X004820Y002579D01*
X004800Y002581D01*
X004775Y002578D01*
X004750Y002571D01*
X004727Y002559D01*
X004708Y002542D01*
X004691Y002523D01*
X004679Y002500D01*
X004672Y002475D01*
X004669Y002450D01*
X004672Y002425D01*
X004672Y002423D01*
X004672Y002422D01*
X004659Y002385D01*
X004646Y002377D01*
X004641Y002374D01*
X004627Y002364D01*
X004623Y002359D01*
X004610Y002356D01*
X004590D01*
X004577Y002359D01*
X004573Y002364D01*
X004559Y002374D01*
X004554Y002377D01*
X004541Y002385D01*
X004527Y002422D01*
X004528Y002423D01*
X004528Y002425D01*
X004531Y002450D01*
X004528Y002475D01*
X004521Y002500D01*
X004509Y002523D01*
X004492Y002542D01*
X004473Y002559D01*
X004450Y002571D01*
X004425Y002578D01*
X004400Y002581D01*
X004380Y002579D01*
X004368Y002590D01*
X004354Y002614D01*
X004357Y002619D01*
X004375Y002661D01*
X004385Y002705D01*
X004389Y002750D01*
X004385Y002795D01*
X004375Y002839D01*
X004357Y002881D01*
X004334Y002920D01*
X004304Y002954D01*
X004270Y002984D01*
X004231Y003007D01*
X004189Y003025D01*
X004145Y003035D01*
X004100Y003039D01*
X004055Y003035D01*
X004011Y003025D01*
X003969Y003007D01*
X003930Y002984D01*
X003896Y002954D01*
X003866Y002920D01*
X003843Y002881D01*
X003825Y002839D01*
X003815Y002795D01*
X003811Y002750D01*
X003815Y002705D01*
X003825Y002661D01*
X003843Y002619D01*
X003866Y002580D01*
X003896Y002546D01*
X003930Y002516D01*
X003969Y002493D01*
X004011Y002475D01*
X004055Y002465D01*
X004100Y002461D01*
X004145Y002465D01*
X004189Y002475D01*
X004231Y002493D01*
X004236Y002496D01*
X004260Y002482D01*
X004271Y002470D01*
X004269Y002450D01*
X004272Y002425D01*
X004272Y002423D01*
X004265Y002389D01*
X004248Y002375D01*
X004247Y002374D01*
X004233Y002364D01*
X004222Y002349D01*
X004215Y002333D01*
X004213Y002315D01*
Y002111D01*
X004215Y002093D01*
X004222Y002077D01*
X004233Y002062D01*
X004247Y002052D01*
X004264Y002045D01*
X004281Y002042D01*
X004328D01*
X004346Y002045D01*
X004362Y002052D01*
X004377Y002062D01*
X004380Y002067D01*
X004393Y002070D01*
X004413D01*
X004427Y002067D01*
X004430Y002062D01*
X004444Y002052D01*
X004460Y002045D01*
X004478Y002042D01*
X004525D01*
X004543Y002045D01*
X004559Y002052D01*
X004573Y002062D01*
X004577Y002067D01*
X004590Y002070D01*
X004610D01*
X004623Y002067D01*
X004627Y002062D01*
X004641Y002052D01*
X004657Y002045D01*
X004675Y002042D01*
X004722D01*
X004740Y002045D01*
X004756Y002052D01*
X004770Y002062D01*
X004773Y002067D01*
X004787Y002070D01*
X004807D01*
X004820Y002067D01*
X004823Y002062D01*
X004838Y002052D01*
X004854Y002045D01*
X004872Y002042D01*
X004919D01*
X004936Y002045D01*
X004953Y002052D01*
X004967Y002062D01*
X004978Y002077D01*
X004985Y002093D01*
X004987Y002111D01*
Y002315D01*
X004985Y002333D01*
X004978Y002349D01*
X004967Y002364D01*
X004953Y002374D01*
X004952Y002375D01*
X004935Y002389D01*
X004928Y002423D01*
X004928Y002425D01*
X004931Y002450D01*
X004929Y002470D01*
X004940Y002482D01*
X004964Y002496D01*
X004969Y002493D01*
X005011Y002475D01*
X005055Y002465D01*
X005100Y002461D01*
X005145Y002465D01*
X005189Y002475D01*
X005231Y002493D01*
X005270Y002516D01*
X005304Y002546D01*
X005334Y002580D01*
X005357Y002619D01*
X005362Y002630D01*
X005383Y002635D01*
X005422Y002625D01*
X005429Y002600D01*
X005441Y002577D01*
X005458Y002558D01*
X005477Y002541D01*
X005500Y002529D01*
X005525Y002522D01*
X005550Y002519D01*
X005575Y002522D01*
X005600Y002529D01*
X005623Y002541D01*
X005642Y002558D01*
X005659Y002577D01*
X005670Y002599D01*
X005775D01*
X005775Y002599D01*
X005793Y002602D01*
X005810Y002609D01*
X005852Y002599D01*
X005857Y002596D01*
X005866Y002580D01*
X005896Y002546D01*
X005930Y002516D01*
X005969Y002493D01*
X006011Y002475D01*
X006055Y002465D01*
X006100Y002461D01*
X006145Y002465D01*
X006189Y002475D01*
X006231Y002493D01*
X006270Y002516D01*
X006304Y002546D01*
X006334Y002580D01*
X006357Y002619D01*
X006375Y002661D01*
X006385Y002705D01*
X006389Y002750D01*
X006385Y002795D01*
X006375Y002839D01*
X006357Y002881D01*
X006334Y002920D01*
X006304Y002954D01*
X006270Y002984D01*
X006231Y003007D01*
X006189Y003025D01*
X006145Y003035D01*
X006100Y003039D01*
D02*
G37*
G36*
X003650Y003181D02*
X003625Y003178D01*
X003600Y003171D01*
X003577Y003159D01*
X003558Y003142D01*
X003541Y003123D01*
X003529Y003100D01*
X003522Y003075D01*
X003519Y003050D01*
X003522Y003025D01*
X003529Y003000D01*
X003541Y002977D01*
X003558Y002958D01*
X003577Y002941D01*
X003600Y002929D01*
X003625Y002922D01*
X003650Y002919D01*
X003675Y002922D01*
X003700Y002929D01*
X003723Y002941D01*
X003742Y002958D01*
X003759Y002977D01*
X003771Y003000D01*
X003778Y003025D01*
X003781Y003050D01*
X003778Y003075D01*
X003771Y003100D01*
X003759Y003123D01*
X003742Y003142D01*
X003723Y003159D01*
X003700Y003171D01*
X003675Y003178D01*
X003650Y003181D01*
D02*
G37*
G36*
X001147Y003934D02*
X001121Y003931D01*
X001097Y003924D01*
X001074Y003912D01*
X001054Y003896D01*
X001038Y003876D01*
X001026Y003853D01*
X001019Y003829D01*
X001016Y003803D01*
X001019Y003778D01*
X001026Y003753D01*
X001038Y003731D01*
X001054Y003711D01*
X001074Y003695D01*
X001097Y003682D01*
X001121Y003675D01*
X001147Y003673D01*
X001172Y003675D01*
X001197Y003682D01*
X001219Y003695D01*
X001239Y003711D01*
X001255Y003731D01*
X001268Y003753D01*
X001275Y003778D01*
X001277Y003803D01*
X001275Y003829D01*
X001268Y003853D01*
X001255Y003876D01*
X001239Y003896D01*
X001219Y003912D01*
X001197Y003924D01*
X001172Y003931D01*
X001147Y003934D01*
D02*
G37*
G36*
X008723Y005497D02*
X007877D01*
X007844Y005493D01*
X007812Y005484D01*
X007783Y005468D01*
X007757Y005447D01*
X007736Y005422D01*
X007721Y005393D01*
X007711Y005361D01*
X007708Y005328D01*
Y005072D01*
X007711Y005039D01*
X007721Y005007D01*
X007736Y004978D01*
X007757Y004953D01*
X007783Y004932D01*
X007812Y004916D01*
X007844Y004907D01*
X007877Y004903D01*
X008723D01*
X008756Y004907D01*
X008788Y004916D01*
X008817Y004932D01*
X008843Y004953D01*
X008864Y004978D01*
X008879Y005007D01*
X008889Y005039D01*
X008892Y005072D01*
Y005328D01*
X008889Y005361D01*
X008879Y005393D01*
X008864Y005422D01*
X008843Y005447D01*
X008817Y005468D01*
X008788Y005484D01*
X008756Y005493D01*
X008723Y005497D01*
D02*
G37*
G36*
X001150Y005481D02*
X001125Y005478D01*
X001100Y005471D01*
X001077Y005459D01*
X001058Y005442D01*
X001041Y005423D01*
X001029Y005400D01*
X001022Y005375D01*
X001019Y005350D01*
X001022Y005325D01*
X001029Y005300D01*
X001041Y005277D01*
X001058Y005258D01*
X001077Y005241D01*
X001100Y005229D01*
X001125Y005222D01*
X001150Y005219D01*
X001175Y005222D01*
X001200Y005229D01*
X001223Y005241D01*
X001242Y005258D01*
X001259Y005277D01*
X001271Y005300D01*
X001278Y005325D01*
X001281Y005350D01*
X001278Y005375D01*
X001271Y005400D01*
X001259Y005423D01*
X001242Y005442D01*
X001223Y005459D01*
X001200Y005471D01*
X001175Y005478D01*
X001150Y005481D01*
D02*
G37*
G36*
X003550D02*
X003525Y005478D01*
X003500Y005471D01*
X003477Y005459D01*
X003458Y005442D01*
X003441Y005423D01*
X003429Y005400D01*
X003422Y005375D01*
X003419Y005350D01*
X003422Y005325D01*
X003429Y005300D01*
X003441Y005277D01*
X003458Y005258D01*
X003477Y005241D01*
X003500Y005229D01*
X003525Y005222D01*
X003550Y005219D01*
X003575Y005222D01*
X003600Y005229D01*
X003623Y005241D01*
X003642Y005258D01*
X003659Y005277D01*
X003671Y005300D01*
X003678Y005325D01*
X003681Y005350D01*
X003678Y005375D01*
X003671Y005400D01*
X003659Y005423D01*
X003642Y005442D01*
X003623Y005459D01*
X003600Y005471D01*
X003575Y005478D01*
X003550Y005481D01*
D02*
G37*
G36*
X003100Y006039D02*
X003055Y006035D01*
X003011Y006025D01*
X002969Y006007D01*
X002930Y005984D01*
X002896Y005954D01*
X002866Y005920D01*
X002843Y005881D01*
X002825Y005839D01*
X002815Y005795D01*
X002811Y005750D01*
X002815Y005705D01*
X002825Y005661D01*
X002843Y005619D01*
X002866Y005580D01*
X002896Y005546D01*
X002930Y005516D01*
X002969Y005493D01*
X003011Y005475D01*
X003055Y005465D01*
X003100Y005461D01*
X003145Y005465D01*
X003189Y005475D01*
X003231Y005493D01*
X003270Y005516D01*
X003304Y005546D01*
X003334Y005580D01*
X003357Y005619D01*
X003375Y005661D01*
X003385Y005705D01*
X003389Y005750D01*
X003385Y005795D01*
X003375Y005839D01*
X003357Y005881D01*
X003334Y005920D01*
X003304Y005954D01*
X003270Y005984D01*
X003231Y006007D01*
X003189Y006025D01*
X003145Y006035D01*
X003100Y006039D01*
D02*
G37*
G36*
X003950Y005381D02*
X003925Y005378D01*
X003900Y005371D01*
X003877Y005359D01*
X003858Y005342D01*
X003841Y005323D01*
X003829Y005300D01*
X003822Y005275D01*
X003819Y005250D01*
X003822Y005225D01*
X003829Y005200D01*
X003841Y005177D01*
X003858Y005158D01*
X003877Y005141D01*
X003900Y005129D01*
X003925Y005122D01*
X003950Y005119D01*
X003975Y005122D01*
X004000Y005129D01*
X004023Y005141D01*
X004042Y005158D01*
X004059Y005177D01*
X004071Y005200D01*
X004078Y005225D01*
X004081Y005250D01*
X004078Y005275D01*
X004071Y005300D01*
X004059Y005323D01*
X004042Y005342D01*
X004023Y005359D01*
X004000Y005371D01*
X003975Y005378D01*
X003950Y005381D01*
D02*
G37*
G36*
X004380Y005201D02*
X004355Y005198D01*
X004330Y005191D01*
X004307Y005179D01*
X004288Y005162D01*
X004271Y005143D01*
X004259Y005120D01*
X004252Y005095D01*
X004249Y005070D01*
X004252Y005045D01*
X004259Y005020D01*
X004271Y004997D01*
X004288Y004978D01*
X004307Y004961D01*
X004330Y004949D01*
X004355Y004942D01*
X004380Y004939D01*
X004405Y004942D01*
X004430Y004949D01*
X004453Y004961D01*
X004472Y004978D01*
X004489Y004997D01*
X004501Y005020D01*
X004508Y005045D01*
X004511Y005070D01*
X004508Y005095D01*
X004501Y005120D01*
X004489Y005143D01*
X004472Y005162D01*
X004453Y005179D01*
X004430Y005191D01*
X004405Y005198D01*
X004380Y005201D01*
D02*
G37*
G36*
X006100Y006039D02*
X006055Y006035D01*
X006011Y006025D01*
X005969Y006007D01*
X005930Y005984D01*
X005896Y005954D01*
X005866Y005920D01*
X005843Y005881D01*
X005825Y005839D01*
X005815Y005795D01*
X005811Y005750D01*
X005815Y005705D01*
X005825Y005661D01*
X005843Y005619D01*
X005866Y005580D01*
X005896Y005546D01*
X005909Y005534D01*
Y005159D01*
X005906Y005149D01*
X005904Y005123D01*
X005906Y005098D01*
X005914Y005073D01*
X005926Y005051D01*
X005942Y005031D01*
X005962Y005015D01*
X005984Y005003D01*
X006009Y004995D01*
X006034Y004993D01*
X006060Y004995D01*
X006084Y005003D01*
X006107Y005015D01*
X006127Y005031D01*
X006143Y005051D01*
X006155Y005073D01*
X006162Y005098D01*
X006165Y005123D01*
X006162Y005149D01*
X006155Y005173D01*
X006143Y005196D01*
X006127Y005216D01*
X006107Y005232D01*
X006091Y005241D01*
Y005453D01*
X006100Y005461D01*
X006145Y005465D01*
X006189Y005475D01*
X006231Y005493D01*
X006270Y005516D01*
X006304Y005546D01*
X006334Y005580D01*
X006357Y005619D01*
X006375Y005661D01*
X006385Y005705D01*
X006389Y005750D01*
X006385Y005795D01*
X006375Y005839D01*
X006357Y005881D01*
X006334Y005920D01*
X006304Y005954D01*
X006270Y005984D01*
X006231Y006007D01*
X006189Y006025D01*
X006145Y006035D01*
X006100Y006039D01*
D02*
G37*
G36*
X000753Y005284D02*
X000728Y005281D01*
X000703Y005274D01*
X000681Y005262D01*
X000661Y005246D01*
X000645Y005226D01*
X000632Y005203D01*
X000625Y005179D01*
X000623Y005153D01*
X000625Y005128D01*
X000632Y005103D01*
X000645Y005081D01*
X000661Y005061D01*
X000681Y005045D01*
X000703Y005032D01*
X000728Y005025D01*
X000753Y005023D01*
X000779Y005025D01*
X000803Y005032D01*
X000826Y005045D01*
X000846Y005061D01*
X000862Y005081D01*
X000874Y005103D01*
X000881Y005128D01*
X000884Y005153D01*
X000881Y005179D01*
X000874Y005203D01*
X000862Y005226D01*
X000846Y005246D01*
X000826Y005262D01*
X000803Y005274D01*
X000779Y005281D01*
X000753Y005284D01*
D02*
G37*
G36*
X004919Y001258D02*
X004872D01*
X004854Y001255D01*
X004838Y001248D01*
X004823Y001238D01*
X004820Y001233D01*
X004807Y001230D01*
X004787D01*
X004773Y001233D01*
X004770Y001238D01*
X004756Y001248D01*
X004740Y001255D01*
X004722Y001258D01*
X004675D01*
X004657Y001255D01*
X004641Y001248D01*
X004627Y001238D01*
X004623Y001233D01*
X004610Y001230D01*
X004590D01*
X004577Y001233D01*
X004573Y001238D01*
X004559Y001248D01*
X004543Y001255D01*
X004525Y001258D01*
X004478D01*
X004460Y001255D01*
X004444Y001248D01*
X004430Y001238D01*
X004427Y001233D01*
X004413Y001230D01*
X004393D01*
X004380Y001233D01*
X004377Y001238D01*
X004362Y001248D01*
X004346Y001255D01*
X004328Y001258D01*
X004281D01*
X004264Y001255D01*
X004247Y001248D01*
X004233Y001238D01*
X004222Y001223D01*
X004215Y001207D01*
X004213Y001189D01*
Y000985D01*
X004215Y000967D01*
X004222Y000951D01*
X004233Y000936D01*
X004247Y000926D01*
X004264Y000919D01*
X004276Y000917D01*
X004285Y000905D01*
X004295Y000877D01*
X004291Y000873D01*
X004279Y000850D01*
X004272Y000825D01*
X004269Y000800D01*
X004272Y000775D01*
X004279Y000750D01*
X004291Y000727D01*
X004308Y000708D01*
X004327Y000691D01*
X004350Y000679D01*
X004375Y000672D01*
X004400Y000669D01*
X004425Y000672D01*
X004450Y000679D01*
X004473Y000691D01*
X004492Y000708D01*
X004509Y000727D01*
X004521Y000750D01*
X004528Y000775D01*
X004531Y000800D01*
X004528Y000825D01*
X004521Y000850D01*
X004509Y000873D01*
X004505Y000877D01*
X004524Y000917D01*
X004525D01*
X004543Y000919D01*
X004559Y000926D01*
X004573Y000936D01*
X004577Y000941D01*
X004590Y000944D01*
X004610D01*
X004623Y000941D01*
X004627Y000936D01*
X004641Y000926D01*
X004657Y000919D01*
X004675Y000917D01*
X004676D01*
X004695Y000877D01*
X004691Y000873D01*
X004679Y000850D01*
X004672Y000825D01*
X004669Y000800D01*
X004672Y000775D01*
X004679Y000750D01*
X004691Y000727D01*
X004708Y000708D01*
X004727Y000691D01*
X004750Y000679D01*
X004775Y000672D01*
X004800Y000669D01*
X004825Y000672D01*
X004850Y000679D01*
X004873Y000691D01*
X004892Y000708D01*
X004909Y000727D01*
X004921Y000750D01*
X004928Y000775D01*
X004931Y000800D01*
X004928Y000825D01*
X004921Y000850D01*
X004909Y000873D01*
X004905Y000877D01*
X004915Y000905D01*
X004924Y000917D01*
X004936Y000919D01*
X004953Y000926D01*
X004967Y000936D01*
X004978Y000951D01*
X004985Y000967D01*
X004987Y000985D01*
Y001189D01*
X004985Y001207D01*
X004978Y001223D01*
X004967Y001238D01*
X004953Y001248D01*
X004936Y001255D01*
X004919Y001258D01*
D02*
G37*
G36*
X002150Y001792D02*
X002125Y001790D01*
X002100Y001782D01*
X002077Y001770D01*
X002058Y001754D01*
X002041Y001734D01*
X002029Y001712D01*
X002022Y001687D01*
X002019Y001662D01*
X002020Y001660D01*
X001942Y001583D01*
X001794D01*
X001766Y001579D01*
X001740Y001568D01*
X001718Y001551D01*
X001700Y001528D01*
X001690Y001502D01*
X001686Y001474D01*
Y001349D01*
X001690Y001321D01*
X001700Y001295D01*
X001718Y001273D01*
X001740Y001256D01*
X001766Y001245D01*
X001794Y001241D01*
X002006D01*
X002034Y001245D01*
X002060Y001256D01*
X002082Y001273D01*
X002100Y001295D01*
X002110Y001321D01*
X002190D01*
X002200Y001295D01*
X002218Y001273D01*
X002240Y001256D01*
X002266Y001245D01*
X002294Y001241D01*
X002506D01*
X002534Y001245D01*
X002560Y001256D01*
X002582Y001273D01*
X002600Y001295D01*
X002610Y001321D01*
X002614Y001349D01*
Y001474D01*
X002610Y001502D01*
X002600Y001528D01*
X002582Y001551D01*
X002560Y001568D01*
X002534Y001579D01*
X002506Y001583D01*
X002300D01*
X002287Y001596D01*
X002273Y001620D01*
X002278Y001636D01*
X002281Y001662D01*
X002278Y001687D01*
X002271Y001712D01*
X002259Y001734D01*
X002242Y001754D01*
X002223Y001770D01*
X002200Y001782D01*
X002175Y001790D01*
X002150Y001792D01*
D02*
G37*
G36*
X009690Y001841D02*
X009665Y001838D01*
X009640Y001831D01*
X009617Y001819D01*
X009598Y001802D01*
X009581Y001783D01*
X009569Y001760D01*
X009562Y001735D01*
X009559Y001710D01*
X009562Y001685D01*
X009569Y001660D01*
X009581Y001637D01*
X009594Y001622D01*
X009262Y001291D01*
X008892D01*
Y001328D01*
X008889Y001361D01*
X008879Y001393D01*
X008864Y001422D01*
X008843Y001447D01*
X008817Y001468D01*
X008788Y001484D01*
X008756Y001493D01*
X008723Y001497D01*
X007877D01*
X007844Y001493D01*
X007812Y001484D01*
X007783Y001468D01*
X007757Y001447D01*
X007736Y001422D01*
X007721Y001393D01*
X007711Y001361D01*
X007708Y001328D01*
Y001072D01*
X007711Y001039D01*
X007721Y001007D01*
X007736Y000978D01*
X007757Y000953D01*
X007783Y000932D01*
X007812Y000916D01*
X007844Y000907D01*
X007877Y000903D01*
X008723D01*
X008756Y000907D01*
X008788Y000916D01*
X008817Y000932D01*
X008843Y000953D01*
X008864Y000978D01*
X008879Y001007D01*
X008889Y001039D01*
X008892Y001072D01*
Y001109D01*
X009300D01*
X009323Y001112D01*
X009345Y001121D01*
X009364Y001136D01*
X009754Y001526D01*
X009769Y001545D01*
X009778Y001567D01*
X009781Y001590D01*
Y001616D01*
X009782Y001618D01*
X009799Y001637D01*
X009811Y001660D01*
X009818Y001685D01*
X009821Y001710D01*
X009818Y001735D01*
X009811Y001760D01*
X009799Y001783D01*
X009782Y001802D01*
X009763Y001819D01*
X009740Y001831D01*
X009715Y001838D01*
X009690Y001841D01*
D02*
G37*
G36*
X006806Y001059D02*
X006594D01*
X006566Y001055D01*
X006540Y001045D01*
X006518Y001027D01*
X006500Y001005D01*
X006490Y000979D01*
X006486Y000951D01*
Y000826D01*
X006490Y000798D01*
X006500Y000772D01*
X006518Y000749D01*
X006540Y000732D01*
X006566Y000721D01*
X006594Y000717D01*
X006609D01*
Y000640D01*
X006602Y000637D01*
X006573Y000619D01*
X006547Y000597D01*
X006525Y000571D01*
X006508Y000542D01*
X006495Y000511D01*
X006487Y000478D01*
X006484Y000444D01*
Y000346D01*
X006487Y000312D01*
X006495Y000279D01*
X006508Y000248D01*
X006525Y000219D01*
X006547Y000193D01*
X006573Y000171D01*
X006602Y000154D01*
X006633Y000141D01*
X006666Y000133D01*
X006700Y000130D01*
X006734Y000133D01*
X006767Y000141D01*
X006798Y000154D01*
X006827Y000171D01*
X006853Y000193D01*
X006875Y000219D01*
X006892Y000248D01*
X006905Y000279D01*
X006913Y000312D01*
X006916Y000346D01*
Y000444D01*
X006913Y000478D01*
X006905Y000511D01*
X006892Y000542D01*
X006875Y000571D01*
X006853Y000597D01*
X006827Y000619D01*
X006798Y000637D01*
X006791Y000640D01*
Y000717D01*
X006806D01*
X006834Y000721D01*
X006860Y000732D01*
X006882Y000749D01*
X006900Y000772D01*
X006910Y000798D01*
X006914Y000826D01*
Y000951D01*
X006910Y000979D01*
X006900Y001005D01*
X006882Y001027D01*
X006860Y001045D01*
X006834Y001055D01*
X006806Y001059D01*
D02*
G37*
G36*
X002006D02*
X001794D01*
X001766Y001055D01*
X001740Y001045D01*
X001718Y001027D01*
X001700Y001005D01*
X001690Y000979D01*
X001686Y000951D01*
Y000826D01*
X001690Y000798D01*
X001700Y000772D01*
X001718Y000749D01*
X001740Y000732D01*
X001766Y000721D01*
X001794Y000717D01*
X001809D01*
Y000640D01*
X001802Y000637D01*
X001773Y000619D01*
X001747Y000597D01*
X001725Y000571D01*
X001708Y000542D01*
X001695Y000511D01*
X001687Y000478D01*
X001684Y000444D01*
Y000346D01*
X001687Y000312D01*
X001695Y000279D01*
X001708Y000248D01*
X001725Y000219D01*
X001747Y000193D01*
X001773Y000171D01*
X001802Y000154D01*
X001833Y000141D01*
X001866Y000133D01*
X001900Y000130D01*
X001934Y000133D01*
X001967Y000141D01*
X001998Y000154D01*
X002027Y000171D01*
X002053Y000193D01*
X002075Y000219D01*
X002092Y000248D01*
X002105Y000279D01*
X002113Y000312D01*
X002116Y000346D01*
Y000444D01*
X002113Y000478D01*
X002105Y000511D01*
X002092Y000542D01*
X002075Y000571D01*
X002053Y000597D01*
X002027Y000619D01*
X001998Y000637D01*
X001991Y000640D01*
Y000717D01*
X002006D01*
X002034Y000721D01*
X002060Y000732D01*
X002082Y000749D01*
X002100Y000772D01*
X002110Y000798D01*
X002114Y000826D01*
Y000951D01*
X002110Y000979D01*
X002100Y001005D01*
X002082Y001027D01*
X002060Y001045D01*
X002034Y001055D01*
X002006Y001059D01*
D02*
G37*
G36*
X003006D02*
X002794D01*
X002766Y001055D01*
X002740Y001045D01*
X002718Y001027D01*
X002700Y001005D01*
X002690Y000979D01*
X002686Y000951D01*
Y000826D01*
X002690Y000798D01*
X002700Y000772D01*
X002718Y000749D01*
X002740Y000732D01*
X002766Y000721D01*
X002794Y000717D01*
X002809D01*
Y000640D01*
X002802Y000637D01*
X002773Y000619D01*
X002747Y000597D01*
X002725Y000571D01*
X002708Y000542D01*
X002695Y000511D01*
X002687Y000478D01*
X002684Y000444D01*
Y000346D01*
X002687Y000312D01*
X002695Y000279D01*
X002708Y000248D01*
X002725Y000219D01*
X002747Y000193D01*
X002773Y000171D01*
X002802Y000154D01*
X002833Y000141D01*
X002866Y000133D01*
X002900Y000130D01*
X002934Y000133D01*
X002967Y000141D01*
X002998Y000154D01*
X003027Y000171D01*
X003053Y000193D01*
X003075Y000219D01*
X003092Y000248D01*
X003105Y000279D01*
X003113Y000312D01*
X003116Y000346D01*
Y000444D01*
X003113Y000478D01*
X003105Y000511D01*
X003092Y000542D01*
X003075Y000571D01*
X003053Y000597D01*
X003027Y000619D01*
X002998Y000637D01*
X002991Y000640D01*
Y000717D01*
X003006D01*
X003034Y000721D01*
X003060Y000732D01*
X003082Y000749D01*
X003100Y000772D01*
X003110Y000798D01*
X003114Y000826D01*
Y000951D01*
X003110Y000979D01*
X003100Y001005D01*
X003082Y001027D01*
X003060Y001045D01*
X003034Y001055D01*
X003006Y001059D01*
D02*
G37*
G36*
X005806D02*
X005594D01*
X005566Y001055D01*
X005540Y001045D01*
X005518Y001027D01*
X005500Y001005D01*
X005490Y000979D01*
X005486Y000951D01*
Y000826D01*
X005490Y000798D01*
X005500Y000772D01*
X005518Y000749D01*
X005540Y000732D01*
X005566Y000721D01*
X005594Y000717D01*
X005609D01*
Y000640D01*
X005602Y000637D01*
X005573Y000619D01*
X005547Y000597D01*
X005525Y000571D01*
X005508Y000542D01*
X005495Y000511D01*
X005487Y000478D01*
X005484Y000444D01*
Y000346D01*
X005487Y000312D01*
X005495Y000279D01*
X005508Y000248D01*
X005525Y000219D01*
X005547Y000193D01*
X005573Y000171D01*
X005602Y000154D01*
X005633Y000141D01*
X005666Y000133D01*
X005700Y000130D01*
X005734Y000133D01*
X005767Y000141D01*
X005798Y000154D01*
X005827Y000171D01*
X005853Y000193D01*
X005875Y000219D01*
X005892Y000248D01*
X005905Y000279D01*
X005913Y000312D01*
X005916Y000346D01*
Y000444D01*
X005913Y000478D01*
X005905Y000511D01*
X005892Y000542D01*
X005875Y000571D01*
X005853Y000597D01*
X005827Y000619D01*
X005798Y000637D01*
X005791Y000640D01*
Y000717D01*
X005806D01*
X005834Y000721D01*
X005860Y000732D01*
X005882Y000749D01*
X005900Y000772D01*
X005910Y000798D01*
X005914Y000826D01*
Y000951D01*
X005910Y000979D01*
X005900Y001005D01*
X005882Y001027D01*
X005860Y001045D01*
X005834Y001055D01*
X005806Y001059D01*
D02*
G37*
G36*
X003506Y001583D02*
X003294D01*
X003266Y001579D01*
X003240Y001568D01*
X003218Y001551D01*
X003200Y001528D01*
X003190Y001503D01*
X003110D01*
X003100Y001528D01*
X003082Y001551D01*
X003060Y001568D01*
X003034Y001579D01*
X003006Y001583D01*
X002794D01*
X002766Y001579D01*
X002740Y001568D01*
X002718Y001551D01*
X002700Y001528D01*
X002690Y001502D01*
X002686Y001474D01*
Y001349D01*
X002690Y001321D01*
X002700Y001295D01*
X002718Y001273D01*
X002740Y001256D01*
X002766Y001245D01*
X002794Y001241D01*
X003006D01*
X003034Y001245D01*
X003060Y001256D01*
X003082Y001273D01*
X003100Y001295D01*
X003110Y001321D01*
X003190D01*
X003200Y001295D01*
X003218Y001273D01*
X003240Y001256D01*
X003266Y001245D01*
X003294Y001241D01*
X003506D01*
X003534Y001245D01*
X003560Y001256D01*
X003571Y001264D01*
X003927D01*
X003935Y001263D01*
X004139D01*
X004157Y001265D01*
X004173Y001272D01*
X004188Y001283D01*
X004198Y001297D01*
X004205Y001314D01*
X004208Y001331D01*
Y001378D01*
X004205Y001396D01*
X004198Y001412D01*
X004188Y001427D01*
X004173Y001437D01*
X004157Y001444D01*
X004139Y001446D01*
X003935D01*
X003927Y001445D01*
X003614D01*
Y001474D01*
X003610Y001502D01*
X003600Y001528D01*
X003582Y001551D01*
X003560Y001568D01*
X003534Y001579D01*
X003506Y001583D01*
D02*
G37*
G36*
X003100Y003039D02*
X003055Y003035D01*
X003011Y003025D01*
X002969Y003007D01*
X002930Y002984D01*
X002896Y002954D01*
X002866Y002920D01*
X002853Y002898D01*
X002830Y002891D01*
X002807Y002879D01*
X002788Y002862D01*
X002771Y002843D01*
X002759Y002820D01*
X002752Y002795D01*
X002749Y002770D01*
X002752Y002745D01*
X002759Y002720D01*
X002771Y002697D01*
X002788Y002678D01*
X002807Y002661D01*
X002830Y002649D01*
X002843Y002619D01*
X002866Y002580D01*
X002896Y002546D01*
X002930Y002516D01*
X002969Y002493D01*
X003011Y002475D01*
X003055Y002465D01*
X003100Y002461D01*
X003145Y002465D01*
X003189Y002475D01*
X003231Y002493D01*
X003270Y002516D01*
X003304Y002546D01*
X003334Y002580D01*
X003357Y002619D01*
X003375Y002661D01*
X003385Y002705D01*
X003389Y002750D01*
X003385Y002795D01*
X003375Y002839D01*
X003357Y002881D01*
X003334Y002920D01*
X003304Y002954D01*
X003270Y002984D01*
X003231Y003007D01*
X003189Y003025D01*
X003145Y003035D01*
X003100Y003039D01*
D02*
G37*
G36*
X000250Y003131D02*
X000225Y003128D01*
X000200Y003121D01*
X000177Y003109D01*
X000158Y003092D01*
X000141Y003073D01*
X000129Y003050D01*
X000122Y003025D01*
X000119Y003000D01*
X000122Y002975D01*
X000129Y002950D01*
X000141Y002927D01*
X000158Y002908D01*
X000177Y002891D01*
X000200Y002879D01*
X000225Y002872D01*
X000250Y002869D01*
X000275Y002872D01*
X000282Y002874D01*
X000313Y002854D01*
X000316Y002851D01*
X000320Y002845D01*
X000322Y002825D01*
X000329Y002800D01*
X000341Y002777D01*
X000358Y002758D01*
X000377Y002741D01*
X000400Y002729D01*
X000425Y002722D01*
X000450Y002719D01*
X000475Y002722D01*
X000482Y002724D01*
X000505Y002724D01*
X000529Y002700D01*
X000541Y002677D01*
X000558Y002658D01*
X000577Y002641D01*
X000600Y002629D01*
X000625Y002622D01*
X000650Y002619D01*
X000675Y002622D01*
X000682Y002624D01*
X000705Y002624D01*
X000729Y002600D01*
X000741Y002577D01*
X000758Y002558D01*
X000777Y002541D01*
X000800Y002529D01*
X000825Y002522D01*
X000850Y002519D01*
X000875Y002522D01*
X000900Y002529D01*
X000923Y002541D01*
X000942Y002558D01*
X000959Y002577D01*
X000971Y002600D01*
X000978Y002625D01*
X000981Y002650D01*
X000978Y002675D01*
X000971Y002700D01*
X000959Y002723D01*
X000942Y002742D01*
X000923Y002759D01*
X000900Y002771D01*
X000875Y002778D01*
X000850Y002781D01*
X000825Y002778D01*
X000818Y002776D01*
X000795Y002776D01*
X000771Y002800D01*
X000759Y002823D01*
X000742Y002842D01*
X000723Y002859D01*
X000700Y002871D01*
X000675Y002878D01*
X000650Y002881D01*
X000625Y002878D01*
X000618Y002876D01*
X000595Y002876D01*
X000571Y002900D01*
X000559Y002923D01*
X000542Y002942D01*
X000523Y002959D01*
X000500Y002971D01*
X000475Y002978D01*
X000450Y002981D01*
X000425Y002978D01*
X000418Y002976D01*
X000387Y002996D01*
X000384Y002999D01*
X000380Y003005D01*
X000378Y003025D01*
X000371Y003050D01*
X000359Y003073D01*
X000342Y003092D01*
X000323Y003109D01*
X000300Y003121D01*
X000275Y003128D01*
X000250Y003131D01*
D02*
G37*
G36*
X008723Y004497D02*
X007877D01*
X007844Y004493D01*
X007812Y004484D01*
X007783Y004468D01*
X007757Y004447D01*
X007736Y004422D01*
X007721Y004393D01*
X007711Y004361D01*
X007708Y004328D01*
Y004306D01*
X007701Y004299D01*
X007191Y003789D01*
X007173Y003768D01*
X007160Y003744D01*
X007152Y003717D01*
X007149Y003690D01*
Y003406D01*
X007146Y003400D01*
X007137Y003370D01*
X007134Y003340D01*
X007137Y003310D01*
X007146Y003280D01*
X007161Y003253D01*
X007162Y003252D01*
X007139Y003217D01*
X007135Y003218D01*
X007110Y003221D01*
X007085Y003218D01*
X007060Y003211D01*
X007037Y003199D01*
X007018Y003182D01*
X007001Y003163D01*
X006989Y003140D01*
X006982Y003115D01*
X006979Y003090D01*
X006982Y003065D01*
X006989Y003040D01*
X006979Y003012D01*
X006969Y003007D01*
X006930Y002984D01*
X006896Y002954D01*
X006866Y002920D01*
X006843Y002881D01*
X006825Y002839D01*
X006815Y002795D01*
X006811Y002750D01*
X006815Y002705D01*
X006825Y002661D01*
X006843Y002619D01*
X006866Y002580D01*
X006896Y002546D01*
X006930Y002516D01*
X006969Y002493D01*
X007011Y002475D01*
X007055Y002465D01*
X007073Y002463D01*
X007091Y002423D01*
X007079Y002400D01*
X007072Y002375D01*
X007069Y002350D01*
X007072Y002325D01*
X007079Y002300D01*
X007091Y002277D01*
X007108Y002258D01*
Y002242D01*
X007091Y002223D01*
X007079Y002200D01*
X007072Y002175D01*
X007069Y002150D01*
X007072Y002125D01*
X007079Y002100D01*
X007091Y002077D01*
X007108Y002058D01*
X007127Y002041D01*
X007150Y002029D01*
X007175Y002022D01*
X007200Y002019D01*
X007225Y002022D01*
X007250Y002029D01*
X007273Y002041D01*
X007292Y002058D01*
X007309Y002077D01*
X007321Y002100D01*
X007328Y002125D01*
X007331Y002150D01*
X007328Y002175D01*
X007321Y002200D01*
X007309Y002223D01*
X007292Y002242D01*
Y002258D01*
X007309Y002277D01*
X007321Y002300D01*
X007328Y002325D01*
X007331Y002350D01*
X007328Y002375D01*
X007321Y002400D01*
X007309Y002423D01*
X007292Y002442D01*
X007273Y002459D01*
X007262Y002464D01*
X007257Y002499D01*
X007259Y002510D01*
X007270Y002516D01*
X007304Y002546D01*
X007334Y002580D01*
X007357Y002619D01*
X007375Y002661D01*
X007385Y002705D01*
X007389Y002750D01*
X007385Y002795D01*
X007375Y002839D01*
X007357Y002881D01*
X007334Y002920D01*
X007304Y002954D01*
X007270Y002984D01*
X007251Y002996D01*
X007231Y003009D01*
X007231Y003040D01*
X007238Y003065D01*
X007241Y003090D01*
X007238Y003115D01*
X007231Y003140D01*
X007222Y003157D01*
X007230Y003174D01*
X007247Y003191D01*
X007260Y003187D01*
X007290Y003184D01*
X007320Y003187D01*
X007350Y003196D01*
X007377Y003210D01*
X007400Y003230D01*
X007419Y003253D01*
X007434Y003280D01*
X007443Y003310D01*
X007446Y003340D01*
X007443Y003370D01*
X007434Y003400D01*
X007431Y003406D01*
Y003632D01*
X007582Y003783D01*
X007592Y003783D01*
X007626Y003771D01*
X007629Y003760D01*
X007641Y003737D01*
X007658Y003718D01*
X007677Y003701D01*
X007700Y003689D01*
X007725Y003682D01*
X007750Y003679D01*
X007775Y003682D01*
X007800Y003689D01*
X007801Y003690D01*
X007956Y003534D01*
X007941Y003497D01*
X007877D01*
X007844Y003493D01*
X007812Y003484D01*
X007783Y003468D01*
X007757Y003447D01*
X007736Y003422D01*
X007721Y003393D01*
X007711Y003361D01*
X007708Y003328D01*
Y003072D01*
X007711Y003039D01*
X007721Y003007D01*
X007736Y002978D01*
X007757Y002953D01*
X007783Y002932D01*
X007812Y002916D01*
X007844Y002907D01*
X007877Y002903D01*
X008723D01*
X008756Y002907D01*
X008788Y002916D01*
X008817Y002932D01*
X008843Y002953D01*
X008864Y002978D01*
X008879Y003007D01*
X008889Y003039D01*
X008892Y003072D01*
Y003328D01*
X008889Y003361D01*
X008879Y003393D01*
X008864Y003422D01*
X008843Y003447D01*
X008817Y003468D01*
X008788Y003484D01*
X008756Y003493D01*
X008723Y003497D01*
X008193D01*
X007881Y003809D01*
X007881Y003810D01*
X007878Y003835D01*
X007871Y003860D01*
X007869Y003864D01*
X007870Y003873D01*
X007892Y003903D01*
X008723D01*
X008756Y003907D01*
X008788Y003916D01*
X008817Y003932D01*
X008843Y003953D01*
X008864Y003978D01*
X008879Y004007D01*
X008889Y004039D01*
X008892Y004072D01*
Y004328D01*
X008889Y004361D01*
X008879Y004393D01*
X008864Y004422D01*
X008843Y004447D01*
X008817Y004468D01*
X008788Y004484D01*
X008756Y004493D01*
X008723Y004497D01*
D02*
G37*
G36*
X002110Y003221D02*
X002085Y003218D01*
X002060Y003211D01*
X002037Y003199D01*
X002018Y003182D01*
X002001Y003163D01*
X001989Y003140D01*
X001982Y003115D01*
X001979Y003090D01*
X001982Y003065D01*
X001989Y003040D01*
X001979Y003012D01*
X001969Y003007D01*
X001930Y002984D01*
X001896Y002954D01*
X001866Y002920D01*
X001843Y002881D01*
X001825Y002839D01*
X001815Y002795D01*
X001811Y002750D01*
X001815Y002705D01*
X001825Y002661D01*
X001843Y002619D01*
X001866Y002580D01*
X001896Y002546D01*
X001930Y002516D01*
X001969Y002493D01*
X002011Y002475D01*
X002055Y002465D01*
X002100Y002461D01*
X002145Y002465D01*
X002189Y002475D01*
X002231Y002493D01*
X002270Y002516D01*
X002304Y002546D01*
X002334Y002580D01*
X002357Y002619D01*
X002375Y002661D01*
X002385Y002705D01*
X002389Y002750D01*
X002385Y002795D01*
X002375Y002839D01*
X002357Y002881D01*
X002334Y002920D01*
X002304Y002954D01*
X002270Y002984D01*
X002251Y002996D01*
X002231Y003009D01*
X002231Y003040D01*
X002238Y003065D01*
X002241Y003090D01*
X002238Y003115D01*
X002231Y003140D01*
X002219Y003163D01*
X002202Y003182D01*
X002183Y003199D01*
X002160Y003211D01*
X002135Y003218D01*
X002110Y003221D01*
D02*
G37*
G36*
X007720Y002811D02*
X007695Y002808D01*
X007670Y002801D01*
X007647Y002789D01*
X007628Y002772D01*
X007611Y002753D01*
X007599Y002730D01*
X007592Y002705D01*
X007589Y002680D01*
X007592Y002655D01*
X007599Y002630D01*
X007611Y002607D01*
X007628Y002588D01*
X007647Y002571D01*
X007670Y002559D01*
X007695Y002552D01*
X007720Y002549D01*
X007745Y002552D01*
X007770Y002559D01*
X007793Y002571D01*
X007812Y002588D01*
X007813Y002588D01*
X007864Y002536D01*
X007850Y002494D01*
X007844Y002493D01*
X007812Y002484D01*
X007783Y002468D01*
X007757Y002447D01*
X007736Y002422D01*
X007721Y002393D01*
X007711Y002361D01*
X007708Y002328D01*
Y002072D01*
X007711Y002039D01*
X007721Y002007D01*
X007736Y001978D01*
X007757Y001953D01*
X007783Y001932D01*
X007812Y001916D01*
X007844Y001907D01*
X007877Y001903D01*
X008723D01*
X008756Y001907D01*
X008788Y001916D01*
X008817Y001932D01*
X008843Y001953D01*
X008864Y001978D01*
X008879Y002007D01*
X008889Y002039D01*
X008892Y002072D01*
Y002328D01*
X008889Y002361D01*
X008879Y002393D01*
X008864Y002422D01*
X008843Y002447D01*
X008817Y002468D01*
X008788Y002484D01*
X008756Y002493D01*
X008723Y002497D01*
X008103D01*
X007870Y002730D01*
X007855Y002741D01*
X007838Y002748D01*
X007830Y002749D01*
X007829Y002753D01*
X007812Y002772D01*
X007793Y002789D01*
X007770Y002801D01*
X007745Y002808D01*
X007720Y002811D01*
D02*
G37*
G36*
X005650Y002481D02*
X005625Y002478D01*
X005600Y002471D01*
X005577Y002459D01*
X005558Y002442D01*
X005541Y002423D01*
X005529Y002400D01*
X005522Y002375D01*
X005519Y002350D01*
X005522Y002325D01*
X005529Y002300D01*
X005541Y002277D01*
X005558Y002258D01*
Y002242D01*
X005541Y002223D01*
X005529Y002200D01*
X005522Y002175D01*
X005519Y002150D01*
X005522Y002125D01*
X005529Y002100D01*
X005541Y002077D01*
X005543Y002076D01*
X005524Y002036D01*
X005273D01*
X005265Y002037D01*
X005061D01*
X005043Y002035D01*
X005027Y002028D01*
X005012Y002017D01*
X005002Y002003D01*
X004995Y001986D01*
X004992Y001969D01*
Y001922D01*
X004995Y001904D01*
X005002Y001888D01*
X005012Y001873D01*
X005027Y001863D01*
X005043Y001856D01*
X005061Y001854D01*
X005265D01*
X005273Y001855D01*
X006129D01*
X006383Y001600D01*
X006360Y001568D01*
X006334Y001579D01*
X006306Y001583D01*
X006094D01*
X006066Y001579D01*
X006040Y001568D01*
X006018Y001551D01*
X006000Y001528D01*
X005990Y001503D01*
X005910D01*
X005900Y001528D01*
X005882Y001551D01*
X005860Y001568D01*
X005834Y001579D01*
X005806Y001583D01*
X005594D01*
X005566Y001579D01*
X005540Y001568D01*
X005518Y001551D01*
X005500Y001528D01*
X005490Y001502D01*
X005486Y001474D01*
Y001445D01*
X005273D01*
X005265Y001446D01*
X005061D01*
X005043Y001444D01*
X005027Y001437D01*
X005012Y001427D01*
X005002Y001412D01*
X004995Y001396D01*
X004992Y001378D01*
Y001331D01*
X004995Y001314D01*
X005002Y001297D01*
X005012Y001283D01*
X005027Y001272D01*
X005043Y001265D01*
X005061Y001263D01*
X005265D01*
X005273Y001264D01*
X005529D01*
X005540Y001256D01*
X005566Y001245D01*
X005594Y001241D01*
X005806D01*
X005834Y001245D01*
X005860Y001256D01*
X005882Y001273D01*
X005900Y001295D01*
X005910Y001321D01*
X005990D01*
X006000Y001295D01*
X006018Y001273D01*
X006040Y001256D01*
X006066Y001245D01*
X006094Y001241D01*
X006306D01*
X006334Y001245D01*
X006360Y001256D01*
X006382Y001273D01*
X006400Y001295D01*
X006410Y001321D01*
X006414Y001349D01*
Y001474D01*
X006410Y001502D01*
X006400Y001528D01*
X006432Y001552D01*
X006489Y001495D01*
X006486Y001474D01*
Y001349D01*
X006490Y001321D01*
X006500Y001295D01*
X006518Y001273D01*
X006540Y001256D01*
X006566Y001245D01*
X006594Y001241D01*
X006806D01*
X006834Y001245D01*
X006860Y001256D01*
X006882Y001273D01*
X006900Y001295D01*
X006910Y001321D01*
X006912Y001336D01*
X006988D01*
X006990Y001321D01*
X007000Y001295D01*
X007018Y001273D01*
X007040Y001256D01*
X007066Y001245D01*
X007094Y001241D01*
X007306D01*
X007334Y001245D01*
X007360Y001256D01*
X007382Y001273D01*
X007400Y001295D01*
X007410Y001321D01*
X007414Y001349D01*
Y001474D01*
X007410Y001502D01*
X007400Y001528D01*
X007382Y001551D01*
X007360Y001568D01*
X007334Y001579D01*
X007306Y001583D01*
X007094D01*
X007066Y001579D01*
X007040Y001568D01*
X007018Y001551D01*
X007000Y001528D01*
X006990Y001502D01*
X006988Y001487D01*
X006912D01*
X006910Y001502D01*
X006900Y001528D01*
X006882Y001551D01*
X006860Y001568D01*
X006834Y001579D01*
X006806Y001583D01*
X006658D01*
X006231Y002009D01*
X006212Y002024D01*
X006190Y002033D01*
X006167Y002036D01*
X005776D01*
X005757Y002076D01*
X005759Y002077D01*
X005771Y002100D01*
X005778Y002125D01*
X005781Y002150D01*
X005778Y002175D01*
X005771Y002200D01*
X005759Y002223D01*
X005742Y002242D01*
Y002258D01*
X005759Y002277D01*
X005771Y002300D01*
X005778Y002325D01*
X005781Y002350D01*
X005778Y002375D01*
X005771Y002400D01*
X005759Y002423D01*
X005742Y002442D01*
X005723Y002459D01*
X005700Y002471D01*
X005675Y002478D01*
X005650Y002481D01*
D02*
G37*
G36*
X003560Y002311D02*
X003535Y002308D01*
X003510Y002301D01*
X003487Y002289D01*
X003477Y002280D01*
X003435Y002278D01*
X003416Y002293D01*
X003394Y002302D01*
X003370Y002305D01*
X003276D01*
X003252Y002302D01*
X003230Y002293D01*
X003210Y002278D01*
X003205Y002271D01*
X003141D01*
X003135Y002278D01*
X003116Y002293D01*
X003094Y002302D01*
X003070Y002305D01*
X002976D01*
X002952Y002302D01*
X002930Y002293D01*
X002910Y002278D01*
X002905Y002271D01*
X002791D01*
X002785Y002278D01*
X002766Y002293D01*
X002744Y002302D01*
X002720Y002305D01*
X002626D01*
X002602Y002302D01*
X002580Y002293D01*
X002560Y002278D01*
X002546Y002259D01*
X002537Y002237D01*
X002534Y002213D01*
Y002103D01*
X002537Y002079D01*
X002546Y002057D01*
X002560Y002038D01*
X002580Y002024D01*
X002602Y002014D01*
X002626Y002011D01*
X002720D01*
X002744Y002014D01*
X002766Y002024D01*
X002785Y002038D01*
X002800Y002057D01*
X002809Y002079D01*
X002810Y002089D01*
X002885D01*
X002887Y002079D01*
X002896Y002057D01*
X002910Y002038D01*
X002930Y002024D01*
X002952Y002014D01*
X002976Y002011D01*
X003070D01*
X003094Y002014D01*
X003116Y002024D01*
X003135Y002038D01*
X003150Y002057D01*
X003151Y002061D01*
X003194D01*
X003196Y002057D01*
X003210Y002038D01*
X003230Y002024D01*
X003252Y002014D01*
X003276Y002011D01*
X003370D01*
X003394Y002014D01*
X003416Y002024D01*
X003429Y002034D01*
X003451Y002028D01*
X003469Y002017D01*
Y001818D01*
X003472Y001795D01*
X003481Y001773D01*
X003496Y001754D01*
X003566Y001684D01*
X003585Y001670D01*
X003607Y001661D01*
X003630Y001658D01*
X003927D01*
X003935Y001657D01*
X004139D01*
X004157Y001659D01*
X004173Y001666D01*
X004188Y001677D01*
X004198Y001691D01*
X004205Y001707D01*
X004208Y001725D01*
Y001772D01*
X004205Y001790D01*
X004198Y001806D01*
X004188Y001820D01*
X004183Y001823D01*
X004180Y001837D01*
Y001857D01*
X004183Y001870D01*
X004188Y001874D01*
X004198Y001888D01*
X004205Y001904D01*
X004208Y001922D01*
Y001969D01*
X004205Y001986D01*
X004198Y002003D01*
X004188Y002017D01*
X004173Y002028D01*
X004157Y002035D01*
X004139Y002037D01*
X003997D01*
X003992Y002042D01*
X003973Y002059D01*
X003950Y002071D01*
X003925Y002078D01*
X003900Y002081D01*
X003875Y002078D01*
X003850Y002071D01*
X003827Y002059D01*
X003808Y002042D01*
X003791Y002023D01*
X003779Y002000D01*
X003772Y001975D01*
X003769Y001950D01*
X003772Y001925D01*
X003779Y001900D01*
X003790Y001879D01*
X003789Y001872D01*
X003771Y001839D01*
X003668D01*
X003651Y001856D01*
Y002086D01*
X003652Y002088D01*
X003669Y002107D01*
X003681Y002130D01*
X003688Y002155D01*
X003691Y002180D01*
X003688Y002205D01*
X003681Y002230D01*
X003669Y002253D01*
X003652Y002272D01*
X003633Y002289D01*
X003610Y002301D01*
X003585Y002308D01*
X003560Y002311D01*
D02*
G37*
G36*
X008400Y008736D02*
X008356Y008733D01*
X008313Y008725D01*
X008271Y008710D01*
X008232Y008691D01*
X008195Y008667D01*
X008162Y008638D01*
X008133Y008605D01*
X008109Y008568D01*
X008107Y008564D01*
X008105Y008563D01*
X008063Y008565D01*
X008059Y008573D01*
X008042Y008592D01*
X008023Y008609D01*
X008000Y008621D01*
X007975Y008628D01*
X007950Y008631D01*
X007925Y008628D01*
X007900Y008621D01*
X007877Y008609D01*
X007858Y008592D01*
X007841Y008573D01*
X007829Y008550D01*
X007822Y008525D01*
X007819Y008500D01*
X007822Y008475D01*
X007829Y008450D01*
X007841Y008427D01*
X007858Y008408D01*
X007877Y008391D01*
X007900Y008379D01*
X007925Y008372D01*
X007950Y008369D01*
X007975Y008372D01*
X007978Y008373D01*
X008000Y008350D01*
X008000Y008350D01*
X008015Y008339D01*
X008032Y008332D01*
X008050Y008329D01*
X008072D01*
X008075Y008313D01*
X008090Y008271D01*
X008109Y008232D01*
X008133Y008195D01*
X008162Y008162D01*
X008195Y008133D01*
X008232Y008109D01*
X008271Y008090D01*
X008313Y008075D01*
X008356Y008067D01*
X008400Y008064D01*
X008444Y008067D01*
X008487Y008075D01*
X008529Y008090D01*
X008568Y008109D01*
X008605Y008133D01*
X008638Y008162D01*
X008667Y008195D01*
X008691Y008232D01*
X008710Y008271D01*
X008725Y008313D01*
X008733Y008356D01*
X008736Y008400D01*
X008733Y008444D01*
X008725Y008487D01*
X008710Y008529D01*
X008691Y008568D01*
X008667Y008605D01*
X008638Y008638D01*
X008605Y008667D01*
X008568Y008691D01*
X008529Y008710D01*
X008487Y008725D01*
X008444Y008733D01*
X008400Y008736D01*
D02*
G37*
G36*
X006700Y008981D02*
X006675Y008978D01*
X006650Y008971D01*
X006627Y008959D01*
X006608Y008942D01*
X006591Y008923D01*
X006579Y008900D01*
X006572Y008875D01*
X006569Y008850D01*
X006572Y008826D01*
X006309Y008563D01*
X006299D01*
X006292Y008568D01*
X006275Y008575D01*
X006256Y008578D01*
X006181D01*
X006162Y008575D01*
X006145Y008568D01*
X006130Y008557D01*
X006119Y008542D01*
X006111Y008524D01*
X006109Y008506D01*
Y008438D01*
X006111Y008420D01*
X006119Y008402D01*
X006130Y008388D01*
Y008360D01*
X006119Y008345D01*
X006111Y008328D01*
X006109Y008309D01*
Y008242D01*
X006111Y008223D01*
X006119Y008206D01*
X006130Y008191D01*
Y008163D01*
X006119Y008148D01*
X006111Y008131D01*
X006109Y008112D01*
Y008045D01*
X006111Y008026D01*
X006119Y008009D01*
X006130Y007994D01*
Y007966D01*
X006119Y007951D01*
X006111Y007934D01*
X006109Y007915D01*
Y007848D01*
X006111Y007829D01*
X006119Y007812D01*
X006130Y007797D01*
Y007769D01*
X006119Y007754D01*
X006111Y007737D01*
X006109Y007718D01*
Y007651D01*
X006111Y007632D01*
X006119Y007615D01*
X006130Y007600D01*
Y007572D01*
X006119Y007558D01*
X006111Y007540D01*
X006109Y007522D01*
Y007454D01*
X006111Y007436D01*
X006119Y007418D01*
X006130Y007403D01*
X006145Y007392D01*
X006162Y007385D01*
X006181Y007382D01*
X006256D01*
X006262Y007383D01*
X006269Y007368D01*
X006286Y007349D01*
X006305Y007332D01*
X006328Y007320D01*
X006352Y007313D01*
X006378Y007310D01*
X006403Y007313D01*
X006428Y007320D01*
X006451Y007332D01*
X006470Y007349D01*
X006487Y007368D01*
X006499Y007391D01*
X006506Y007415D01*
X006509Y007441D01*
X006506Y007466D01*
X006499Y007491D01*
X006487Y007514D01*
X006470Y007533D01*
X006462Y007540D01*
X006458Y007552D01*
Y007576D01*
X006462Y007589D01*
X006470Y007595D01*
X006487Y007615D01*
X006499Y007638D01*
X006506Y007662D01*
X006509Y007688D01*
X006506Y007713D01*
X006502Y007728D01*
X006518Y007752D01*
X006532Y007761D01*
X006535Y007760D01*
X006561Y007757D01*
X006586Y007760D01*
X006611Y007767D01*
X006634Y007779D01*
X006653Y007796D01*
X006670Y007815D01*
X006682Y007838D01*
X006689Y007862D01*
X006692Y007888D01*
X006689Y007913D01*
X006682Y007938D01*
X006670Y007960D01*
X006653Y007980D01*
X006634Y007996D01*
X006611Y008009D01*
X006586Y008016D01*
X006581Y008017D01*
X006567Y008030D01*
X006556Y008051D01*
X006555Y008058D01*
X006559Y008072D01*
X006561Y008097D01*
X006559Y008123D01*
X006552Y008147D01*
X006541Y008166D01*
X006545Y008179D01*
X006561Y008206D01*
X006739D01*
X006756Y008190D01*
X006771Y008166D01*
X006769Y008150D01*
X006772Y008125D01*
X006779Y008100D01*
X006791Y008077D01*
X006808Y008058D01*
X006827Y008041D01*
X006850Y008029D01*
X006875Y008022D01*
X006900Y008019D01*
X006925Y008022D01*
X006950Y008029D01*
X006973Y008041D01*
X006992Y008058D01*
X007009Y008077D01*
X007021Y008100D01*
X007028Y008125D01*
X007031Y008150D01*
X007028Y008175D01*
X007021Y008200D01*
X007009Y008223D01*
X006992Y008242D01*
X006991Y008244D01*
Y008244D01*
X006988Y008268D01*
X006979Y008290D01*
X006964Y008309D01*
X006911Y008361D01*
X006893Y008376D01*
X006871Y008385D01*
X006847Y008388D01*
X006447D01*
X006430Y008428D01*
X006724Y008722D01*
X006725Y008722D01*
X006750Y008729D01*
X006773Y008741D01*
X006792Y008758D01*
X006809Y008777D01*
X006821Y008800D01*
X006828Y008825D01*
X006831Y008850D01*
X006828Y008875D01*
X006821Y008900D01*
X006809Y008923D01*
X006792Y008942D01*
X006773Y008959D01*
X006750Y008971D01*
X006725Y008978D01*
X006700Y008981D01*
D02*
G37*
G36*
X009400Y008736D02*
X009356Y008733D01*
X009313Y008725D01*
X009271Y008710D01*
X009232Y008691D01*
X009207Y008674D01*
X009192Y008692D01*
X009173Y008709D01*
X009150Y008721D01*
X009125Y008728D01*
X009100Y008731D01*
X009075Y008728D01*
X009050Y008721D01*
X009027Y008709D01*
X009008Y008692D01*
X008991Y008673D01*
X008979Y008650D01*
X008972Y008625D01*
X008969Y008600D01*
X008972Y008575D01*
X008979Y008550D01*
X008991Y008527D01*
X009008Y008508D01*
X009027Y008491D01*
X009050Y008479D01*
X009073Y008472D01*
X009067Y008444D01*
X009064Y008400D01*
X009067Y008356D01*
X009075Y008313D01*
X009090Y008271D01*
X009109Y008232D01*
X009133Y008195D01*
X009162Y008162D01*
X009195Y008133D01*
X009232Y008109D01*
X009271Y008090D01*
X009313Y008075D01*
X009356Y008067D01*
X009400Y008064D01*
X009444Y008067D01*
X009487Y008075D01*
X009529Y008090D01*
X009568Y008109D01*
X009605Y008133D01*
X009638Y008162D01*
X009667Y008195D01*
X009691Y008232D01*
X009710Y008271D01*
X009725Y008313D01*
X009733Y008356D01*
X009736Y008400D01*
X009733Y008444D01*
X009725Y008487D01*
X009710Y008529D01*
X009691Y008568D01*
X009667Y008605D01*
X009638Y008638D01*
X009605Y008667D01*
X009568Y008691D01*
X009529Y008710D01*
X009487Y008725D01*
X009444Y008733D01*
X009400Y008736D01*
D02*
G37*
G36*
X003800Y008861D02*
X003775Y008858D01*
X003750Y008851D01*
X003727Y008839D01*
X003708Y008822D01*
X003691Y008803D01*
X003679Y008780D01*
X003672Y008755D01*
X003669Y008730D01*
X003672Y008705D01*
X003679Y008680D01*
X003691Y008657D01*
X003708Y008638D01*
X003727Y008621D01*
X003750Y008609D01*
X003775Y008602D01*
X003800Y008599D01*
X003825Y008602D01*
X003850Y008609D01*
X003873Y008621D01*
X003892Y008638D01*
X003909Y008657D01*
X003921Y008680D01*
X003928Y008705D01*
X003931Y008730D01*
X003928Y008755D01*
X003921Y008780D01*
X003909Y008803D01*
X003892Y008822D01*
X003873Y008839D01*
X003850Y008851D01*
X003825Y008858D01*
X003800Y008861D01*
D02*
G37*
G36*
X001600Y008278D02*
X001575Y008276D01*
X001550Y008268D01*
X001527Y008256D01*
X001508Y008240D01*
X001491Y008220D01*
X001479Y008198D01*
X001472Y008173D01*
X001469Y008148D01*
X001472Y008122D01*
X001479Y008098D01*
X001491Y008075D01*
X001508Y008055D01*
X001527Y008039D01*
X001550Y008027D01*
X001575Y008019D01*
X001600Y008017D01*
X001625Y008019D01*
X001650Y008027D01*
X001673Y008039D01*
X001692Y008055D01*
X001709Y008075D01*
X001721Y008098D01*
X001728Y008122D01*
X001731Y008148D01*
X001728Y008173D01*
X001721Y008198D01*
X001709Y008220D01*
X001692Y008240D01*
X001673Y008256D01*
X001650Y008268D01*
X001625Y008276D01*
X001600Y008278D01*
D02*
G37*
G36*
X003886Y008304D02*
X003743D01*
X003727Y008301D01*
X003714Y008292D01*
X003714Y008292D01*
X003238Y007816D01*
X003201D01*
X003197Y007816D01*
X003103D01*
X003079Y007813D01*
X003057Y007804D01*
X003038Y007789D01*
X003023Y007770D01*
X003014Y007748D01*
X003011Y007724D01*
Y007690D01*
X003009Y007675D01*
X003011Y007660D01*
Y007626D01*
X003014Y007602D01*
X003023Y007580D01*
X003038Y007561D01*
X003057Y007546D01*
X003079Y007537D01*
X003103Y007534D01*
X003197D01*
X003201Y007535D01*
X003449D01*
X003453Y007534D01*
X003547D01*
X003551Y007535D01*
X003928D01*
X003954Y007505D01*
X003957Y007487D01*
X003964Y007470D01*
X003975Y007455D01*
X004053Y007377D01*
X004054Y007374D01*
X004066Y007352D01*
X004082Y007332D01*
X004091Y007325D01*
X004088Y007302D01*
X004091Y007279D01*
X004100Y007257D01*
X004115Y007237D01*
X004182Y007171D01*
X004201Y007156D01*
X004218Y007149D01*
X004225Y007126D01*
X004225Y007106D01*
X004208Y007092D01*
X004200Y007083D01*
X004184Y007080D01*
X004172Y007081D01*
X004154Y007088D01*
X004148Y007103D01*
X004133Y007123D01*
X004067Y007189D01*
X004048Y007204D01*
X004025Y007213D01*
X004002Y007216D01*
X003978Y007213D01*
X003956Y007204D01*
X003937Y007189D01*
X003867Y007120D01*
X003852Y007101D01*
X003843Y007079D01*
X003840Y007055D01*
X003843Y007031D01*
X003852Y007009D01*
X003867Y006990D01*
X003934Y006923D01*
X003953Y006908D01*
X003975Y006899D01*
X003980Y006898D01*
X003995Y006890D01*
X004020Y006883D01*
X004045Y006880D01*
X004071Y006883D01*
X004095Y006890D01*
X004118Y006902D01*
X004138Y006919D01*
X004146Y006928D01*
X004184Y006930D01*
X004191Y006927D01*
X004208Y006908D01*
X004227Y006891D01*
X004250Y006879D01*
X004275Y006872D01*
X004300Y006869D01*
X004325Y006872D01*
X004350Y006879D01*
X004373Y006891D01*
X004387Y006903D01*
X004513Y006777D01*
X004532Y006763D01*
X004554Y006754D01*
X004577Y006751D01*
X004647D01*
X004712Y006686D01*
X004731Y006671D01*
X004753Y006662D01*
X004777Y006659D01*
X004800Y006662D01*
X004820Y006670D01*
X004823Y006669D01*
X004846Y006637D01*
X004843Y006631D01*
X004825Y006589D01*
X004815Y006545D01*
X004811Y006500D01*
X004815Y006455D01*
X004825Y006411D01*
X004843Y006369D01*
X004866Y006330D01*
X004896Y006296D01*
X004930Y006266D01*
X004969Y006243D01*
X005011Y006225D01*
X005055Y006215D01*
X005100Y006211D01*
X005145Y006215D01*
X005189Y006225D01*
X005231Y006243D01*
X005270Y006266D01*
X005304Y006296D01*
X005334Y006330D01*
X005357Y006369D01*
X005375Y006411D01*
X005385Y006455D01*
X005389Y006500D01*
X005385Y006545D01*
X005380Y006566D01*
X005386Y006574D01*
X005427Y006591D01*
X005450Y006579D01*
X005475Y006572D01*
X005500Y006569D01*
X005525Y006572D01*
X005550Y006579D01*
X005573Y006591D01*
X005592Y006608D01*
X005609Y006627D01*
X005621Y006650D01*
X005628Y006675D01*
X005631Y006700D01*
X005628Y006725D01*
X005621Y006750D01*
X005609Y006773D01*
X005592Y006792D01*
X005573Y006809D01*
X005550Y006821D01*
X005525Y006828D01*
X005500Y006831D01*
X005475Y006828D01*
X005450Y006821D01*
X005427Y006809D01*
X005408Y006792D01*
X005391Y006773D01*
X005379Y006750D01*
X005372Y006725D01*
X005369Y006700D01*
X005371Y006686D01*
X005334Y006670D01*
X005304Y006704D01*
X005270Y006734D01*
X005231Y006757D01*
X005189Y006775D01*
X005197Y006814D01*
X005335D01*
X005359Y006817D01*
X005381Y006826D01*
X005400Y006841D01*
X005469Y006910D01*
X005483Y006929D01*
X005492Y006951D01*
X005495Y006974D01*
Y006983D01*
X005535Y007002D01*
X005558Y006990D01*
X005582Y006983D01*
X005608Y006980D01*
X005633Y006983D01*
X005636Y006984D01*
X005649Y006979D01*
X005674Y006959D01*
X005677Y006955D01*
X005678Y006944D01*
X005685Y006920D01*
X005697Y006897D01*
X005714Y006877D01*
X005733Y006861D01*
X005756Y006849D01*
X005780Y006842D01*
X005806Y006839D01*
X005831Y006842D01*
X005856Y006849D01*
X005879Y006861D01*
X005898Y006877D01*
X005915Y006897D01*
X005927Y006920D01*
X005934Y006944D01*
X005937Y006970D01*
X005936Y006973D01*
X005975Y006992D01*
X005983Y006986D01*
X006005Y006974D01*
X006030Y006966D01*
X006055Y006964D01*
X006081Y006966D01*
X006105Y006974D01*
X006128Y006986D01*
X006147Y007002D01*
X006164Y007022D01*
X006176Y007045D01*
X006183Y007069D01*
X006186Y007094D01*
X006183Y007120D01*
X006176Y007144D01*
X006164Y007167D01*
X006147Y007187D01*
X006128Y007203D01*
X006105Y007215D01*
X006097Y007218D01*
X006098Y007224D01*
Y007299D01*
X006095Y007318D01*
X006088Y007335D01*
X006077Y007350D01*
X006062Y007361D01*
X006044Y007369D01*
X006026Y007371D01*
X005958D01*
X005940Y007369D01*
X005922Y007361D01*
X005908Y007350D01*
X005880D01*
X005865Y007361D01*
X005848Y007369D01*
X005829Y007371D01*
X005762D01*
X005743Y007369D01*
X005726Y007361D01*
X005711Y007350D01*
X005683D01*
X005668Y007361D01*
X005651Y007369D01*
X005632Y007371D01*
X005565D01*
X005546Y007369D01*
X005529Y007361D01*
X005514Y007350D01*
X005486D01*
X005471Y007361D01*
X005454Y007369D01*
X005435Y007371D01*
X005368D01*
X005349Y007369D01*
X005332Y007361D01*
X005317Y007350D01*
X005289D01*
X005274Y007361D01*
X005257Y007369D01*
X005239Y007371D01*
X005171D01*
X005152Y007369D01*
X005135Y007361D01*
X005120Y007350D01*
X005092D01*
X005078Y007361D01*
X005060Y007369D01*
X005042Y007371D01*
X004974D01*
X004956Y007369D01*
X004938Y007361D01*
X004923Y007350D01*
X004912Y007335D01*
X004905Y007318D01*
X004902Y007299D01*
Y007292D01*
X004820D01*
X004797Y007289D01*
X004775Y007280D01*
X004756Y007266D01*
X004662Y007172D01*
X004660Y007172D01*
X004635Y007170D01*
X004610Y007162D01*
X004587Y007150D01*
X004568Y007134D01*
X004551Y007114D01*
X004539Y007092D01*
X004533Y007071D01*
X004521Y007064D01*
X004491Y007056D01*
X004483Y007064D01*
X004464Y007079D01*
X004442Y007088D01*
X004419Y007091D01*
X004394D01*
X004392Y007092D01*
X004373Y007109D01*
X004350Y007121D01*
X004325Y007128D01*
X004322Y007128D01*
X004311Y007170D01*
X004312Y007171D01*
X004381Y007240D01*
X004396Y007259D01*
X004405Y007281D01*
X004408Y007305D01*
X004405Y007329D01*
X004396Y007351D01*
X004381Y007370D01*
X004314Y007437D01*
X004303Y007446D01*
X004303Y007450D01*
X004295Y007474D01*
X004283Y007497D01*
X004267Y007517D01*
X004247Y007533D01*
X004225Y007545D01*
X004200Y007552D01*
X004175Y007555D01*
X004174Y007556D01*
X004157Y007593D01*
X004169Y007605D01*
X004177Y007618D01*
X004181Y007634D01*
X004181Y007634D01*
Y008175D01*
X004177Y008191D01*
X004169Y008204D01*
X004155Y008213D01*
X004140Y008216D01*
X004018D01*
X004014Y008220D01*
X004001Y008228D01*
X003985Y008232D01*
X003985Y008232D01*
X003978D01*
X003962Y008234D01*
X003950Y008239D01*
X003940Y008247D01*
X003932Y008257D01*
X003925Y008273D01*
X003924Y008279D01*
X003922Y008281D01*
X003922Y008283D01*
X003918Y008287D01*
X003915Y008292D01*
X003913Y008293D01*
X003911Y008295D01*
X003906Y008298D01*
X003902Y008301D01*
X003899Y008301D01*
X003897Y008302D01*
X003891Y008303D01*
X003886Y008304D01*
D02*
G37*
G36*
X001140Y008731D02*
X001115Y008728D01*
X001090Y008721D01*
X001067Y008709D01*
X001048Y008692D01*
X001031Y008673D01*
X001019Y008650D01*
X001012Y008625D01*
X001009Y008600D01*
X001012Y008575D01*
X001019Y008550D01*
X001031Y008527D01*
X001048Y008508D01*
X001067Y008491D01*
X001090Y008479D01*
X001115Y008472D01*
X001140Y008469D01*
X001165Y008472D01*
X001190Y008479D01*
X001213Y008491D01*
X001232Y008508D01*
X001249Y008527D01*
X001261Y008550D01*
X001268Y008575D01*
X001271Y008600D01*
X001268Y008625D01*
X001261Y008650D01*
X001249Y008673D01*
X001232Y008692D01*
X001213Y008709D01*
X001190Y008721D01*
X001165Y008728D01*
X001140Y008731D01*
D02*
G37*
G36*
X003550Y008531D02*
X003525Y008528D01*
X003500Y008521D01*
X003477Y008509D01*
X003458Y008492D01*
X003441Y008473D01*
X003429Y008450D01*
X003422Y008425D01*
X003419Y008400D01*
X003422Y008375D01*
X003429Y008350D01*
X003441Y008327D01*
X003458Y008308D01*
X003477Y008291D01*
X003500Y008279D01*
X003525Y008272D01*
X003550Y008269D01*
X003575Y008272D01*
X003600Y008279D01*
X003623Y008291D01*
X003642Y008308D01*
X003659Y008327D01*
X003671Y008350D01*
X003678Y008375D01*
X003681Y008400D01*
X003678Y008425D01*
X003671Y008450D01*
X003659Y008473D01*
X003642Y008492D01*
X003623Y008509D01*
X003600Y008521D01*
X003575Y008528D01*
X003550Y008531D01*
D02*
G37*
G36*
X005100Y009789D02*
X005055Y009785D01*
X005011Y009775D01*
X004969Y009757D01*
X004930Y009734D01*
X004896Y009704D01*
X004866Y009670D01*
X004843Y009631D01*
X004825Y009589D01*
X004815Y009545D01*
X004811Y009500D01*
X004815Y009455D01*
X004825Y009411D01*
X004843Y009369D01*
X004866Y009330D01*
X004896Y009296D01*
X004928Y009268D01*
X004929Y009261D01*
X004922Y009224D01*
X004915Y009222D01*
X004899Y009209D01*
X004869Y009179D01*
X004850Y009181D01*
X004825Y009178D01*
X004800Y009171D01*
X004777Y009159D01*
X004758Y009142D01*
X004741Y009123D01*
X004729Y009100D01*
X004722Y009075D01*
X004719Y009051D01*
X004716Y009049D01*
X004681Y009033D01*
X004353Y009361D01*
X004357Y009369D01*
X004375Y009411D01*
X004385Y009455D01*
X004389Y009500D01*
X004385Y009545D01*
X004375Y009589D01*
X004357Y009631D01*
X004334Y009670D01*
X004304Y009704D01*
X004270Y009734D01*
X004231Y009757D01*
X004189Y009775D01*
X004145Y009785D01*
X004100Y009789D01*
X004055Y009785D01*
X004011Y009775D01*
X003969Y009757D01*
X003930Y009734D01*
X003896Y009704D01*
X003866Y009670D01*
X003843Y009631D01*
X003825Y009589D01*
X003815Y009545D01*
X003811Y009500D01*
X003815Y009455D01*
X003825Y009411D01*
X003843Y009369D01*
X003866Y009330D01*
X003896Y009296D01*
X003930Y009266D01*
X003969Y009243D01*
X004011Y009225D01*
X004055Y009215D01*
X004100Y009211D01*
X004145Y009215D01*
X004189Y009225D01*
X004231Y009243D01*
X004239Y009247D01*
X004575Y008911D01*
X004554Y008876D01*
X004545Y008878D01*
X004520Y008881D01*
X004495Y008878D01*
X004470Y008871D01*
X004447Y008859D01*
X004428Y008842D01*
X004411Y008823D01*
X004399Y008800D01*
X004392Y008775D01*
X004389Y008750D01*
X004392Y008725D01*
X004399Y008700D01*
X004411Y008677D01*
X004428Y008658D01*
X004429Y008656D01*
Y008598D01*
X004432Y008574D01*
X004441Y008552D01*
X004456Y008534D01*
X004581Y008408D01*
X004584Y008406D01*
X004570Y008366D01*
X004516D01*
Y008377D01*
X004513Y008401D01*
X004504Y008423D01*
X004489Y008442D01*
X004470Y008457D01*
X004448Y008466D01*
X004424Y008469D01*
X004326D01*
X004302Y008466D01*
X004280Y008457D01*
X004261Y008442D01*
X004246Y008423D01*
X004237Y008401D01*
X004234Y008377D01*
Y008283D01*
X004237Y008259D01*
X004246Y008237D01*
X004260Y008219D01*
X004261Y008217D01*
Y008173D01*
X004260Y008171D01*
X004246Y008153D01*
X004237Y008131D01*
X004234Y008107D01*
Y008013D01*
X004237Y007989D01*
X004246Y007967D01*
X004260Y007949D01*
X004261Y007947D01*
Y007903D01*
X004260Y007901D01*
X004246Y007883D01*
X004237Y007861D01*
X004234Y007837D01*
Y007743D01*
X004237Y007719D01*
X004246Y007697D01*
X004261Y007678D01*
X004280Y007663D01*
X004302Y007654D01*
X004326Y007651D01*
X004424D01*
X004448Y007654D01*
X004457Y007658D01*
X004463Y007658D01*
X004493Y007647D01*
X004504Y007638D01*
X004505Y007635D01*
X004517Y007612D01*
X004533Y007592D01*
X004553Y007576D01*
X004576Y007564D01*
X004586Y007561D01*
X004591Y007542D01*
X004588Y007518D01*
X004573Y007510D01*
X004553Y007494D01*
X004537Y007474D01*
X004525Y007452D01*
X004518Y007427D01*
X004515Y007402D01*
X004518Y007376D01*
X004525Y007352D01*
X004537Y007329D01*
X004553Y007309D01*
X004573Y007293D01*
X004596Y007281D01*
X004620Y007273D01*
X004646Y007271D01*
X004671Y007273D01*
X004696Y007281D01*
X004718Y007293D01*
X004738Y007309D01*
X004754Y007329D01*
X004766Y007352D01*
X004774Y007376D01*
X004774Y007382D01*
X004819D01*
X004838Y007385D01*
X004855Y007392D01*
X004870Y007403D01*
X004881Y007418D01*
X004889Y007436D01*
X004891Y007454D01*
Y007522D01*
X004889Y007540D01*
X004881Y007558D01*
X004870Y007572D01*
Y007600D01*
X004881Y007615D01*
X004889Y007632D01*
X004891Y007651D01*
Y007718D01*
X004889Y007737D01*
X004881Y007754D01*
X004870Y007769D01*
Y007797D01*
X004881Y007812D01*
X004889Y007829D01*
X004891Y007848D01*
Y007915D01*
X004889Y007934D01*
X004881Y007951D01*
X004870Y007966D01*
Y007994D01*
X004881Y008009D01*
X004889Y008026D01*
X004891Y008045D01*
Y008112D01*
X004889Y008131D01*
X004881Y008148D01*
X004870Y008163D01*
Y008191D01*
X004881Y008206D01*
X004889Y008223D01*
X004891Y008242D01*
Y008309D01*
X004889Y008328D01*
X004881Y008345D01*
X004870Y008360D01*
Y008388D01*
X004881Y008402D01*
X004889Y008420D01*
X004891Y008438D01*
Y008506D01*
X004889Y008524D01*
X004881Y008542D01*
X004870Y008557D01*
X004855Y008568D01*
X004838Y008575D01*
X004819Y008578D01*
X004744D01*
X004725Y008575D01*
X004708Y008568D01*
X004701Y008563D01*
X004683D01*
X004624Y008622D01*
X004612Y008658D01*
X004629Y008677D01*
X004641Y008700D01*
X004648Y008725D01*
X004651Y008750D01*
X004648Y008775D01*
X004646Y008784D01*
X004681Y008805D01*
X004844Y008641D01*
X004861Y008629D01*
X004881Y008621D01*
X004902Y008618D01*
X004917D01*
X004923Y008610D01*
X004938Y008599D01*
X004956Y008591D01*
X004974Y008589D01*
X005042D01*
X005060Y008591D01*
X005078Y008599D01*
X005092Y008610D01*
X005120D01*
X005135Y008599D01*
X005152Y008591D01*
X005171Y008589D01*
X005239D01*
X005257Y008591D01*
X005274Y008599D01*
X005289Y008610D01*
X005317D01*
X005332Y008599D01*
X005349Y008591D01*
X005368Y008589D01*
X005435D01*
X005454Y008591D01*
X005471Y008599D01*
X005486Y008610D01*
X005498Y008625D01*
X005505Y008642D01*
X005507Y008661D01*
Y008676D01*
X005508Y008676D01*
X005522Y008695D01*
X005531Y008717D01*
X005534Y008740D01*
Y008813D01*
X005536Y008814D01*
X005552Y008834D01*
X005564Y008857D01*
X005572Y008881D01*
X005574Y008907D01*
X005572Y008932D01*
X005564Y008957D01*
X005552Y008979D01*
X005536Y008999D01*
X005516Y009015D01*
X005493Y009027D01*
X005469Y009035D01*
X005443Y009037D01*
X005418Y009035D01*
X005393Y009027D01*
X005371Y009015D01*
X005351Y008999D01*
X005335Y008979D01*
X005323Y008957D01*
X005315Y008932D01*
X005313Y008907D01*
X005312Y008895D01*
X005304Y008893D01*
X005267Y008896D01*
X005262Y008902D01*
X005245Y008915D01*
X005226Y008923D01*
X005213Y008925D01*
X005212Y008943D01*
X005204Y008967D01*
X005192Y008990D01*
X005176Y009010D01*
X005156Y009026D01*
X005146Y009031D01*
X005156Y009071D01*
X005244D01*
X005265Y009074D01*
X005285Y009082D01*
X005301Y009095D01*
X005416Y009209D01*
X005595D01*
X005785Y009019D01*
X005777Y008988D01*
X005771Y008977D01*
X005750Y008971D01*
X005727Y008959D01*
X005708Y008942D01*
X005691Y008923D01*
X005679Y008900D01*
X005672Y008875D01*
X005669Y008850D01*
X005672Y008825D01*
X005679Y008800D01*
X005691Y008777D01*
X005698Y008769D01*
X005692Y008755D01*
X005690Y008736D01*
Y008661D01*
X005692Y008642D01*
X005699Y008625D01*
X005711Y008610D01*
X005726Y008599D01*
X005743Y008591D01*
X005762Y008589D01*
X005829D01*
X005848Y008591D01*
X005865Y008599D01*
X005880Y008610D01*
X005908D01*
X005922Y008599D01*
X005940Y008591D01*
X005958Y008589D01*
X006026D01*
X006044Y008591D01*
X006062Y008599D01*
X006077Y008610D01*
X006088Y008625D01*
X006095Y008642D01*
X006098Y008661D01*
Y008736D01*
X006095Y008755D01*
X006088Y008772D01*
X006077Y008787D01*
X006071Y008792D01*
Y008929D01*
X006068Y008950D01*
X006060Y008969D01*
X006047Y008986D01*
X005686Y009347D01*
X005669Y009360D01*
X005650Y009368D01*
X005629Y009371D01*
X005532D01*
X005518Y009398D01*
X005516Y009411D01*
X005530Y009427D01*
X005542Y009450D01*
X005549Y009475D01*
X005552Y009500D01*
X005549Y009525D01*
X005542Y009550D01*
X005530Y009573D01*
X005514Y009592D01*
X005494Y009609D01*
X005471Y009621D01*
X005447Y009628D01*
X005421Y009631D01*
X005396Y009628D01*
X005371Y009621D01*
X005360Y009625D01*
X005357Y009631D01*
X005334Y009670D01*
X005304Y009704D01*
X005270Y009734D01*
X005231Y009757D01*
X005189Y009775D01*
X005145Y009785D01*
X005100Y009789D01*
D02*
G37*
G36*
X006100D02*
X006055Y009785D01*
X006011Y009775D01*
X005969Y009757D01*
X005930Y009734D01*
X005896Y009704D01*
X005866Y009670D01*
X005843Y009631D01*
X005825Y009589D01*
X005815Y009545D01*
X005811Y009500D01*
X005815Y009455D01*
X005825Y009411D01*
X005843Y009369D01*
X005866Y009330D01*
X005896Y009296D01*
X005930Y009266D01*
X005969Y009243D01*
X006011Y009225D01*
X006055Y009215D01*
X006100Y009211D01*
X006145Y009215D01*
X006189Y009225D01*
X006192Y009226D01*
X006208Y009208D01*
X006227Y009191D01*
X006250Y009179D01*
X006275Y009172D01*
X006300Y009169D01*
X006325Y009172D01*
X006350Y009179D01*
X006373Y009191D01*
X006392Y009208D01*
X006409Y009227D01*
X006421Y009250D01*
X006428Y009275D01*
X006431Y009300D01*
X006428Y009325D01*
X006421Y009350D01*
X006409Y009373D01*
X006392Y009392D01*
X006374Y009408D01*
X006375Y009411D01*
X006385Y009455D01*
X006389Y009500D01*
X006385Y009545D01*
X006375Y009589D01*
X006357Y009631D01*
X006334Y009670D01*
X006304Y009704D01*
X006270Y009734D01*
X006231Y009757D01*
X006189Y009775D01*
X006145Y009785D01*
X006100Y009789D01*
D02*
G37*
G36*
X002100D02*
X002055Y009785D01*
X002011Y009775D01*
X001969Y009757D01*
X001930Y009734D01*
X001896Y009704D01*
X001866Y009670D01*
X001843Y009631D01*
X001825Y009589D01*
X001815Y009545D01*
X001811Y009500D01*
X001815Y009455D01*
X001825Y009411D01*
X001843Y009369D01*
X001866Y009330D01*
X001896Y009296D01*
X001930Y009266D01*
X001969Y009243D01*
X002011Y009225D01*
X002055Y009215D01*
X002100Y009211D01*
X002145Y009215D01*
X002189Y009225D01*
X002231Y009243D01*
X002270Y009266D01*
X002304Y009296D01*
X002334Y009330D01*
X002357Y009369D01*
X002359Y009372D01*
X002379Y009379D01*
X002404Y009372D01*
X002429Y009369D01*
X002455Y009372D01*
X002479Y009379D01*
X002502Y009391D01*
X002521Y009408D01*
X002538Y009427D01*
X002550Y009450D01*
X002557Y009475D01*
X002560Y009500D01*
X002557Y009525D01*
X002550Y009550D01*
X002538Y009573D01*
X002521Y009592D01*
X002502Y009609D01*
X002479Y009621D01*
X002455Y009628D01*
X002429Y009631D01*
X002404Y009628D01*
X002379Y009621D01*
X002359Y009628D01*
X002357Y009631D01*
X002334Y009670D01*
X002304Y009704D01*
X002270Y009734D01*
X002231Y009757D01*
X002189Y009775D01*
X002145Y009785D01*
X002100Y009789D01*
D02*
G37*
G36*
X007388Y009788D02*
X006812D01*
Y009596D01*
X006808Y009592D01*
X006791Y009573D01*
X006779Y009550D01*
X006772Y009525D01*
X006769Y009500D01*
X006772Y009475D01*
X006779Y009450D01*
X006791Y009427D01*
X006808Y009408D01*
X006812Y009404D01*
Y009212D01*
X007388D01*
Y009788D01*
D02*
G37*
G36*
X002822Y009059D02*
X002796Y009056D01*
X002772Y009049D01*
X002749Y009037D01*
X002730Y009020D01*
X002713Y009001D01*
X002701Y008978D01*
X002694Y008954D01*
X002691Y008928D01*
X002694Y008903D01*
X002701Y008878D01*
X002713Y008855D01*
X002730Y008836D01*
X002749Y008819D01*
X002772Y008807D01*
X002796Y008800D01*
X002822Y008797D01*
X002847Y008800D01*
X002872Y008807D01*
X002895Y008819D01*
X002914Y008836D01*
X002931Y008855D01*
X002943Y008878D01*
X002950Y008903D01*
X002953Y008928D01*
X002950Y008954D01*
X002943Y008978D01*
X002931Y009001D01*
X002914Y009020D01*
X002895Y009037D01*
X002872Y009049D01*
X002847Y009056D01*
X002822Y009059D01*
D02*
G37*
G36*
X003100Y009789D02*
X003055Y009785D01*
X003011Y009775D01*
X002969Y009757D01*
X002930Y009734D01*
X002896Y009704D01*
X002866Y009670D01*
X002843Y009631D01*
X002825Y009589D01*
X002815Y009545D01*
X002811Y009500D01*
X002815Y009455D01*
X002825Y009411D01*
X002843Y009369D01*
X002866Y009330D01*
X002896Y009296D01*
X002930Y009266D01*
X002969Y009243D01*
X003011Y009225D01*
X003055Y009215D01*
X003100Y009211D01*
X003145Y009215D01*
X003179Y009223D01*
X003219Y009201D01*
Y008852D01*
X003208Y008842D01*
X003191Y008823D01*
X003179Y008800D01*
X003172Y008775D01*
X003163Y008768D01*
X003130Y008755D01*
X003119Y008761D01*
X003095Y008768D01*
X003069Y008771D01*
X003044Y008768D01*
X003019Y008761D01*
X002997Y008749D01*
X002977Y008732D01*
X002961Y008713D01*
X002949Y008690D01*
X002941Y008666D01*
X002939Y008640D01*
X002941Y008615D01*
X002949Y008590D01*
X002961Y008567D01*
X002977Y008548D01*
X002997Y008531D01*
X003019Y008519D01*
X003044Y008512D01*
X003069Y008509D01*
X003095Y008512D01*
X003119Y008519D01*
X003142Y008531D01*
X003162Y008548D01*
X003178Y008567D01*
X003190Y008590D01*
X003197Y008615D01*
X003206Y008622D01*
X003240Y008635D01*
X003250Y008629D01*
X003275Y008622D01*
X003300Y008619D01*
X003325Y008622D01*
X003350Y008629D01*
X003373Y008641D01*
X003392Y008658D01*
X003409Y008677D01*
X003421Y008700D01*
X003428Y008725D01*
X003431Y008750D01*
X003428Y008775D01*
X003421Y008800D01*
X003409Y008823D01*
X003392Y008842D01*
X003381Y008852D01*
Y009400D01*
X003378Y009421D01*
X003377Y009422D01*
X003385Y009455D01*
X003389Y009500D01*
X003385Y009545D01*
X003375Y009589D01*
X003357Y009631D01*
X003334Y009670D01*
X003304Y009704D01*
X003270Y009734D01*
X003231Y009757D01*
X003189Y009775D01*
X003145Y009785D01*
X003100Y009789D01*
D02*
G37*
G36*
X008400Y009736D02*
X008356Y009733D01*
X008313Y009725D01*
X008271Y009710D01*
X008232Y009691D01*
X008195Y009667D01*
X008162Y009638D01*
X008133Y009605D01*
X008109Y009568D01*
X008090Y009529D01*
X008075Y009487D01*
X008067Y009444D01*
X008064Y009400D01*
X008067Y009356D01*
X008075Y009313D01*
X008090Y009271D01*
X008109Y009232D01*
X008133Y009195D01*
X008162Y009162D01*
X008195Y009133D01*
X008232Y009109D01*
X008271Y009090D01*
X008313Y009075D01*
X008356Y009067D01*
X008400Y009064D01*
X008444Y009067D01*
X008487Y009075D01*
X008529Y009090D01*
X008568Y009109D01*
X008605Y009133D01*
X008638Y009162D01*
X008667Y009195D01*
X008691Y009232D01*
X008710Y009271D01*
X008725Y009313D01*
X008733Y009356D01*
X008736Y009400D01*
X008733Y009444D01*
X008725Y009487D01*
X008710Y009529D01*
X008691Y009568D01*
X008667Y009605D01*
X008638Y009638D01*
X008605Y009667D01*
X008568Y009691D01*
X008529Y009710D01*
X008487Y009725D01*
X008444Y009733D01*
X008400Y009736D01*
D02*
G37*
G36*
X002300Y009031D02*
X002275Y009028D01*
X002250Y009021D01*
X002227Y009009D01*
X002208Y008992D01*
X002191Y008973D01*
X002179Y008950D01*
X002172Y008925D01*
X002170Y008911D01*
X002132Y008900D01*
X002120Y008923D01*
X002104Y008942D01*
X002084Y008959D01*
X002061Y008971D01*
X002037Y008978D01*
X002011Y008981D01*
X001986Y008978D01*
X001961Y008971D01*
X001939Y008959D01*
X001919Y008942D01*
X001903Y008923D01*
X001890Y008900D01*
X001883Y008875D01*
X001881Y008850D01*
X001883Y008825D01*
X001890Y008800D01*
X001903Y008777D01*
X001919Y008758D01*
X001939Y008741D01*
X001941Y008733D01*
X001937Y008697D01*
X001927Y008691D01*
X001908Y008675D01*
X001891Y008655D01*
X001879Y008633D01*
X001872Y008608D01*
X001834Y008615D01*
X001833Y008625D01*
X001825Y008650D01*
X001813Y008673D01*
X001797Y008692D01*
X001777Y008709D01*
X001754Y008721D01*
X001730Y008728D01*
X001704Y008731D01*
X001679Y008728D01*
X001654Y008721D01*
X001632Y008709D01*
X001612Y008692D01*
X001596Y008673D01*
X001584Y008650D01*
X001576Y008625D01*
X001574Y008600D01*
X001576Y008575D01*
X001584Y008550D01*
X001596Y008527D01*
X001612Y008508D01*
X001632Y008491D01*
X001654Y008479D01*
X001679Y008472D01*
X001704Y008469D01*
X001730Y008472D01*
X001754Y008479D01*
X001777Y008491D01*
X001797Y008508D01*
X001813Y008527D01*
X001825Y008550D01*
X001833Y008575D01*
X001871Y008568D01*
X001872Y008557D01*
X001879Y008533D01*
X001891Y008510D01*
X001908Y008490D01*
X001927Y008474D01*
X001950Y008462D01*
X001975Y008455D01*
X002000Y008452D01*
X002025Y008455D01*
X002050Y008462D01*
X002073Y008474D01*
X002092Y008490D01*
X002109Y008510D01*
X002121Y008533D01*
X002128Y008557D01*
X002131Y008583D01*
X002128Y008608D01*
X002121Y008633D01*
X002109Y008655D01*
X002092Y008675D01*
X002073Y008691D01*
X002070Y008699D01*
X002074Y008736D01*
X002084Y008741D01*
X002104Y008758D01*
X002120Y008777D01*
X002132Y008800D01*
X002139Y008825D01*
X002141Y008839D01*
X002179Y008850D01*
X002191Y008827D01*
X002208Y008808D01*
X002227Y008791D01*
X002250Y008779D01*
X002275Y008772D01*
X002300Y008769D01*
X002325Y008772D01*
X002350Y008779D01*
X002373Y008791D01*
X002392Y008808D01*
X002409Y008827D01*
X002421Y008850D01*
X002428Y008875D01*
X002431Y008900D01*
X002428Y008925D01*
X002421Y008950D01*
X002409Y008973D01*
X002392Y008992D01*
X002373Y009009D01*
X002350Y009021D01*
X002325Y009028D01*
X002300Y009031D01*
D02*
G37*
G36*
X002086Y007996D02*
X001973D01*
X001947Y007993D01*
X001923Y007983D01*
X001902Y007967D01*
X001886Y007946D01*
X001876Y007922D01*
X001873Y007896D01*
Y007359D01*
X001532Y007019D01*
X001514Y006997D01*
X001501Y006973D01*
X001493Y006946D01*
X001490Y006919D01*
X001493Y006892D01*
X001501Y006865D01*
X001514Y006841D01*
X001532Y006820D01*
X001553Y006802D01*
X001577Y006789D01*
X001604Y006781D01*
X001631Y006778D01*
X001659Y006781D01*
X001685Y006789D01*
X001709Y006802D01*
X001731Y006820D01*
X002015Y007104D01*
X002086D01*
X002112Y007107D01*
X002136Y007117D01*
X002157Y007133D01*
X002173Y007154D01*
X002183Y007178D01*
X002187Y007204D01*
Y007896D01*
X002183Y007922D01*
X002173Y007946D01*
X002157Y007967D01*
X002136Y007983D01*
X002112Y007993D01*
X002086Y007996D01*
D02*
G37*
G36*
X002100Y006789D02*
X002055Y006785D01*
X002011Y006775D01*
X001969Y006757D01*
X001930Y006734D01*
X001896Y006704D01*
X001866Y006670D01*
X001843Y006631D01*
X001825Y006589D01*
X001818Y006559D01*
X001786Y006543D01*
X001774Y006543D01*
X001773Y006544D01*
X001750Y006556D01*
X001725Y006564D01*
X001700Y006566D01*
X001675Y006564D01*
X001650Y006556D01*
X001627Y006544D01*
X001608Y006528D01*
X001591Y006508D01*
X001579Y006486D01*
X001572Y006461D01*
X001569Y006436D01*
X001572Y006410D01*
X001579Y006386D01*
X001591Y006363D01*
X001608Y006343D01*
X001627Y006327D01*
X001650Y006315D01*
X001675Y006307D01*
X001700Y006305D01*
X001725Y006307D01*
X001750Y006315D01*
X001773Y006327D01*
X001781Y006334D01*
X001811Y006327D01*
X001816Y006325D01*
X001824Y006318D01*
X001829Y006300D01*
X001841Y006277D01*
X001858Y006258D01*
X001877Y006241D01*
X001900Y006229D01*
X001925Y006222D01*
X001950Y006219D01*
X001975Y006222D01*
X002000Y006229D01*
X002000Y006230D01*
X002011Y006225D01*
X002055Y006215D01*
X002100Y006211D01*
X002145Y006215D01*
X002189Y006225D01*
X002231Y006243D01*
X002270Y006266D01*
X002304Y006296D01*
X002334Y006330D01*
X002357Y006369D01*
X002375Y006411D01*
X002385Y006455D01*
X002389Y006500D01*
X002385Y006545D01*
X002375Y006589D01*
X002357Y006631D01*
X002334Y006670D01*
X002304Y006704D01*
X002270Y006734D01*
X002231Y006757D01*
X002189Y006775D01*
X002145Y006785D01*
X002100Y006789D01*
D02*
G37*
G36*
X007278Y007016D02*
X007252Y007013D01*
X007228Y007006D01*
X007205Y006994D01*
X007185Y006978D01*
X007169Y006958D01*
X007157Y006935D01*
X007149Y006911D01*
X007147Y006885D01*
X007149Y006860D01*
X007157Y006835D01*
X007164Y006822D01*
X007151Y006796D01*
X007139Y006786D01*
X007100Y006789D01*
X007055Y006785D01*
X007011Y006775D01*
X006969Y006757D01*
X006930Y006734D01*
X006896Y006704D01*
X006866Y006670D01*
X006843Y006631D01*
X006825Y006589D01*
X006815Y006545D01*
X006811Y006500D01*
X006815Y006455D01*
X006825Y006411D01*
X006843Y006369D01*
X006866Y006330D01*
X006872Y006323D01*
X006879Y006300D01*
X006891Y006277D01*
X006908Y006258D01*
X006927Y006241D01*
X006950Y006229D01*
X006975Y006222D01*
X007000Y006219D01*
X007025Y006222D01*
X007055Y006215D01*
X007100Y006211D01*
X007145Y006215D01*
X007189Y006225D01*
X007231Y006243D01*
X007270Y006266D01*
X007304Y006296D01*
X007334Y006330D01*
X007357Y006369D01*
X007375Y006411D01*
X007385Y006455D01*
X007389Y006500D01*
X007385Y006545D01*
X007375Y006589D01*
X007357Y006631D01*
X007334Y006670D01*
X007304Y006704D01*
X007291Y006716D01*
X007303Y006757D01*
X007328Y006765D01*
X007350Y006777D01*
X007370Y006793D01*
X007386Y006813D01*
X007398Y006835D01*
X007406Y006860D01*
X007408Y006885D01*
X007406Y006911D01*
X007398Y006935D01*
X007386Y006958D01*
X007370Y006978D01*
X007350Y006994D01*
X007328Y007006D01*
X007303Y007013D01*
X007278Y007016D01*
D02*
G37*
G36*
X006300Y007031D02*
X006275Y007028D01*
X006250Y007021D01*
X006227Y007009D01*
X006208Y006992D01*
X006191Y006973D01*
X006179Y006950D01*
X006172Y006925D01*
X006169Y006900D01*
X006172Y006875D01*
X006179Y006850D01*
X006191Y006827D01*
X006174Y006786D01*
X006166Y006780D01*
X006145Y006785D01*
X006100Y006789D01*
X006055Y006785D01*
X006011Y006775D01*
X005969Y006757D01*
X005930Y006734D01*
X005896Y006704D01*
X005866Y006670D01*
X005843Y006631D01*
X005825Y006589D01*
X005815Y006545D01*
X005813Y006523D01*
X005784Y006508D01*
X005771Y006504D01*
X005752Y006515D01*
X005727Y006522D01*
X005702Y006525D01*
X005676Y006522D01*
X005652Y006515D01*
X005629Y006503D01*
X005610Y006486D01*
X005593Y006467D01*
X005581Y006444D01*
X005574Y006420D01*
X005571Y006394D01*
X005574Y006369D01*
X005581Y006344D01*
X005593Y006322D01*
X005610Y006302D01*
X005629Y006285D01*
X005631Y006284D01*
Y006181D01*
X005372Y005922D01*
X005324Y005931D01*
X005304Y005954D01*
X005270Y005984D01*
X005231Y006007D01*
X005189Y006025D01*
X005145Y006035D01*
X005100Y006039D01*
X005055Y006035D01*
X005011Y006025D01*
X004969Y006007D01*
X004930Y005984D01*
X004896Y005954D01*
X004866Y005920D01*
X004843Y005881D01*
X004825Y005839D01*
X004815Y005795D01*
X004811Y005750D01*
X004815Y005705D01*
X004825Y005661D01*
X004843Y005619D01*
X004866Y005580D01*
X004896Y005546D01*
X004930Y005516D01*
X004969Y005493D01*
X005011Y005475D01*
X005055Y005465D01*
X005100Y005461D01*
X005145Y005465D01*
X005189Y005475D01*
X005231Y005493D01*
X005270Y005516D01*
X005304Y005546D01*
X005334Y005580D01*
X005357Y005619D01*
X005375Y005661D01*
X005385Y005705D01*
X005388Y005738D01*
X005752Y006102D01*
X005752Y006102D01*
X005763Y006117D01*
X005770Y006134D01*
X005773Y006152D01*
X005773Y006152D01*
Y006284D01*
X005775Y006285D01*
X005794Y006302D01*
X005802Y006311D01*
X005826Y006313D01*
X005837Y006312D01*
X005849Y006308D01*
X005855Y006300D01*
X005877Y006277D01*
X005877Y006277D01*
X005892Y006266D01*
X005909Y006259D01*
X005927Y006257D01*
X005943Y006259D01*
X005969Y006243D01*
X005997Y006231D01*
X006000Y006229D01*
X006003Y006228D01*
X006011Y006225D01*
X006024Y006222D01*
X006025Y006222D01*
X006025Y006222D01*
X006055Y006215D01*
X006100Y006211D01*
X006145Y006215D01*
X006189Y006225D01*
X006231Y006243D01*
X006270Y006266D01*
X006304Y006296D01*
X006334Y006330D01*
X006357Y006369D01*
X006375Y006411D01*
X006385Y006455D01*
X006389Y006500D01*
X006385Y006545D01*
X006375Y006589D01*
X006357Y006631D01*
X006334Y006670D01*
X006304Y006704D01*
X006270Y006734D01*
X006286Y006771D01*
X006300Y006769D01*
X006325Y006772D01*
X006350Y006779D01*
X006373Y006791D01*
X006392Y006808D01*
X006409Y006827D01*
X006421Y006850D01*
X006428Y006875D01*
X006431Y006900D01*
X006428Y006925D01*
X006421Y006950D01*
X006409Y006973D01*
X006392Y006992D01*
X006373Y007009D01*
X006350Y007021D01*
X006325Y007028D01*
X006300Y007031D01*
D02*
G37*
G36*
X002100Y006039D02*
X002055Y006035D01*
X002011Y006025D01*
X001969Y006007D01*
X001930Y005984D01*
X001896Y005954D01*
X001866Y005920D01*
X001843Y005881D01*
X001834Y005861D01*
X001469D01*
X001450Y005871D01*
X001425Y005878D01*
X001400Y005881D01*
X001375Y005878D01*
X001350Y005871D01*
X001327Y005859D01*
X001308Y005842D01*
X001291Y005823D01*
X001279Y005800D01*
X001272Y005775D01*
X001269Y005750D01*
X001272Y005725D01*
X001279Y005700D01*
X001291Y005677D01*
X001308Y005658D01*
X001327Y005641D01*
X001350Y005629D01*
X001375Y005622D01*
X001400Y005619D01*
X001425Y005622D01*
X001450Y005629D01*
X001473Y005641D01*
X001492Y005658D01*
X001509Y005677D01*
X001510Y005679D01*
X001821D01*
X001825Y005661D01*
X001843Y005619D01*
X001866Y005580D01*
X001896Y005546D01*
X001930Y005516D01*
X001969Y005493D01*
X002011Y005475D01*
X002055Y005465D01*
X002100Y005461D01*
X002145Y005465D01*
X002189Y005475D01*
X002231Y005493D01*
X002270Y005516D01*
X002304Y005546D01*
X002334Y005580D01*
X002357Y005619D01*
X002375Y005661D01*
X002385Y005705D01*
X002389Y005750D01*
X002385Y005795D01*
X002375Y005839D01*
X002357Y005881D01*
X002334Y005920D01*
X002304Y005954D01*
X002270Y005984D01*
X002231Y006007D01*
X002189Y006025D01*
X002145Y006035D01*
X002100Y006039D01*
D02*
G37*
G36*
X007599Y006470D02*
X007573Y006468D01*
X007549Y006460D01*
X007526Y006448D01*
X007506Y006432D01*
X007490Y006412D01*
X007478Y006390D01*
X007471Y006365D01*
X007468Y006340D01*
X007471Y006314D01*
X007478Y006290D01*
X007490Y006267D01*
X007506Y006247D01*
X007508Y006246D01*
Y006189D01*
X007357Y006038D01*
X006812D01*
Y005462D01*
X007388D01*
Y005812D01*
X007663Y006087D01*
X007677Y006106D01*
X007686Y006128D01*
X007690Y006151D01*
Y006246D01*
X007691Y006247D01*
X007707Y006267D01*
X007720Y006290D01*
X007727Y006314D01*
X007729Y006340D01*
X007727Y006365D01*
X007720Y006390D01*
X007707Y006412D01*
X007691Y006432D01*
X007671Y006448D01*
X007649Y006460D01*
X007624Y006468D01*
X007599Y006470D01*
D02*
G37*
G36*
X006561Y006520D02*
X006535Y006517D01*
X006511Y006510D01*
X006488Y006498D01*
X006469Y006481D01*
X006452Y006462D01*
X006440Y006439D01*
X006433Y006415D01*
X006430Y006389D01*
X006433Y006364D01*
X006440Y006339D01*
X006452Y006316D01*
X006469Y006297D01*
X006488Y006280D01*
X006511Y006268D01*
X006535Y006261D01*
X006561Y006258D01*
X006586Y006261D01*
X006611Y006268D01*
X006634Y006280D01*
X006653Y006297D01*
X006670Y006316D01*
X006682Y006339D01*
X006689Y006364D01*
X006692Y006389D01*
X006689Y006415D01*
X006682Y006439D01*
X006670Y006462D01*
X006653Y006481D01*
X006634Y006498D01*
X006611Y006510D01*
X006586Y006517D01*
X006561Y006520D01*
D02*
G37*
G36*
X004100Y006789D02*
X004055Y006785D01*
X004011Y006775D01*
X003969Y006757D01*
X003930Y006734D01*
X003896Y006704D01*
X003866Y006670D01*
X003843Y006631D01*
X003825Y006589D01*
X003815Y006545D01*
X003811Y006500D01*
X003815Y006455D01*
X003825Y006411D01*
X003843Y006369D01*
X003866Y006330D01*
X003896Y006296D01*
X003923Y006273D01*
X003917Y006245D01*
X003909Y006233D01*
X003430D01*
X003425Y006272D01*
X003450Y006279D01*
X003473Y006291D01*
X003492Y006308D01*
X003509Y006327D01*
X003521Y006350D01*
X003528Y006375D01*
X003531Y006400D01*
X003528Y006425D01*
X003521Y006450D01*
X003509Y006473D01*
X003492Y006492D01*
X003473Y006509D01*
X003450Y006521D01*
X003425Y006528D01*
X003400Y006531D01*
X003386Y006543D01*
X003385Y006545D01*
X003375Y006589D01*
X003357Y006631D01*
X003334Y006670D01*
X003304Y006704D01*
X003270Y006734D01*
X003231Y006757D01*
X003189Y006775D01*
X003145Y006785D01*
X003100Y006789D01*
X003055Y006785D01*
X003011Y006775D01*
X002969Y006757D01*
X002930Y006734D01*
X002896Y006704D01*
X002866Y006670D01*
X002843Y006631D01*
X002825Y006589D01*
X002815Y006545D01*
X002811Y006500D01*
X002815Y006455D01*
X002825Y006411D01*
X002843Y006369D01*
X002866Y006330D01*
X002896Y006296D01*
X002914Y006280D01*
X002901Y006241D01*
X002873Y006242D01*
X002871Y006250D01*
X002859Y006273D01*
X002842Y006292D01*
X002823Y006309D01*
X002800Y006321D01*
X002775Y006328D01*
X002750Y006331D01*
X002725Y006328D01*
X002700Y006321D01*
X002677Y006309D01*
X002658Y006292D01*
X002641Y006273D01*
X002629Y006250D01*
X002622Y006225D01*
X002619Y006200D01*
X002622Y006175D01*
X002629Y006150D01*
X002641Y006127D01*
X002658Y006108D01*
X002677Y006091D01*
X002700Y006079D01*
X002725Y006072D01*
X002750Y006069D01*
X002775Y006072D01*
X002800Y006079D01*
X002823Y006091D01*
X004259D01*
X004356Y005994D01*
X004343Y005958D01*
X004304Y005954D01*
X004304Y005954D01*
X004270Y005984D01*
X004231Y006007D01*
X004189Y006025D01*
X004145Y006035D01*
X004100Y006039D01*
X004055Y006035D01*
X004011Y006025D01*
X003969Y006007D01*
X003930Y005984D01*
X003896Y005954D01*
X003866Y005920D01*
X003843Y005881D01*
X003825Y005839D01*
X003815Y005795D01*
X003811Y005750D01*
X003815Y005705D01*
X003825Y005661D01*
X003843Y005619D01*
X003866Y005580D01*
X003896Y005546D01*
X003930Y005516D01*
X003969Y005493D01*
X004011Y005475D01*
X004055Y005465D01*
X004100Y005461D01*
X004145Y005465D01*
X004189Y005475D01*
X004231Y005493D01*
X004270Y005516D01*
X004304Y005546D01*
X004334Y005580D01*
X004357Y005619D01*
X004375Y005661D01*
X004383Y005697D01*
X004398Y005701D01*
X004421Y005713D01*
X004441Y005730D01*
X004457Y005749D01*
X004460Y005755D01*
X004503Y005760D01*
X004506Y005759D01*
X004508Y005758D01*
X004527Y005741D01*
X004550Y005729D01*
X004575Y005722D01*
X004600Y005719D01*
X004625Y005722D01*
X004650Y005729D01*
X004673Y005741D01*
X004692Y005758D01*
X004709Y005777D01*
X004721Y005800D01*
X004728Y005825D01*
X004731Y005850D01*
X004728Y005875D01*
X004721Y005900D01*
X004709Y005923D01*
X004692Y005942D01*
X004673Y005959D01*
X004650Y005971D01*
X004625Y005978D01*
X004600Y005981D01*
X004575Y005978D01*
X004572Y005977D01*
X004338Y006212D01*
X004323Y006223D01*
X004306Y006230D01*
X004291Y006232D01*
X004283Y006244D01*
X004277Y006273D01*
X004304Y006296D01*
X004334Y006330D01*
X004357Y006369D01*
X004375Y006411D01*
X004385Y006455D01*
X004389Y006500D01*
X004385Y006545D01*
X004375Y006589D01*
X004357Y006631D01*
X004334Y006670D01*
X004304Y006704D01*
X004270Y006734D01*
X004231Y006757D01*
X004189Y006775D01*
X004145Y006785D01*
X004100Y006789D01*
D02*
G37*
G36*
X007000Y007981D02*
X006975Y007978D01*
X006950Y007971D01*
X006927Y007959D01*
X006908Y007942D01*
X006891Y007923D01*
X006879Y007900D01*
X006872Y007875D01*
X006869Y007850D01*
X006872Y007825D01*
X006879Y007800D01*
X006891Y007777D01*
X006908Y007758D01*
X006927Y007741D01*
X006950Y007729D01*
X006975Y007722D01*
X007000Y007719D01*
X007025Y007722D01*
X007050Y007729D01*
X007073Y007741D01*
X007092Y007758D01*
X007109Y007777D01*
X007121Y007800D01*
X007128Y007825D01*
X007131Y007850D01*
X007128Y007875D01*
X007121Y007900D01*
X007109Y007923D01*
X007092Y007942D01*
X007073Y007959D01*
X007050Y007971D01*
X007025Y007978D01*
X007000Y007981D01*
D02*
G37*
G36*
X006762Y007585D02*
X006651D01*
X006628Y007582D01*
X006605Y007573D01*
X006586Y007559D01*
X006572Y007539D01*
X006562Y007517D01*
X006559Y007493D01*
Y007399D01*
X006562Y007375D01*
X006572Y007353D01*
X006586Y007334D01*
X006602Y007322D01*
X006605Y007301D01*
X006605Y007290D01*
X006580Y007261D01*
X006555Y007258D01*
X006530Y007251D01*
X006507Y007239D01*
X006488Y007222D01*
X006471Y007203D01*
X006459Y007180D01*
X006452Y007155D01*
X006449Y007130D01*
X006452Y007105D01*
X006459Y007080D01*
X006471Y007057D01*
X006488Y007038D01*
X006507Y007021D01*
X006530Y007009D01*
X006555Y007002D01*
X006580Y006999D01*
X006605Y007002D01*
X006630Y007009D01*
X006631Y007010D01*
X006651Y007007D01*
X006762D01*
X006785Y007010D01*
X006808Y007019D01*
X006827Y007034D01*
X006841Y007053D01*
X006850Y007075D01*
X006854Y007099D01*
Y007193D01*
X006850Y007217D01*
X006841Y007239D01*
X006827Y007258D01*
X006808Y007273D01*
X006797Y007277D01*
Y007315D01*
X006808Y007319D01*
X006827Y007334D01*
X006841Y007353D01*
X006850Y007375D01*
X006854Y007399D01*
Y007493D01*
X006850Y007517D01*
X006841Y007539D01*
X006827Y007559D01*
X006808Y007573D01*
X006785Y007582D01*
X006762Y007585D01*
D02*
G37*
G36*
X009050Y007831D02*
X009025Y007828D01*
X009000Y007821D01*
X008977Y007809D01*
X008958Y007792D01*
X008941Y007773D01*
X008929Y007750D01*
X008925Y007734D01*
X008900Y007736D01*
X008856Y007733D01*
X008813Y007725D01*
X008771Y007710D01*
X008732Y007691D01*
X008695Y007667D01*
X008662Y007638D01*
X008633Y007605D01*
X008609Y007568D01*
X008590Y007529D01*
X008575Y007487D01*
X008567Y007444D01*
X008564Y007400D01*
X008567Y007356D01*
X008575Y007313D01*
X008590Y007271D01*
X008609Y007232D01*
X008633Y007195D01*
X008662Y007162D01*
X008695Y007133D01*
X008732Y007109D01*
X008771Y007090D01*
X008813Y007075D01*
X008856Y007067D01*
X008900Y007064D01*
X008944Y007067D01*
X008987Y007075D01*
X009029Y007090D01*
X009068Y007109D01*
X009105Y007133D01*
X009138Y007162D01*
X009167Y007195D01*
X009191Y007232D01*
X009210Y007271D01*
X009225Y007313D01*
X009233Y007356D01*
X009236Y007400D01*
X009233Y007444D01*
X009225Y007487D01*
X009210Y007529D01*
X009191Y007568D01*
X009167Y007605D01*
X009153Y007620D01*
X009159Y007627D01*
X009171Y007650D01*
X009178Y007675D01*
X009181Y007700D01*
X009178Y007725D01*
X009171Y007750D01*
X009159Y007773D01*
X009142Y007792D01*
X009123Y007809D01*
X009100Y007821D01*
X009075Y007828D01*
X009050Y007831D01*
D02*
G37*
G36*
X007600Y007131D02*
X007575Y007128D01*
X007550Y007121D01*
X007527Y007109D01*
X007508Y007092D01*
X007491Y007073D01*
X007479Y007050D01*
X007472Y007025D01*
X007469Y007000D01*
X007472Y006975D01*
X007479Y006950D01*
X007491Y006927D01*
X007508Y006908D01*
X007527Y006891D01*
X007550Y006879D01*
X007575Y006872D01*
X007600Y006869D01*
X007625Y006872D01*
X007650Y006879D01*
X007673Y006891D01*
X007692Y006908D01*
X007709Y006927D01*
X007721Y006950D01*
X007728Y006975D01*
X007731Y007000D01*
X007728Y007025D01*
X007721Y007050D01*
X007709Y007073D01*
X007692Y007092D01*
X007673Y007109D01*
X007650Y007121D01*
X007625Y007128D01*
X007600Y007131D01*
D02*
G37*
G36*
X003547Y007466D02*
X003453D01*
X003429Y007463D01*
X003407Y007454D01*
X003388Y007439D01*
X003373Y007420D01*
X003364Y007398D01*
X003361Y007374D01*
Y007276D01*
X003364Y007252D01*
X003373Y007230D01*
X003388Y007211D01*
X003407Y007196D01*
X003429Y007187D01*
X003429Y007187D01*
Y007126D01*
X003429Y007126D01*
X003432Y007107D01*
X003439Y007090D01*
X003450Y007076D01*
X003572Y006953D01*
X003566Y006915D01*
X003537Y006890D01*
X003536Y006890D01*
X003526Y006891D01*
X003511Y006889D01*
X003246Y007154D01*
X003245Y007171D01*
X003250Y007201D01*
X003262Y007211D01*
X003277Y007230D01*
X003286Y007252D01*
X003289Y007276D01*
Y007374D01*
X003286Y007398D01*
X003277Y007420D01*
X003262Y007439D01*
X003243Y007454D01*
X003221Y007463D01*
X003197Y007466D01*
X003103D01*
X003079Y007463D01*
X003057Y007454D01*
X003038Y007439D01*
X003023Y007420D01*
X003014Y007398D01*
X003011Y007374D01*
Y007276D01*
X003014Y007252D01*
X003023Y007230D01*
X003038Y007211D01*
X003057Y007196D01*
X003069Y007191D01*
Y007136D01*
X003072Y007115D01*
X003080Y007096D01*
X003093Y007079D01*
X003397Y006775D01*
X003396Y006760D01*
X003398Y006735D01*
X003406Y006710D01*
X003418Y006687D01*
X003434Y006668D01*
X003454Y006651D01*
X003476Y006639D01*
X003501Y006632D01*
X003526Y006629D01*
X003552Y006632D01*
X003576Y006639D01*
X003599Y006651D01*
X003619Y006668D01*
X003635Y006687D01*
X003647Y006710D01*
X003654Y006735D01*
X003657Y006760D01*
X003662Y006769D01*
X003691Y006794D01*
X003692Y006794D01*
X003702Y006793D01*
X003728Y006795D01*
X003752Y006803D01*
X003775Y006815D01*
X003794Y006831D01*
X003811Y006851D01*
X003823Y006874D01*
X003830Y006898D01*
X003833Y006923D01*
X003830Y006949D01*
X003823Y006973D01*
X003811Y006996D01*
X003794Y007016D01*
X003775Y007032D01*
X003752Y007044D01*
X003728Y007052D01*
X003702Y007054D01*
X003677Y007052D01*
X003675Y007051D01*
X003578Y007148D01*
X003576Y007155D01*
X003581Y007191D01*
X003593Y007196D01*
X003612Y007211D01*
X003627Y007230D01*
X003636Y007252D01*
X003639Y007276D01*
Y007374D01*
X003636Y007398D01*
X003627Y007420D01*
X003612Y007439D01*
X003593Y007454D01*
X003571Y007463D01*
X003547Y007466D01*
D02*
G37*
%LPD*%
G36*
X003887Y008259D02*
X003896Y008237D01*
X003911Y008218D01*
X003930Y008203D01*
X003952Y008194D01*
X003976Y008191D01*
X003985D01*
X004001Y008175D01*
X004140D01*
Y007634D01*
X004113Y007607D01*
X003133Y007600D01*
X003117Y007637D01*
X003743Y008263D01*
X003886D01*
X003887Y008259D01*
D02*
G37*
G36*
X004971Y007097D02*
X004975Y007074D01*
X004962Y007064D01*
X004790Y006892D01*
X004753Y006911D01*
X004751Y006924D01*
X004752Y006947D01*
X004755Y006952D01*
X004769Y006969D01*
X004781Y006992D01*
X004788Y007016D01*
X004791Y007042D01*
X004790Y007044D01*
X004858Y007111D01*
X004948D01*
X004963Y007113D01*
X004971Y007097D01*
D02*
G37*
G36*
X005600Y004643D02*
X005700Y004543D01*
Y003889D01*
X005666Y003869D01*
X005150Y004150D01*
Y004296D01*
X005204D01*
Y004494D01*
X005150D01*
Y004567D01*
X005159Y004577D01*
X005171Y004600D01*
X005178Y004625D01*
X005181Y004650D01*
X005178Y004675D01*
X005171Y004700D01*
X005170Y004701D01*
X005219Y004750D01*
X005600D01*
Y004643D01*
D02*
G37*
D10*
X002100Y009500D02*
D03*
X003100D02*
D03*
X004100D02*
D03*
X005100D02*
D03*
X006100D02*
D03*
X002100Y006500D02*
D03*
X003100D02*
D03*
X004100D02*
D03*
X005100D02*
D03*
X006100D02*
D03*
X007100D02*
D03*
X002100Y005750D02*
D03*
X003100D02*
D03*
X004100D02*
D03*
X005100D02*
D03*
X006100D02*
D03*
X002100Y002750D02*
D03*
X003100D02*
D03*
X004100D02*
D03*
X005100D02*
D03*
X006100D02*
D03*
X007100D02*
D03*
D11*
Y009500D02*
D03*
Y005750D02*
D03*
D12*
X009400Y009400D02*
D03*
Y008400D02*
D03*
X008900Y007400D02*
D03*
X008400Y008400D02*
D03*
Y009400D02*
D03*
D13*
X001900Y001412D02*
D03*
Y000888D02*
D03*
X002400D02*
D03*
Y001412D02*
D03*
X002900D02*
D03*
Y000888D02*
D03*
X003400D02*
D03*
Y001412D02*
D03*
X005700D02*
D03*
Y000888D02*
D03*
X006200D02*
D03*
Y001412D02*
D03*
X006700D02*
D03*
Y000888D02*
D03*
X007200D02*
D03*
Y001412D02*
D03*
D14*
X002673Y002158D02*
D03*
Y001820D02*
D03*
X003023Y002158D02*
D03*
Y001820D02*
D03*
X003323Y002158D02*
D03*
Y001820D02*
D03*
X005300Y004581D02*
D03*
Y004919D02*
D03*
D15*
X004037Y001945D02*
D03*
Y001748D02*
D03*
Y001552D02*
D03*
Y001355D02*
D03*
X005163D02*
D03*
Y001552D02*
D03*
Y001748D02*
D03*
X005163Y001945D02*
D03*
D16*
X004305Y001087D02*
D03*
X004502Y001087D02*
D03*
X004698D02*
D03*
X004895Y001087D02*
D03*
Y002213D02*
D03*
X004698Y002213D02*
D03*
X004502D02*
D03*
X004305Y002213D02*
D03*
D17*
X004600Y001650D02*
D03*
D18*
X008300Y006200D02*
D03*
Y005200D02*
D03*
Y004200D02*
D03*
Y003200D02*
D03*
Y002200D02*
D03*
Y001200D02*
D03*
D19*
X003864Y004474D02*
D03*
X004215D02*
D03*
X004225Y004150D02*
D03*
X003875D02*
D03*
X004025Y008330D02*
D03*
X004375D02*
D03*
Y008060D02*
D03*
X004025D02*
D03*
X004375Y007790D02*
D03*
X004025D02*
D03*
D20*
X004800Y004439D02*
D03*
Y003761D02*
D03*
D21*
X005050Y004198D02*
D03*
Y004002D02*
D03*
X004550D02*
D03*
Y004198D02*
D03*
D22*
Y004395D02*
D03*
Y003805D02*
D03*
X005050D02*
D03*
Y004395D02*
D03*
D23*
X005531Y004450D02*
D03*
X005869D02*
D03*
X005531Y004100D02*
D03*
X005869D02*
D03*
X006706Y007146D02*
D03*
X007045D02*
D03*
X006706Y007446D02*
D03*
X007045D02*
D03*
D24*
X002030Y007550D02*
D03*
X002470D02*
D03*
D25*
X003150Y007325D02*
D03*
Y007675D02*
D03*
X003500Y007325D02*
D03*
Y007675D02*
D03*
D26*
X004000Y007056D02*
D03*
X004248Y007304D02*
D03*
D27*
X005992Y008698D02*
D03*
X005795D02*
D03*
X005598D02*
D03*
X005402D02*
D03*
X005205D02*
D03*
X005008D02*
D03*
Y007261D02*
D03*
X005205D02*
D03*
X005402D02*
D03*
X005598D02*
D03*
X005795D02*
D03*
X005992D02*
D03*
D28*
X004782Y008472D02*
D03*
Y008275D02*
D03*
Y008078D02*
D03*
Y007882D02*
D03*
Y007685D02*
D03*
Y007488D02*
D03*
X006219D02*
D03*
Y007685D02*
D03*
Y007882D02*
D03*
Y008078D02*
D03*
Y008275D02*
D03*
Y008472D02*
D03*
D29*
X005500Y007980D02*
D03*
D30*
X003695Y003970D02*
X003875Y004150D01*
X004025Y007750D02*
Y007970D01*
X003950Y007675D02*
X004025Y007750D01*
X003500Y007675D02*
X003950D01*
X003150D02*
X003500D01*
X002030Y007317D02*
Y007550D01*
X001631Y006919D02*
X002030Y007317D01*
X007800Y004200D02*
X008300D01*
X007290Y003340D02*
Y003690D01*
X007800Y004200D01*
D31*
X004225Y003905D02*
Y004150D01*
X004100Y003780D02*
X004225Y003905D01*
X004100Y003780D02*
X004168D01*
X004170Y003782D01*
X003500Y007126D02*
Y007325D01*
X005702Y006152D02*
Y006394D01*
X005320Y005770D02*
X005702Y006152D01*
X005905Y006350D02*
X006050D01*
X005905D02*
X005927Y006327D01*
X006100Y006500D01*
X005110Y005770D02*
X005320D01*
X006110Y002770D02*
Y002780D01*
X005775Y002670D02*
X005880Y002775D01*
Y002780D01*
X006110D01*
X005490Y002650D02*
X005550D01*
X005490D02*
X005510Y002670D01*
X005775D01*
X006219Y008078D02*
X006412D01*
X008050Y008400D02*
X008400D01*
X007950Y008500D02*
X008050Y008400D01*
X009300D02*
X009400D01*
X009100Y008600D02*
X009300Y008400D01*
X008900Y007400D02*
Y007550D01*
X009050Y007700D01*
X006412Y008078D02*
X006431Y008097D01*
X003500Y007126D02*
X003702Y006923D01*
X007720Y002680D02*
X007820D01*
X008300Y002200D01*
X007750Y003810D02*
X007780D01*
X008300Y003290D01*
Y003200D02*
Y003290D01*
X004106Y007424D02*
X004175D01*
X004025Y007505D02*
X004106Y007424D01*
X004025Y007505D02*
Y007750D01*
X004000Y007056D02*
X004045Y007011D01*
X004045D02*
X004045D01*
X005205Y007105D02*
X005229Y007080D01*
X002788Y006162D02*
X004288D01*
X002750Y006200D02*
X002788Y006162D01*
X004288D02*
X004600Y005850D01*
D32*
X004646Y008472D02*
X004782D01*
X005598Y007120D02*
X005608Y007111D01*
X005992Y007094D02*
X006055D01*
X005992D02*
Y007261D01*
X005598Y007120D02*
Y007261D01*
X005405Y006974D02*
Y007258D01*
X005806Y006970D02*
X005808Y006971D01*
X006847Y008297D02*
X006900Y008244D01*
Y008150D02*
Y008244D01*
X003870Y001950D02*
X003900D01*
X003866Y001945D02*
X003870Y001950D01*
X006900Y009500D02*
X007100D01*
X001420Y005770D02*
X002110D01*
X001400Y005750D02*
X001420Y005770D01*
X004895Y002213D02*
Y002238D01*
X004800Y002308D02*
Y002315D01*
X004698Y002213D02*
X004800Y002315D01*
Y002308D02*
X004895Y002213D01*
X004305Y002213D02*
X004400Y002308D01*
Y002315D02*
X004502Y002213D01*
X004400Y002308D02*
Y002315D01*
X005417Y003500D02*
X005500D01*
X005250Y003667D02*
X005417Y003500D01*
X005250Y003667D02*
Y003724D01*
X005169Y003805D02*
X005250Y003724D01*
X004800Y000992D02*
X004895Y001087D01*
X004800Y000800D02*
Y000985D01*
Y000992D01*
X004698Y001087D02*
X004800Y000985D01*
Y003450D02*
Y003761D01*
X004400Y003500D02*
Y003655D01*
X004550Y003805D01*
X004305Y001087D02*
X004400Y000992D01*
Y000800D02*
Y000985D01*
Y000992D01*
Y000985D02*
X004502Y001087D01*
X002900Y001412D02*
X003400D01*
X003457Y001355D01*
X004037D01*
X001900Y001412D02*
X002400D01*
X005700D02*
X006200D01*
X005643Y001355D02*
X005700Y001412D01*
X005163Y001355D02*
X005643D01*
X005163Y001945D02*
X006167D01*
X006700Y001412D01*
X004774Y004464D02*
X004800Y004439D01*
X004774Y004464D02*
Y004564D01*
X004674D02*
X004774D01*
X005050Y004198D02*
X005248D01*
X005302Y004252D01*
X005050Y004002D02*
X005198D01*
X005450Y003750D01*
X005302Y004252D02*
Y004262D01*
X004274Y004198D02*
X004550D01*
X004293Y004395D02*
X004550D01*
X004215Y004474D02*
X004293Y004395D01*
X005402Y007261D02*
X005405Y007258D01*
X005795Y007261D02*
X005808Y007249D01*
X006219Y007488D02*
X006331D01*
X006219Y007685D02*
X006375D01*
X006219Y007882D02*
Y007888D01*
Y008275D02*
Y008288D01*
Y008472D02*
X006346D01*
X004732Y007488D02*
X004782D01*
Y007882D02*
Y007885D01*
X004408Y007750D02*
X004543Y007885D01*
X004375Y007750D02*
X004408D01*
X004543Y007885D02*
X004782D01*
X004404Y008078D02*
X004782D01*
X004400Y008275D02*
X004782D01*
X002100Y009500D02*
X002429D01*
X001950Y006350D02*
X002100Y006500D01*
X007110Y002770D02*
Y003090D01*
X005360Y002750D02*
X005380Y002770D01*
X002110D02*
Y003090D01*
X005050Y004395D02*
Y004650D01*
X007599Y006151D02*
Y006340D01*
X007218Y005770D02*
X007599Y006151D01*
X006000Y005158D02*
X006034Y005123D01*
X006000Y005158D02*
Y005660D01*
X005110Y002770D02*
X005380D01*
X006219Y008288D02*
X006228Y008297D01*
X004400Y002315D02*
Y002450D01*
X004800Y002315D02*
Y002450D01*
X005310Y002800D02*
X005360Y002750D01*
X005310Y002800D02*
X005360Y002850D01*
X005700D01*
X004948Y007202D02*
X005008Y007261D01*
X005808Y006971D02*
Y007249D01*
X006228Y008297D02*
X006847D01*
X006375Y007685D02*
X006378Y007688D01*
X006331Y007488D02*
X006378Y007441D01*
X004100Y006500D02*
X004150Y006550D01*
X004550Y004689D02*
X004674Y004564D01*
X008300Y001200D02*
X009300D01*
X009690Y001590D01*
Y001710D01*
X004300Y007000D02*
X004419D01*
X006700Y000395D02*
Y000888D01*
X005700Y000395D02*
Y000888D01*
X002900Y000395D02*
Y000888D01*
X001900Y000395D02*
Y000888D01*
Y001412D02*
X002150Y001662D01*
X003866Y001945D02*
X004037D01*
X003560Y001818D02*
X003630Y001748D01*
X003560Y001818D02*
Y002180D01*
X003630Y001748D02*
X004037D01*
X002694Y002180D02*
X003560D01*
X006706Y007146D02*
Y007446D01*
X006690Y007130D02*
X006706Y007146D01*
X006580Y007130D02*
X006690D01*
X004248Y007304D02*
Y007351D01*
X004175Y007424D02*
X004248Y007351D01*
X004419Y007000D02*
X004577Y006842D01*
X004685D01*
X004777Y006750D01*
X005027Y007000D01*
X005122Y006905D01*
X005335D01*
X005405Y006974D01*
X005205Y007105D02*
Y007261D01*
X004660Y007042D02*
X004820Y007202D01*
X004948D01*
X004646Y007402D02*
X004732Y007488D01*
X005992Y008698D02*
Y008709D01*
X005402Y008698D02*
X005443Y008740D01*
X006100Y009500D02*
X006300Y009300D01*
X006700Y008826D02*
Y008850D01*
X006346Y008472D02*
X006700Y008826D01*
X004626Y007685D02*
X004782D01*
X005100Y009500D02*
X005421D01*
X005800Y008703D02*
Y008850D01*
X004520Y008598D02*
X004646Y008472D01*
X004520Y008598D02*
Y008750D01*
X005443Y008740D02*
Y008907D01*
X006219Y007888D02*
X006561D01*
D33*
X003300Y008750D02*
Y009400D01*
X003200Y009500D02*
X003300Y009400D01*
X003150Y007136D02*
Y007325D01*
X005049Y006394D02*
X005100Y006445D01*
Y006500D01*
X003050Y005710D02*
X003110Y005770D01*
X003040Y005710D02*
X003050D01*
X005990Y008698D02*
X005992D01*
X005990D02*
Y008929D01*
X005382Y009290D02*
X005629D01*
X004902Y008698D02*
X005008D01*
X004100Y009500D02*
X004902Y008698D01*
X005629Y009290D02*
X005990Y008929D01*
X004956Y009152D02*
X005244D01*
X005382Y009290D01*
X005156Y008845D02*
X005205D01*
Y008698D02*
Y008845D01*
X004850Y009050D02*
X004854D01*
X004956Y009152D01*
X003150Y007136D02*
X003526Y006760D01*
D34*
X006700Y001412D02*
X007200D01*
X003100Y006500D02*
X003300D01*
X003400Y006400D01*
D35*
X001900Y000395D02*
D03*
X002400D02*
D03*
X002900D02*
D03*
X003400D02*
D03*
X005700D02*
D03*
X006200D02*
D03*
X006700D02*
D03*
X007200D02*
D03*
D36*
X003069Y008640D02*
D03*
X003695Y003970D02*
D03*
X004100Y003780D02*
D03*
X001140Y008600D02*
D03*
X001704D02*
D03*
X002822Y008928D02*
D03*
X003300Y008750D02*
D03*
X002000Y008583D02*
D03*
X002011Y008850D02*
D03*
X002300Y008900D02*
D03*
X000850Y002650D02*
D03*
X000650Y002750D02*
D03*
X000450Y002850D02*
D03*
X000250Y003000D02*
D03*
X003650Y003050D02*
D03*
X001600Y008148D02*
D03*
X005500Y006700D02*
D03*
X005702Y006394D02*
D03*
X005608Y007111D02*
D03*
X005806Y006970D02*
D03*
X006055Y007094D02*
D03*
X006050Y006350D02*
D03*
X005049Y006394D02*
D03*
X007278Y006885D02*
D03*
X006300Y006900D02*
D03*
X004150Y002850D02*
D03*
X006900Y008150D02*
D03*
X007000Y007850D02*
D03*
X006900Y009500D02*
D03*
X001400Y005750D02*
D03*
X005450Y003750D02*
D03*
X005500Y003500D02*
D03*
X004800Y000800D02*
D03*
X004400D02*
D03*
X004800Y003450D02*
D03*
X004400Y003500D02*
D03*
X007200Y002150D02*
D03*
Y002350D02*
D03*
X005650D02*
D03*
Y002150D02*
D03*
X005302Y004262D02*
D03*
X006561Y007888D02*
D03*
X002429Y009500D02*
D03*
X001950Y006350D02*
D03*
X007110Y003090D02*
D03*
X002880Y002770D02*
D03*
X002110Y003090D02*
D03*
X005050Y004650D02*
D03*
X001147Y003803D02*
D03*
X000753Y005153D02*
D03*
X001150Y005350D02*
D03*
X001631Y006919D02*
D03*
X001700Y006436D02*
D03*
X001832Y004882D02*
D03*
X007599Y006340D02*
D03*
X006034Y005123D02*
D03*
X004400Y002450D02*
D03*
X004800D02*
D03*
X005700Y002850D02*
D03*
X005550Y002650D02*
D03*
X007950Y008500D02*
D03*
X009100Y008600D02*
D03*
X009050Y007700D02*
D03*
X007600Y007000D02*
D03*
X006431Y008097D02*
D03*
X006378Y007688D02*
D03*
Y007441D02*
D03*
X004150Y006550D02*
D03*
X003702Y006923D02*
D03*
X004550Y004689D02*
D03*
X003550Y005350D02*
D03*
X008240Y009280D02*
D03*
X003060Y004320D02*
D03*
X002990Y004560D02*
D03*
X007720Y002680D02*
D03*
X007750Y003810D02*
D03*
X009690Y001710D02*
D03*
X004300Y007000D02*
D03*
X004175Y007424D02*
D03*
X004380Y005070D02*
D03*
X003040Y005710D02*
D03*
X003560Y002180D02*
D03*
X003900Y001950D02*
D03*
X002150Y001662D02*
D03*
X006580Y007130D02*
D03*
X004045Y007011D02*
D03*
X004660Y007042D02*
D03*
X003550Y008400D02*
D03*
X003800Y008730D02*
D03*
X005205Y007105D02*
D03*
X004646Y007402D02*
D03*
X004348Y005822D02*
D03*
X006300Y009300D02*
D03*
X006700Y008850D02*
D03*
X004626Y007685D02*
D03*
X005421Y009500D02*
D03*
X005800Y008850D02*
D03*
X004520Y008750D02*
D03*
X005443Y008907D02*
D03*
X005083Y008917D02*
D03*
X007000Y006350D02*
D03*
X004850Y009050D02*
D03*
X002750Y006200D02*
D03*
X003950Y005250D02*
D03*
X006561Y006389D02*
D03*
X004600Y005850D02*
D03*
X003400Y006400D02*
D03*
X003526Y006760D02*
D03*
D37*
X007290Y003340D02*
D03*
M02*
