G04 Layer_Color=16711935*
%FSAX24Y24*%
%MOIN*%
G70*
G01*
G75*
%ADD54P,0.1587X4X90.0*%
G04:AMPARAMS|DCode=73|XSize=26.3mil|YSize=24.7mil|CornerRadius=7.6mil|HoleSize=0mil|Usage=FLASHONLY|Rotation=90.000|XOffset=0mil|YOffset=0mil|HoleType=Round|Shape=RoundedRectangle|*
%AMROUNDEDRECTD73*
21,1,0.0263,0.0094,0,0,90.0*
21,1,0.0110,0.0247,0,0,90.0*
1,1,0.0152,0.0047,0.0055*
1,1,0.0152,0.0047,-0.0055*
1,1,0.0152,-0.0047,-0.0055*
1,1,0.0152,-0.0047,0.0055*
%
%ADD73ROUNDEDRECTD73*%
G04:AMPARAMS|DCode=77|XSize=25.1mil|YSize=24.7mil|CornerRadius=7.6mil|HoleSize=0mil|Usage=FLASHONLY|Rotation=180.000|XOffset=0mil|YOffset=0mil|HoleType=Round|Shape=RoundedRectangle|*
%AMROUNDEDRECTD77*
21,1,0.0251,0.0094,0,0,180.0*
21,1,0.0098,0.0247,0,0,180.0*
1,1,0.0152,-0.0049,0.0047*
1,1,0.0152,0.0049,0.0047*
1,1,0.0152,0.0049,-0.0047*
1,1,0.0152,-0.0049,-0.0047*
%
%ADD77ROUNDEDRECTD77*%
G04:AMPARAMS|DCode=81|XSize=26.3mil|YSize=24.7mil|CornerRadius=7.6mil|HoleSize=0mil|Usage=FLASHONLY|Rotation=180.000|XOffset=0mil|YOffset=0mil|HoleType=Round|Shape=RoundedRectangle|*
%AMROUNDEDRECTD81*
21,1,0.0263,0.0094,0,0,180.0*
21,1,0.0110,0.0247,0,0,180.0*
1,1,0.0152,-0.0055,0.0047*
1,1,0.0152,0.0055,0.0047*
1,1,0.0152,0.0055,-0.0047*
1,1,0.0152,-0.0055,-0.0047*
%
%ADD81ROUNDEDRECTD81*%
G04:AMPARAMS|DCode=83|XSize=25.1mil|YSize=24.7mil|CornerRadius=7.6mil|HoleSize=0mil|Usage=FLASHONLY|Rotation=270.000|XOffset=0mil|YOffset=0mil|HoleType=Round|Shape=RoundedRectangle|*
%AMROUNDEDRECTD83*
21,1,0.0251,0.0094,0,0,270.0*
21,1,0.0098,0.0247,0,0,270.0*
1,1,0.0152,-0.0047,-0.0049*
1,1,0.0152,-0.0047,0.0049*
1,1,0.0152,0.0047,0.0049*
1,1,0.0152,0.0047,-0.0049*
%
%ADD83ROUNDEDRECTD83*%
%ADD87O,0.0400X0.0499*%
G04:AMPARAMS|DCode=88|XSize=44.4mil|YSize=142.8mil|CornerRadius=7.4mil|HoleSize=0mil|Usage=FLASHONLY|Rotation=90.000|XOffset=0mil|YOffset=0mil|HoleType=Round|Shape=RoundedRectangle|*
%AMROUNDEDRECTD88*
21,1,0.0444,0.1280,0,0,90.0*
21,1,0.0295,0.1428,0,0,90.0*
1,1,0.0148,0.0640,0.0148*
1,1,0.0148,0.0640,-0.0148*
1,1,0.0148,-0.0640,-0.0148*
1,1,0.0148,-0.0640,0.0148*
%
%ADD88ROUNDEDRECTD88*%
G04:AMPARAMS|DCode=89|XSize=64.1mil|YSize=138.9mil|CornerRadius=9.9mil|HoleSize=0mil|Usage=FLASHONLY|Rotation=90.000|XOffset=0mil|YOffset=0mil|HoleType=Round|Shape=RoundedRectangle|*
%AMROUNDEDRECTD89*
21,1,0.0641,0.1191,0,0,90.0*
21,1,0.0443,0.1389,0,0,90.0*
1,1,0.0198,0.0595,0.0221*
1,1,0.0198,0.0595,-0.0221*
1,1,0.0198,-0.0595,-0.0221*
1,1,0.0198,-0.0595,0.0221*
%
%ADD89ROUNDEDRECTD89*%
%ADD90C,0.0300*%
%ADD91R,0.0302X0.0326*%
%ADD92R,0.0660X0.0267*%
%ADD93R,0.0562X0.0227*%
%ADD94R,0.0255X0.0700*%
%ADD95R,0.0326X0.0326*%
%ADD96R,0.0274X0.0621*%
%ADD97R,0.0448X0.0719*%
%ADD98R,0.0255X0.0503*%
%ADD99R,0.0274X0.0822*%
%ADD100R,0.0274X0.0778*%
G04:AMPARAMS|DCode=101|XSize=34.9mil|YSize=15.2mil|CornerRadius=5.3mil|HoleSize=0mil|Usage=FLASHONLY|Rotation=225.000|XOffset=0mil|YOffset=0mil|HoleType=Round|Shape=RoundedRectangle|*
%AMROUNDEDRECTD101*
21,1,0.0349,0.0047,0,0,225.0*
21,1,0.0244,0.0152,0,0,225.0*
1,1,0.0105,-0.0103,-0.0070*
1,1,0.0105,0.0070,0.0103*
1,1,0.0105,0.0103,0.0070*
1,1,0.0105,-0.0070,-0.0103*
%
%ADD101ROUNDEDRECTD101*%
G04:AMPARAMS|DCode=102|XSize=34.9mil|YSize=15.2mil|CornerRadius=5.3mil|HoleSize=0mil|Usage=FLASHONLY|Rotation=135.000|XOffset=0mil|YOffset=0mil|HoleType=Round|Shape=RoundedRectangle|*
%AMROUNDEDRECTD102*
21,1,0.0349,0.0047,0,0,135.0*
21,1,0.0244,0.0152,0,0,135.0*
1,1,0.0105,-0.0070,0.0103*
1,1,0.0105,0.0103,-0.0070*
1,1,0.0105,0.0070,-0.0103*
1,1,0.0105,-0.0103,0.0070*
%
%ADD102ROUNDEDRECTD102*%
G04:AMPARAMS|DCode=103|XSize=39.3mil|YSize=28.6mil|CornerRadius=8.4mil|HoleSize=0mil|Usage=FLASHONLY|Rotation=90.000|XOffset=0mil|YOffset=0mil|HoleType=Round|Shape=RoundedRectangle|*
%AMROUNDEDRECTD103*
21,1,0.0393,0.0118,0,0,90.0*
21,1,0.0224,0.0286,0,0,90.0*
1,1,0.0168,0.0059,0.0112*
1,1,0.0168,0.0059,-0.0112*
1,1,0.0168,-0.0059,-0.0112*
1,1,0.0168,-0.0059,0.0112*
%
%ADD103ROUNDEDRECTD103*%
G04:AMPARAMS|DCode=104|XSize=28.2mil|YSize=86.1mil|CornerRadius=8.4mil|HoleSize=0mil|Usage=FLASHONLY|Rotation=60.000|XOffset=0mil|YOffset=0mil|HoleType=Round|Shape=RoundedRectangle|*
%AMROUNDEDRECTD104*
21,1,0.0282,0.0693,0,0,60.0*
21,1,0.0114,0.0861,0,0,60.0*
1,1,0.0168,0.0328,-0.0124*
1,1,0.0168,0.0271,-0.0222*
1,1,0.0168,-0.0328,0.0124*
1,1,0.0168,-0.0271,0.0222*
%
%ADD104ROUNDEDRECTD104*%
%ADD105C,0.0114*%
G04:AMPARAMS|DCode=106|XSize=57.8mil|YSize=127.8mil|CornerRadius=12.3mil|HoleSize=0mil|Usage=FLASHONLY|Rotation=150.000|XOffset=0mil|YOffset=0mil|HoleType=Round|Shape=RoundedRectangle|*
%AMROUNDEDRECTD106*
21,1,0.0578,0.1033,0,0,150.0*
21,1,0.0332,0.1278,0,0,150.0*
1,1,0.0245,0.0114,0.0530*
1,1,0.0245,0.0402,0.0364*
1,1,0.0245,-0.0114,-0.0530*
1,1,0.0245,-0.0402,-0.0364*
%
%ADD106ROUNDEDRECTD106*%
G04:AMPARAMS|DCode=107|XSize=24.7mil|YSize=28.6mil|CornerRadius=7.4mil|HoleSize=0mil|Usage=FLASHONLY|Rotation=180.000|XOffset=0mil|YOffset=0mil|HoleType=Round|Shape=RoundedRectangle|*
%AMROUNDEDRECTD107*
21,1,0.0247,0.0138,0,0,180.0*
21,1,0.0098,0.0286,0,0,180.0*
1,1,0.0148,-0.0049,0.0069*
1,1,0.0148,0.0049,0.0069*
1,1,0.0148,0.0049,-0.0069*
1,1,0.0148,-0.0049,-0.0069*
%
%ADD107ROUNDEDRECTD107*%
%ADD108R,0.0298X0.0353*%
G04:AMPARAMS|DCode=109|XSize=18.9mil|YSize=15.7mil|CornerRadius=5.1mil|HoleSize=0mil|Usage=FLASHONLY|Rotation=90.000|XOffset=0mil|YOffset=0mil|HoleType=Round|Shape=RoundedRectangle|*
%AMROUNDEDRECTD109*
21,1,0.0189,0.0056,0,0,90.0*
21,1,0.0087,0.0157,0,0,90.0*
1,1,0.0102,0.0028,0.0044*
1,1,0.0102,0.0028,-0.0044*
1,1,0.0102,-0.0028,-0.0044*
1,1,0.0102,-0.0028,0.0044*
%
%ADD109ROUNDEDRECTD109*%
G04:AMPARAMS|DCode=110|XSize=18.9mil|YSize=15.7mil|CornerRadius=5.1mil|HoleSize=0mil|Usage=FLASHONLY|Rotation=0.000|XOffset=0mil|YOffset=0mil|HoleType=Round|Shape=RoundedRectangle|*
%AMROUNDEDRECTD110*
21,1,0.0189,0.0056,0,0,0.0*
21,1,0.0087,0.0157,0,0,0.0*
1,1,0.0102,0.0044,-0.0028*
1,1,0.0102,-0.0044,-0.0028*
1,1,0.0102,-0.0044,0.0028*
1,1,0.0102,0.0044,0.0028*
%
%ADD110ROUNDEDRECTD110*%
G36*
X002657Y008391D02*
X002670Y008388D01*
X002681Y008384D01*
X002691Y008377D01*
X002701Y008369D01*
X003502Y007566D01*
X003509Y007556D01*
X003513Y007544D01*
X003516Y007532D01*
X003517Y007520D01*
X003516Y007508D01*
X003513Y007496D01*
X003509Y007484D01*
X003502Y007474D01*
X003494Y007464D01*
X002701Y006671D01*
X002590Y006671D01*
X001788Y007474D01*
X001782Y007484D01*
X001777Y007496D01*
X001774Y007508D01*
X001773Y007520D01*
X001774Y007532D01*
X001777Y007544D01*
X001782Y007556D01*
X001788Y007566D01*
X001796Y007576D01*
X002590Y008369D01*
X002599Y008377D01*
X002609Y008384D01*
X002621Y008388D01*
X002633Y008391D01*
X002645Y008392D01*
X002657Y008391D01*
D02*
G37*
D54*
X002645Y007520D02*
D03*
D73*
X003927Y005685D02*
D03*
Y006024D02*
D03*
X001900Y005131D02*
D03*
Y005469D02*
D03*
Y004569D02*
D03*
Y004231D02*
D03*
X001700Y006119D02*
D03*
Y005781D02*
D03*
D77*
X003825Y003700D02*
D03*
X003475D02*
D03*
X002225D02*
D03*
X002575D02*
D03*
D81*
X003931Y008750D02*
D03*
X004269D02*
D03*
X003069Y009250D02*
D03*
X002731D02*
D03*
X003431Y003350D02*
D03*
X003769D02*
D03*
X002619D02*
D03*
X002281D02*
D03*
D83*
X001900Y003775D02*
D03*
Y003425D02*
D03*
D87*
Y000395D02*
D03*
X002400D02*
D03*
X002900D02*
D03*
X003400D02*
D03*
X005700D02*
D03*
X006200D02*
D03*
X006700D02*
D03*
X007200D02*
D03*
D88*
X006422Y001506D02*
D03*
Y002294D02*
D03*
D89*
X009099Y000542D02*
D03*
Y003258D02*
D03*
D90*
X000350Y005800D02*
D03*
Y005300D02*
D03*
D91*
X005385Y006682D02*
D03*
X005818D02*
D03*
X006251D02*
D03*
X007983D02*
D03*
X006684D02*
D03*
X007117D02*
D03*
X007550D02*
D03*
X004952D02*
D03*
D92*
X004993Y004004D02*
D03*
D93*
X009176Y004062D02*
D03*
D94*
X009682Y006788D02*
D03*
D95*
X005739Y004241D02*
D03*
D96*
X009682Y009526D02*
D03*
D97*
X004505Y009477D02*
D03*
D98*
X004408Y006316D02*
D03*
Y005446D02*
D03*
D99*
X009682Y004174D02*
D03*
D100*
X004418Y004152D02*
D03*
D101*
X002468Y006369D02*
D03*
X002329Y006508D02*
D03*
X002190Y006647D02*
D03*
X002051Y006786D02*
D03*
X001912Y006926D02*
D03*
X001772Y007065D02*
D03*
X001633Y007204D02*
D03*
X001494Y007343D02*
D03*
X002822Y008671D02*
D03*
X002961Y008532D02*
D03*
X003100Y008393D02*
D03*
X003240Y008254D02*
D03*
X003379Y008114D02*
D03*
X003518Y007975D02*
D03*
X003657Y007836D02*
D03*
X003796Y007697D02*
D03*
D102*
X001494D02*
D03*
X001633Y007836D02*
D03*
X001772Y007975D02*
D03*
X001912Y008114D02*
D03*
X002051Y008254D02*
D03*
X002190Y008393D02*
D03*
X002329Y008532D02*
D03*
X002468Y008671D02*
D03*
X003796Y007343D02*
D03*
X003657Y007204D02*
D03*
X003518Y007065D02*
D03*
X003379Y006926D02*
D03*
X003240Y006786D02*
D03*
X003100Y006647D02*
D03*
X002961Y006508D02*
D03*
X002822Y006369D02*
D03*
D103*
X001541Y004882D02*
D03*
X001147D02*
D03*
X000753D02*
D03*
X000359D02*
D03*
Y004118D02*
D03*
X000753D02*
D03*
X001147D02*
D03*
X001541D02*
D03*
D104*
X000883Y003352D02*
D03*
X000662Y002970D02*
D03*
X002221Y002070D02*
D03*
X002442Y002452D02*
D03*
X003221Y002002D02*
D03*
X003001Y001620D02*
D03*
D105*
X001657Y002400D02*
D03*
X001735Y002536D02*
D03*
X001814Y002672D02*
D03*
X001520Y002478D02*
D03*
X001599Y002615D02*
D03*
X001678Y002751D02*
D03*
X001384Y002557D02*
D03*
X001462Y002694D02*
D03*
X001541Y002830D02*
D03*
X001247Y002636D02*
D03*
X001326Y002772D02*
D03*
X001405Y002909D02*
D03*
X002971Y003543D02*
D03*
X003129D02*
D03*
X002971Y003700D02*
D03*
X003129D02*
D03*
X002971Y003857D02*
D03*
X003129D02*
D03*
D106*
X000692Y001880D02*
D03*
X001435Y001451D02*
D03*
D107*
X002323Y004050D02*
D03*
X002677D02*
D03*
D108*
X001093Y006698D02*
D03*
X000695Y006698D02*
D03*
X000695Y007214D02*
D03*
X001093Y007214D02*
D03*
D109*
X000350Y007010D02*
D03*
Y006790D02*
D03*
D110*
X001010Y006300D02*
D03*
X000790Y006300D02*
D03*
M02*
